<svg width="38" height="30" viewBox="0 0 38 30" fill="none" xmlns="http://www.w3.org/2000/svg">
<path fill-rule="evenodd" clip-rule="evenodd" d="M0.625 4.5C0.625 3.45571 1.03984 2.45419 1.77827 1.71577C2.51669 0.977343 3.51821 0.5625 4.5625 0.5625H33.4375C34.4818 0.5625 35.4833 0.977343 36.2217 1.71577C36.9602 2.45419 37.375 3.45571 37.375 4.5V25.5C37.375 26.5443 36.9602 27.5458 36.2217 28.2842C35.4833 29.0227 34.4818 29.4375 33.4375 29.4375H4.5625C3.51821 29.4375 2.51669 29.0227 1.77827 28.2842C1.03984 27.5458 0.625 26.5443 0.625 25.5V4.5ZM3.25 22.105V25.5C3.25 26.2245 3.838 26.8125 4.5625 26.8125H33.4375C33.7856 26.8125 34.1194 26.6742 34.3656 26.4281C34.6117 26.1819 34.75 25.8481 34.75 25.5V22.105L30.0425 17.3993C29.5503 16.9077 28.8831 16.6316 28.1875 16.6316C27.4919 16.6316 26.8247 16.9077 26.3325 17.3993L24.7925 18.9375L26.49 20.635C26.619 20.7552 26.7224 20.9001 26.7941 21.0611C26.8659 21.2221 26.9044 21.3959 26.9075 21.5721C26.9106 21.7483 26.8782 21.9234 26.8122 22.0868C26.7462 22.2502 26.6479 22.3987 26.5233 22.5233C26.3987 22.6479 26.2502 22.7462 26.0868 22.8122C25.9234 22.8782 25.7483 22.9106 25.5721 22.9075C25.3959 22.9044 25.2221 22.8659 25.0611 22.7941C24.9001 22.7224 24.7552 22.619 24.635 22.49L15.605 13.4618C15.1128 12.9702 14.4456 12.6941 13.75 12.6941C13.0544 12.6941 12.3872 12.9702 11.895 13.4618L3.25 22.1068V22.105ZM20.9688 8.4375C20.9688 7.91536 21.1762 7.4146 21.5454 7.04538C21.9146 6.67617 22.4154 6.46875 22.9375 6.46875C23.4596 6.46875 23.9604 6.67617 24.3296 7.04538C24.6988 7.4146 24.9062 7.91536 24.9062 8.4375C24.9062 8.95965 24.6988 9.4604 24.3296 9.82962C23.9604 10.1988 23.4596 10.4062 22.9375 10.4062C22.4154 10.4062 21.9146 10.1988 21.5454 9.82962C21.1762 9.4604 20.9688 8.95965 20.9688 8.4375Z" fill="#D1D5DB"/>
</svg>
