<svg width="54" height="55" viewBox="0 0 54 55" fill="none" xmlns="http://www.w3.org/2000/svg">
<rect y="0.80957" width="54" height="54" rx="27" fill="url(#paint0_linear_2444_48552)"/>
<path d="M21.921 27.8095C21.921 25.0026 24.1953 22.7265 27.0014 22.7265C29.8076 22.7265 32.083 25.0026 32.083 27.8095C32.083 30.6165 29.8076 32.8926 27.0014 32.8926C24.1953 32.8926 21.921 30.6165 21.921 27.8095ZM19.174 27.8095C19.174 32.1339 22.6783 35.6392 27.0014 35.6392C31.3245 35.6392 34.8288 32.1339 34.8288 27.8095C34.8288 23.4852 31.3245 19.9799 27.0014 19.9799C22.6783 19.9799 19.174 23.4852 19.174 27.8095ZM33.3095 19.6694C33.3093 20.0313 33.4165 20.3851 33.6173 20.6861C33.8182 20.9871 34.1038 21.2217 34.438 21.3603C34.7722 21.499 35.14 21.5354 35.4949 21.4649C35.8497 21.3944 36.1757 21.2203 36.4317 20.9645C36.6876 20.7087 36.8619 20.3827 36.9326 20.0278C37.0034 19.6729 36.9673 19.305 36.829 18.9706C36.6907 18.6362 36.4563 18.3503 36.1556 18.1492C35.8548 17.948 35.5012 17.8405 35.1394 17.8404H35.1387C34.6538 17.8406 34.1887 18.0334 33.8458 18.3763C33.5028 18.7192 33.3099 19.1843 33.3095 19.6694V19.6694ZM20.843 40.221C19.3568 40.1533 18.549 39.9057 18.0122 39.6965C17.3005 39.4194 16.7927 39.0893 16.2588 38.556C15.7249 38.0227 15.3945 37.5152 15.1186 36.8033C14.9093 36.2666 14.6618 35.4583 14.5942 33.9717C14.5203 32.3644 14.5056 31.8816 14.5056 27.8097C14.5056 23.7377 14.5215 23.2562 14.5942 21.6476C14.6619 20.161 14.9113 19.3543 15.1186 18.816C15.3957 18.1041 15.7257 17.5962 16.2588 17.0621C16.792 16.5281 17.2993 16.1975 18.0122 15.9216C18.5488 15.7123 19.3568 15.4646 20.843 15.397C22.4498 15.3231 22.9325 15.3084 27.0014 15.3084C31.0704 15.3084 31.5535 15.3243 33.1617 15.397C34.6479 15.4647 35.4543 15.7142 35.9925 15.9216C36.7042 16.1975 37.212 16.5288 37.7459 17.0621C38.2797 17.5954 38.609 18.1041 38.8861 18.816C39.0953 19.3527 39.3429 20.161 39.4105 21.6476C39.4844 23.2562 39.4991 23.7377 39.4991 27.8097C39.4991 31.8816 39.4844 32.3631 39.4105 33.9717C39.3428 35.4583 39.094 36.2663 38.8861 36.8033C38.609 37.5152 38.279 38.0231 37.7459 38.556C37.2127 39.0888 36.7042 39.4194 35.9925 39.6965C35.4559 39.9058 34.6479 40.1535 33.1617 40.221C31.5549 40.295 31.0722 40.3097 27.0014 40.3097C22.9306 40.3097 22.4493 40.295 20.843 40.221V40.221ZM20.7168 12.6539C19.094 12.7278 17.9851 12.9852 17.0167 13.3621C16.0138 13.7514 15.1648 14.2736 14.3164 15.1209C13.468 15.9682 12.9473 16.8188 12.5582 17.822C12.1813 18.7913 11.924 19.8998 11.8501 21.5231C11.775 23.1489 11.7578 23.6687 11.7578 27.8095C11.7578 31.9504 11.775 32.4702 11.8501 34.096C11.924 35.7193 12.1813 36.8278 12.5582 37.7971C12.9473 38.7997 13.4681 39.6513 14.3164 40.4982C15.1647 41.3451 16.0138 41.8666 17.0167 42.257C17.987 42.6339 19.094 42.8913 20.7168 42.9652C22.343 43.0391 22.8617 43.0575 27.0014 43.0575C31.1411 43.0575 31.6607 43.0403 33.2861 42.9652C34.909 42.8913 36.0171 42.6339 36.9861 42.257C37.9884 41.8666 38.838 41.3455 39.6864 40.4982C40.5348 39.6509 41.0544 38.7997 41.4447 37.7971C41.8215 36.8278 42.08 35.7192 42.1527 34.096C42.2266 32.469 42.2438 31.9504 42.2438 27.8095C42.2438 23.6687 42.2266 23.1489 42.1527 21.5231C42.0788 19.8997 41.8215 18.7906 41.4447 17.822C41.0544 16.8194 40.5335 15.9695 39.6864 15.1209C38.8394 14.2722 37.9884 13.7514 36.9873 13.3621C36.0171 12.9852 34.9088 12.7266 33.2873 12.6539C31.6619 12.5799 31.1423 12.5615 27.0026 12.5615C22.863 12.5615 22.343 12.5787 20.7168 12.6539Z" fill="white"/>
<defs>
<linearGradient id="paint0_linear_2444_48552" x1="52.9621" y1="54.8096" x2="-1.03788" y2="0.809569" gradientUnits="userSpaceOnUse">
<stop stop-color="#FBE18A"/>
<stop offset="0.21" stop-color="#FCBB45"/>
<stop offset="0.38" stop-color="#F75274"/>
<stop offset="0.52" stop-color="#D53692"/>
<stop offset="0.74" stop-color="#8F39CE"/>
<stop offset="1" stop-color="#5B4FE9"/>
</linearGradient>
</defs>
</svg>
