<svg width="995" height="1175" viewBox="0 0 995 1175" fill="none" xmlns="http://www.w3.org/2000/svg">
<path opacity="0.91" d="M971.127 580.95C972.255 590.55 973.113 600.195 973.677 609.885C974.173 619.575 974.354 629.299 974.218 639.08C973.97 648.86 973.372 658.686 972.425 668.534C971.342 678.405 969.909 688.286 968.115 698.202C966.186 708.095 963.908 718 961.279 727.882C958.527 737.741 955.447 747.556 952.052 757.291C948.554 766.947 944.764 776.502 940.703 785.887C936.574 795.149 932.197 804.185 927.595 812.973C922.97 821.557 918.142 829.815 913.144 837.711C908.158 845.337 903.025 852.534 897.757 859.269C892.546 865.71 887.221 871.666 881.806 877.126C876.471 882.304 871.056 887.031 865.585 891.306C857.485 897.341 841.15 908.171 832.938 913.507C827.557 917.432 822.109 921.606 816.604 926.141C811.2 931.33 805.729 937.061 800.179 943.434C794.708 950.609 789.158 958.494 783.506 967.056C777.922 976.363 772.236 986.222 766.427 996.533C760.674 1007.19 754.785 1017.94 748.772 1028.59C742.782 1038.97 736.657 1048.76 730.374 1057.73C724.101 1065.77 717.683 1072.6 711.106 1078.04C704.529 1082.16 697.783 1084.77 690.88 1085.89C683.965 1085.87 676.892 1084.62 669.661 1082.41C662.407 1079.81 654.996 1076.87 647.438 1073.98C639.857 1071.76 632.118 1070.31 624.244 1069.93C616.348 1071.11 608.305 1073.77 600.149 1078C591.959 1083.91 583.645 1091.19 575.218 1099.56C566.78 1108.8 558.218 1118.34 549.566 1127.69C540.902 1136.52 532.137 1144.15 523.282 1150.17C514.415 1154.41 505.481 1156.45 496.456 1156.17C487.431 1153.88 478.339 1149.51 469.179 1143.41C460.019 1136.3 450.803 1128.46 441.519 1120.47C432.246 1113.21 423.018 1107.01 413.858 1102.3C404.687 1099.56 395.584 1098.73 386.525 1099.76C377.478 1102.74 368.476 1107.11 359.53 1112.45C350.573 1118.56 341.673 1124.64 332.806 1130.16C323.928 1134.94 315.095 1138.26 306.296 1139.83C297.452 1139.69 288.653 1137.49 279.866 1133.27C271.033 1127.38 262.211 1119.87 253.401 1111.04C244.523 1101.44 235.645 1091.3 226.745 1081.06C217.788 1071.18 208.797 1061.89 199.772 1053.49C190.68 1046.29 181.543 1040.31 172.383 1035.59C163.121 1032.26 153.826 1030.05 144.497 1028.8C135.089 1028.51 125.647 1028.74 116.193 1029.2C106.672 1029.9 97.1401 1030.33 87.6192 1030.24C78.0644 1029.7 68.5435 1028.27 59.1015 1025.84C49.6595 1022.55 40.319 1018.14 31.114 1012.63C21.9991 1006.21 13.0535 998.789 4.33347 990.486C-4.2399 981.518 -12.52 971.896 -20.4955 961.799C-28.2341 951.387 -35.5891 940.738 -42.5268 930.01C-49.1599 919.316 -55.3304 908.735 -60.9821 898.356C-66.2727 888.249 -71.0332 878.457 -75.2184 868.993C-79.0313 859.912 -82.2576 851.18 -84.8973 842.776C-87.1873 834.767 -88.9132 827.028 -90.0977 819.515C-90.9889 812.318 -91.3837 805.279 -91.3385 798.33C-91.1242 791.596 -90.5489 784.872 -89.669 778.115C-88.8004 771.482 -87.74 764.747 -86.5555 757.877C-85.5628 751.052 -84.5814 744.058 -83.6789 736.861C-83.1487 729.664 -82.8329 722.253 -82.7539 714.627C-83.2164 706.967 -84.0174 699.082 -85.1906 690.982C-86.9842 682.849 -89.1952 674.49 -91.8124 665.928C-95.0499 657.343 -98.671 648.556 -102.631 639.576C-107.109 630.585 -111.836 621.414 -116.743 612.074C-121.954 602.722 -127.2 593.224 -132.367 583.567C-137.578 573.911 -142.474 564.221 -146.964 554.519C-151.228 544.829 -154.906 535.128 -157.94 525.426C-160.523 515.725 -162.351 506.035 -163.389 496.367C-163.84 486.699 -163.434 477.066 -162.193 467.455C-160.332 457.877 -157.636 448.334 -154.15 438.847C-150.1 429.393 -145.328 420.008 -139.88 410.701C-134.014 401.44 -127.595 392.28 -120.691 383.244C-113.539 374.276 -106.026 365.431 -98.2536 356.745C-90.3909 348.149 -82.3929 339.723 -74.3046 331.476C-66.3178 323.332 -58.3536 315.39 -50.4571 307.651C-42.7975 300.014 -35.2845 292.58 -27.9408 285.361C-20.9241 278.231 -14.1218 271.294 -7.53387 264.559C-1.30689 257.858 4.68321 251.327 10.4702 244.953C15.9076 238.568 21.1418 232.307 26.2068 226.148C30.956 219.921 35.5811 213.773 40.116 207.682C44.3914 201.488 48.6217 195.352 52.8294 189.249C56.8679 183.044 60.9403 176.885 65.0916 170.793C69.1301 164.623 73.2814 158.554 77.5907 152.598C81.8435 146.619 86.2768 140.809 90.9245 135.169C95.5721 129.574 100.445 124.204 105.556 119.049C110.711 113.961 116.126 109.11 121.8 104.508C127.531 99.9504 133.532 95.6073 139.804 91.4673C146.132 87.3272 152.732 83.3677 159.579 79.5548C166.506 75.7081 173.68 71.9967 181.08 68.4207C188.548 64.7996 196.242 61.3251 204.138 58.0086C212.102 54.692 220.258 51.5785 228.595 48.7019C236.976 45.8818 245.527 43.3436 254.236 41.0987C262.967 38.9441 271.856 37.1054 280.87 35.5599C289.906 34.0708 299.066 32.8525 308.338 31.8711C317.622 30.8558 327.008 30.0098 336.484 29.3104C345.971 28.5094 355.537 27.81 365.193 27.2121C374.85 26.4902 384.574 25.8923 394.377 25.4636C404.168 24.9898 413.926 24.7417 423.628 24.7755C433.329 24.877 442.974 25.3057 452.574 26.0841C462.174 26.9865 471.717 28.2387 481.204 29.8293C490.692 31.4988 500.134 33.4617 509.519 35.6727C518.916 37.895 528.256 40.2978 537.552 42.8585C546.847 45.3629 556.097 47.98 565.302 50.7325C574.519 53.406 583.679 56.2149 592.794 59.1818C601.92 62.1035 611.001 65.2283 620.014 68.5561C629.05 71.9065 638.041 75.4937 646.964 79.3292C655.898 83.2098 664.765 87.3385 673.564 91.6816C682.363 96.0698 691.094 100.65 699.735 105.41C708.376 110.137 716.916 115.01 725.354 120.008C733.769 124.937 742.072 129.957 750.239 135.079C758.372 140.132 766.37 145.288 774.199 150.556C781.972 155.779 789.575 161.148 796.998 166.676C804.33 172.226 811.471 177.968 818.397 183.924C825.222 189.971 831.821 196.243 838.172 202.763C844.422 209.407 850.412 216.289 856.143 223.418C861.76 230.66 867.108 238.128 872.173 245.81C877.136 253.572 881.829 261.513 886.24 269.613C890.56 277.758 894.61 286.015 898.4 294.374C902.112 302.711 905.575 311.137 908.801 319.609C911.982 328.036 914.938 336.496 917.69 345.002C920.443 353.418 923.004 361.867 925.395 370.339C927.82 378.72 930.099 387.147 932.243 395.596C934.465 403.967 936.563 412.393 938.56 420.854C940.669 429.258 942.688 437.73 944.618 446.269C946.682 454.752 948.656 463.326 950.562 471.989C952.593 480.619 954.545 489.35 956.406 498.195C958.38 507.016 960.253 515.95 962.001 525.02C963.84 534.067 965.532 543.25 967.055 552.568C968.623 561.874 969.988 571.328 971.127 580.939" stroke="white" stroke-opacity="0.2" stroke-width="2.5" stroke-linecap="round" stroke-dasharray="19 2"/>
<path opacity="0.36" d="M949.899 619.117C950.507 628.555 950.845 637.988 950.9 647.415C950.898 656.851 950.592 666.269 949.971 675.657C949.248 685.05 948.188 694.412 946.791 703.743C945.261 713.043 943.393 722.301 941.191 731.483C938.844 740.633 936.153 749.685 933.152 758.627C930.008 767.494 926.556 776.218 922.81 784.755C918.957 793.195 914.823 801.415 910.444 809.373C905.983 817.19 901.303 824.712 896.404 831.904C891.483 838.903 886.38 845.541 881.119 851.796C875.87 857.838 870.486 863.487 864.979 868.723C859.529 873.769 853.988 878.438 848.379 882.741C842.819 886.956 837.198 890.885 831.522 894.574C825.923 898.323 820.272 901.98 814.554 905.621C808.934 909.527 803.248 913.588 797.492 917.882C791.819 922.679 786.066 927.877 780.229 933.545C774.455 939.872 768.591 946.77 762.625 954.239C756.711 962.365 750.698 971.029 744.566 980.16C738.499 989.736 732.315 999.564 726.035 1009.49C719.811 1019.43 713.49 1029.1 707.081 1038.33C700.751 1047.01 694.356 1054.85 687.875 1061.66C681.5 1067.46 675.052 1071.98 668.549 1075.15C662.124 1077.17 655.631 1077.87 649.074 1077.34C642.564 1076 635.947 1073.8 629.23 1071.01C622.503 1068.2 615.64 1065.38 608.599 1062.89C601.495 1061.3 594.201 1060.62 586.705 1061.07C579.097 1063.04 571.284 1066.37 563.244 1071.08C555.119 1077.21 546.807 1084.42 538.324 1092.42C529.796 1100.99 521.153 1109.6 512.421 1117.8C503.717 1125.32 494.985 1131.6 486.247 1136.26C477.608 1139.23 469 1140.15 460.427 1138.93C451.948 1135.91 443.5 1131.05 435.063 1124.63C426.667 1117.35 418.241 1109.42 409.744 1101.35C401.207 1093.95 392.649 1087.49 384.035 1082.35C375.329 1078.99 366.556 1077.33 357.704 1077.4C348.746 1079.25 339.743 1082.45 330.705 1086.64C321.617 1091.67 312.533 1096.83 303.502 1101.67C294.477 1106 285.544 1109.18 276.707 1110.9C267.924 1111.15 259.258 1109.58 250.715 1106.14C242.219 1101.11 233.81 1094.42 225.483 1086.35C217.157 1077.29 208.865 1067.46 200.576 1057.19C192.23 1046.94 183.847 1036.93 175.411 1027.45C166.866 1018.84 158.232 1011.17 149.514 1004.56C140.654 999.186 131.719 994.908 122.714 991.632C113.6 989.423 104.433 987.934 95.2576 986.964C86.0167 986.533 76.8057 986.171 67.647 985.688C58.5055 985.105 49.4734 984.008 40.583 982.23C31.7934 979.893 23.1927 976.652 14.8159 972.486C6.60943 967.539 -1.32607 961.636 -8.94883 954.836C-16.3602 947.326 -23.4092 939.035 -30.07 930.099C-36.4757 920.67 -42.4594 910.792 -47.9953 900.601C-53.2258 890.213 -57.9859 879.706 -62.2585 869.171C-66.1966 858.712 -69.6339 848.385 -72.5505 838.235C-75.1539 828.329 -77.2412 818.68 -78.8251 809.309C-80.1221 800.249 -80.9496 791.465 -81.3074 782.958C-81.4684 774.756 -81.2248 766.781 -80.6089 759.008C-79.9161 751.467 -78.9379 744.066 -77.7278 736.758C-76.5727 729.617 -75.2944 722.494 -73.9366 715.364C-72.8106 708.334 -71.7138 701.223 -70.7137 694.027C-70.0992 686.853 -69.6687 679.545 -69.4774 672.075C-69.783 664.599 -70.4058 656.946 -71.3558 649.093C-72.8809 641.217 -74.755 633.129 -76.9908 624.85C-79.7664 616.527 -82.8687 607.994 -86.2657 599.285C-90.1118 590.526 -94.1619 581.587 -98.3492 572.481C-102.806 563.347 -107.265 554.056 -111.636 544.611C-116.052 535.175 -120.162 525.712 -123.888 516.261C-127.411 506.821 -130.405 497.401 -132.801 488.005C-134.815 478.654 -136.12 469.345 -136.707 460.112C-136.764 450.921 -136.047 441.81 -134.555 432.79C-132.502 423.837 -129.676 414.986 -126.1 406.258C-122.008 397.605 -117.223 389.073 -111.813 380.69C-105.98 372.4 -99.6015 364.256 -92.7581 356.274C-85.6259 348.377 -78.1426 340.659 -70.3539 333.128C-62.4572 325.683 -54.3679 318.419 -46.1546 311.354C-37.991 304.365 -29.8042 297.558 -21.6294 290.955C-13.6381 284.396 -5.7256 278.026 2.05306 271.817C9.57072 265.626 16.9208 259.595 24.0827 253.689C30.9405 247.764 37.6003 241.942 44.0733 236.221C50.2236 230.413 56.1886 224.685 61.9931 218.992C67.499 213.192 72.867 207.428 78.1318 201.693C83.1328 195.828 88.0763 189.983 92.9608 184.18C97.6598 178.264 102.355 172.405 107.069 166.626C111.651 160.771 116.295 155.032 121.021 149.423C125.679 143.821 130.451 138.396 135.357 133.181C140.227 128.01 145.264 123.075 150.49 118.377C155.7 113.756 161.12 109.409 166.742 105.287C172.394 101.224 178.259 97.3888 184.348 93.7809C190.469 90.1864 196.829 86.7753 203.404 83.5464C210.037 80.287 216.898 77.1767 223.965 74.2367C231.079 71.2543 238.409 68.4315 245.933 65.7783C253.514 63.1172 261.276 60.6588 269.205 58.4137C277.178 56.2051 285.316 54.2548 293.597 52.5615C301.908 50.9265 310.362 49.5599 318.947 48.4721C327.54 47.43 336.266 46.6218 345.103 46.0461C353.963 45.4604 362.925 45.0616 371.99 44.8383C381.059 44.5362 390.232 44.3984 399.487 44.3897C408.758 44.3142 418.109 44.4016 427.541 44.6632C436.974 44.9024 446.37 45.3766 455.719 46.0967C465.065 46.8505 474.36 47.8951 483.603 49.2418C492.843 50.6561 502.03 52.3724 511.156 54.3788C520.279 56.4303 529.364 58.7395 538.379 61.2706C547.405 63.8136 556.376 66.5342 565.291 69.421C574.22 72.2747 583.106 75.2728 591.928 78.4139C600.763 81.5107 609.544 84.7625 618.258 88.1799C626.985 91.5867 635.655 95.1936 644.256 98.9998C652.856 102.829 661.386 106.891 669.835 111.174C678.28 115.513 686.646 120.063 694.931 124.833C703.192 129.614 711.363 134.581 719.435 139.701C727.475 144.797 735.416 150.022 743.239 155.353C751.021 160.602 758.673 165.946 766.185 171.361C773.646 176.682 780.956 182.084 788.092 187.556C795.163 192.967 802.059 198.481 808.745 204.118C815.353 209.728 821.737 215.494 827.897 221.428C833.963 227.413 839.78 233.597 845.348 239.982C850.808 246.463 856.007 253.176 860.932 260.111C865.749 267.152 870.293 274.426 874.564 281.909C878.729 289.488 882.621 297.266 886.232 305.22C889.771 313.248 893.053 321.419 896.089 329.723C899.057 338.056 901.791 346.501 904.296 355.01C906.789 363.531 909.064 372.095 911.156 380.716C913.26 389.304 915.193 397.926 916.955 406.585C918.788 415.179 920.483 423.811 922.053 432.457C923.716 441.053 925.265 449.676 926.722 458.327C928.295 466.929 929.785 475.583 931.195 484.265C932.73 492.921 934.207 501.619 935.589 510.39C937.109 519.125 938.545 527.933 939.886 536.815C941.352 545.693 942.701 554.643 943.931 563.688C945.241 572.726 946.409 581.858 947.403 591.092C948.452 600.33 949.292 609.657 949.9 619.106" stroke="white" stroke-opacity="0.2" stroke-width="2.5" stroke-linecap="round" stroke-dasharray="13 16"/>
<path opacity="0.88" d="M926.539 651.653C926.647 660.833 926.501 669.948 926.102 679C925.636 688.032 924.883 696.997 923.836 705.858C922.688 714.708 921.235 723.442 919.466 732.07C917.566 740.649 915.362 749.101 912.825 757.4C910.17 765.64 907.196 773.694 903.916 781.553C900.522 789.319 896.835 796.869 892.871 804.17C888.808 811.346 884.493 818.254 879.941 824.861C875.312 831.345 870.473 837.498 865.446 843.322C860.389 849.006 855.157 854.351 849.782 859.361C844.397 864.268 838.893 868.843 833.285 873.133C827.696 877.368 822.008 881.376 816.231 885.18C810.502 889.058 804.695 892.824 798.802 896.558C792.96 900.524 787.04 904.573 781.045 908.783C775.083 913.383 769.041 918.269 762.902 923.507C756.802 929.272 750.594 935.468 744.277 942.116C738.005 949.337 731.623 957.012 725.123 965.104C718.674 973.633 712.12 982.469 705.488 991.488C698.906 1000.66 692.263 1009.77 685.566 1018.67C678.959 1027.28 672.335 1035.37 665.692 1042.75C659.191 1049.41 652.691 1055.11 646.218 1059.7C636.756 1064.5 618.12 1066.78 608.894 1064.67C602.801 1062.5 596.632 1059.82 590.368 1056.89C584.073 1054.21 577.608 1051.82 570.942 1049.98C564.157 1049.14 557.121 1049.28 549.827 1050.54C542.356 1053.2 534.618 1057.07 526.607 1062.08C518.459 1068.26 510.094 1075.23 501.544 1082.69C492.957 1090.47 484.267 1098.06 475.533 1105.07C466.889 1111.31 458.285 1116.26 449.764 1119.63C441.42 1121.42 433.197 1121.31 425.111 1119.28C417.204 1115.64 409.401 1110.34 401.656 1103.69C393.999 1096.3 386.32 1088.33 378.564 1080.23C370.737 1072.74 362.824 1066.07 354.784 1060.57C346.558 1056.65 338.162 1054.26 329.596 1053.41C320.832 1054.22 311.931 1056.29 302.916 1059.34C293.794 1063.28 284.643 1067.47 275.519 1071.53C266.405 1075.31 257.396 1078.2 248.528 1079.9C239.778 1080.41 231.205 1079.33 222.83 1076.57C214.595 1072.33 206.537 1066.51 198.637 1059.25C190.818 1050.92 183.091 1041.62 175.443 1031.65C167.771 1021.41 160.097 1011.08 152.387 1000.96C144.571 991.359 136.666 982.416 128.668 974.257C120.513 967.137 112.235 960.956 103.878 955.742C95.362 951.578 86.7833 948.235 78.1699 945.57C69.4804 943.646 60.8057 942.075 52.1995 940.695C43.613 939.532 35.1611 938.192 26.8945 936.534C18.7493 934.617 10.8436 932.115 3.23552 928.921C-4.17192 925.183 -11.235 920.645 -17.9199 915.311C-24.3376 909.35 -30.3351 902.621 -35.9078 895.181C-41.1566 887.211 -45.9615 878.657 -50.2786 869.628C-54.2831 860.26 -57.797 850.587 -60.8199 840.699C-63.5442 830.688 -65.7723 820.61 -67.5245 810.543C-68.9894 800.544 -70.0028 790.667 -70.569 780.945C-70.9059 771.397 -70.8481 762.067 -70.3957 752.953C-69.8215 744.059 -68.9212 735.384 -67.7284 726.926C-66.5259 718.674 -65.1053 710.595 -63.5213 702.672C-62.0593 694.916 -60.5072 687.261 -58.9392 679.665C-57.6224 672.176 -56.3754 664.702 -55.2292 657.215C-54.4634 649.774 -53.894 642.265 -53.5531 634.672C-53.6782 627.08 -54.0839 619.365 -54.7928 611.523C-56.0196 603.642 -57.5455 595.601 -59.3831 587.41C-61.7149 579.171 -64.322 570.764 -67.1611 562.204C-70.4022 553.586 -73.7955 544.813 -77.2973 535.902C-81.0345 526.964 -84.7445 517.892 -88.3616 508.707C-92.0235 499.516 -95.3927 490.348 -98.4035 481.223C-101.246 472.118 -103.607 463.069 -105.422 454.108C-106.891 445.199 -107.735 436.387 -107.912 427.699C-107.644 419.086 -106.654 410.616 -104.954 402.286C-102.755 394.06 -99.8468 385.987 -96.2561 378.096C-92.1877 370.296 -87.4729 362.698 -82.1538 355.273C-76.4506 347.961 -70.2143 340.849 -63.5122 333.928C-56.538 327.108 -49.1889 320.479 -41.5222 314.047C-33.7179 307.7 -25.6969 301.537 -17.5164 295.563C-9.34126 289.634 -1.08247 283.863 7.19992 278.276C15.3703 272.676 23.4997 267.231 31.5585 261.902C39.4058 256.536 47.1516 251.261 54.7385 246.08C62.0981 240.805 69.2915 235.589 76.3216 230.411C83.0821 225.11 89.6917 219.837 96.1418 214.567C102.336 209.154 108.405 203.749 114.348 198.351C120.056 192.824 125.683 187.309 131.238 181.832C136.589 176.251 141.92 170.736 147.219 165.308C152.364 159.838 157.539 154.498 162.74 149.319C167.827 144.15 172.979 139.193 178.21 134.438C183.374 129.767 188.636 125.322 194.026 121.143C199.371 117.049 204.87 113.201 210.508 109.608C216.139 106.082 221.946 102.792 227.918 99.7382C233.902 96.6855 240.089 93.8385 246.447 91.1709C252.842 88.4849 259.433 85.9584 266.198 83.6001C273.013 81.2023 280.014 78.9627 287.199 76.8926C294.409 74.8028 301.801 72.9048 309.352 71.2073C316.935 69.5137 324.662 68.0529 332.543 66.8261C340.442 65.6355 348.471 64.6875 356.63 63.9934C364.795 63.3341 373.093 62.9063 381.499 62.7072C389.916 62.5206 398.434 62.5278 407.065 62.7414C415.699 62.9214 424.436 63.2951 433.265 63.8502C442.099 64.3604 451.022 65.0744 460.013 65.9893C469.017 66.8832 477.983 68.011 486.911 69.3616C495.836 70.7345 504.721 72.3526 513.552 74.2257C522.368 76.1423 531.144 78.2929 539.868 80.6984C548.579 83.1138 557.24 85.7619 565.845 88.5964C574.449 91.4309 583.01 94.442 591.507 97.6158C600.006 100.767 608.464 104.073 616.846 107.54C625.233 110.973 633.563 114.593 641.828 118.376C650.08 122.18 658.253 126.167 666.355 130.374C674.441 134.612 682.444 139.08 690.343 143.75C698.225 148.476 706.013 153.418 713.688 158.539C721.349 163.693 728.887 169.014 736.306 174.48C743.693 179.931 750.954 185.48 758.09 191.129C765.179 196.703 772.123 202.341 778.914 208.028C785.659 213.619 792.241 219.247 798.646 224.934C804.984 230.511 811.131 236.167 817.078 241.88C822.94 247.548 828.574 253.314 833.99 259.202C839.303 265.089 844.371 271.129 849.181 277.332C853.895 283.58 858.347 290.025 862.515 296.663C866.593 303.392 870.396 310.328 873.916 317.457C877.355 324.691 880.52 332.119 883.426 339.732C886.252 347.438 888.821 355.307 891.157 363.319C893.437 371.415 895.5 379.622 897.333 387.949C899.173 396.311 900.81 404.763 902.267 413.284C903.758 421.821 905.082 430.417 906.264 439.054C907.505 447.686 908.626 456.36 909.632 465.055C910.741 473.74 911.756 482.448 912.667 491.177C913.704 499.898 914.67 508.634 915.553 517.406C916.575 526.16 917.524 534.95 918.39 543.765C919.394 552.574 920.312 561.429 921.136 570.318C922.085 579.2 922.915 588.135 923.635 597.126C924.426 606.103 925.084 615.143 925.566 624.231C926.095 633.312 926.434 642.451 926.541 651.642" stroke="white" stroke-opacity="0.2" stroke-width="2.5" stroke-linecap="round" stroke-dasharray="21 26"/>
<path opacity="0.93" d="M902.025 677.362C901.668 686.178 901.091 694.876 900.274 703.439C899.404 711.981 898.261 720.382 896.86 728.624C895.373 736.838 893.594 744.885 891.541 752.735C889.368 760.552 886.9 768.156 884.151 775.538C881.275 782.863 878.12 789.955 874.689 796.791C871.146 803.55 867.332 810.032 863.267 816.251C859.106 822.361 854.708 828.2 850.099 833.737C845.402 839.191 840.507 844.345 835.433 849.215C830.312 854.032 825.032 858.579 819.59 862.879C814.128 867.165 808.529 871.254 802.798 875.182C797.066 879.179 791.213 883.085 785.253 886.95C779.292 891.009 773.222 895.106 767.041 899.309C760.86 903.833 754.575 908.556 748.178 913.523C741.774 918.912 735.266 924.627 728.628 930.685C722.011 937.205 715.273 944.082 708.416 951.304C701.59 958.933 694.661 966.819 687.647 974.918C680.682 983.198 673.662 991.526 666.599 999.777C659.637 1007.91 652.664 1015.72 645.706 1023.06C638.901 1029.92 632.153 1036.09 625.464 1041.4C615.787 1047.73 597.168 1053.96 588.213 1053.86C579.531 1051.91 562.228 1044.66 553.383 1040.54C547.375 1038.31 541.158 1036.55 534.696 1035.45C528.057 1035.41 521.119 1036.34 513.869 1038.31C506.399 1041.52 498.623 1045.74 490.568 1050.88C482.345 1056.89 473.911 1063.44 465.31 1070.23C456.703 1077.12 448.025 1083.63 439.369 1089.44C430.865 1094.4 422.462 1098.08 414.225 1100.25C406.249 1100.96 398.468 1099.94 390.884 1097.17C383.561 1093 376.382 1087.37 369.315 1080.54C362.359 1073.09 355.39 1065.14 348.342 1057.05C341.183 1049.52 333.908 1042.7 326.44 1036.89C318.722 1032.49 310.754 1029.43 302.552 1027.75C294.068 1027.58 285.364 1028.58 276.492 1030.53C267.459 1033.38 258.349 1036.59 249.229 1039.8C240.111 1042.93 231.097 1045.41 222.25 1046.96C213.535 1047.57 205.062 1046.83 196.826 1044.63C188.815 1041.1 181.045 1036.1 173.523 1029.7C166.152 1022.2 158.973 1013.62 151.932 1004.21C144.956 994.298 138.041 984.047 131.133 973.694C124.172 963.573 117.149 953.795 110.056 944.543C102.804 936.054 95.4619 928.328 87.9973 921.416C80.3845 915.464 72.6847 910.321 64.9228 905.911C57.0588 902.332 49.1885 899.301 41.3731 896.67C33.5431 894.506 25.8417 892.457 18.3147 890.393C10.8929 888.381 3.74144 886.075 -3.11261 883.386C-9.76685 880.412 -16.0476 876.885 -21.9208 872.744C-27.5181 868.148 -32.6645 862.887 -37.3308 856.99C-41.6819 850.611 -45.5478 843.631 -48.9089 836.134C-51.9333 828.226 -54.4708 819.902 -56.513 811.241C-58.2443 802.316 -59.5041 793.188 -60.2892 783.903C-60.8396 774.524 -60.9481 765.108 -60.6469 755.709C-60.1792 746.339 -59.3489 737.056 -58.1842 727.891C-56.9465 718.83 -55.4491 709.918 -53.714 701.152C-52.0158 692.529 -50.1707 684.046 -48.2031 675.711C-46.3926 667.486 -44.5443 659.371 -42.725 651.353C-41.1607 643.416 -39.6859 635.532 -38.3453 627.693C-37.3738 619.868 -36.586 612.044 -36.0223 604.193C-35.9036 596.33 -36.0384 588.411 -36.4468 580.42C-37.3145 572.37 -38.465 564.236 -39.8741 556.009C-41.7294 547.715 -43.8172 539.31 -46.091 530.792C-48.7241 522.232 -51.4858 513.558 -54.3133 504.804C-57.361 495.998 -60.3615 487.121 -63.2723 478.192C-66.2054 469.258 -68.8849 460.381 -71.2393 451.608C-73.4493 442.86 -75.21 434.227 -76.501 425.724C-77.4941 417.285 -77.9085 409.007 -77.7462 400.9C-77.177 392.889 -75.9755 385.059 -74.1235 377.437C-71.8313 369.916 -68.9018 362.612 -65.3367 355.536C-61.3445 348.571 -56.7593 341.814 -51.6113 335.307C-46.0896 328.889 -40.0697 322.698 -33.6072 316.723C-26.8619 310.833 -19.7425 305.159 -12.3026 299.679C-4.70004 294.251 3.14325 289.015 11.1758 283.939C19.2619 278.884 27.4503 273.962 35.7169 269.179C43.9319 264.365 52.1534 259.643 60.3589 255.011C68.4209 250.284 76.4246 245.626 84.3315 240.997C92.0634 236.257 99.6784 231.531 107.167 226.805C114.441 221.937 121.59 217.058 128.615 212.169C135.414 207.137 142.1 202.095 148.668 197.068C155.02 191.909 161.285 186.782 167.463 181.696C173.449 176.53 179.373 171.456 185.243 166.487C190.948 161.488 196.635 156.647 202.302 151.985C207.837 147.358 213.389 142.951 218.96 138.765C224.437 134.654 229.97 130.805 235.551 127.205C243.883 122.056 260.949 113.103 269.761 109.243C278.696 105.599 297.333 99.2058 307.044 96.4114C313.613 94.5347 320.324 92.8209 327.202 91.263C334.108 89.6757 341.168 88.2534 348.378 87.0182C355.603 85.7628 362.974 84.7168 370.467 83.8873C377.981 83.0729 385.625 82.4881 393.376 82.14C401.145 81.8181 409.009 81.7309 416.99 81.8937C424.971 82.0564 433.058 82.4558 441.241 83.09C449.426 83.7132 457.698 84.558 466.056 85.6245C474.427 86.6818 482.862 87.9569 491.384 89.4537C499.906 90.9505 508.388 92.6693 516.835 94.5881C525.291 96.52 533.696 98.672 542.052 101.033C550.395 103.403 558.703 105.973 566.962 108.752C575.212 111.518 583.405 114.469 591.556 117.596C599.7 120.698 607.792 123.963 615.823 127.377C623.845 130.779 631.817 134.332 639.715 138.043C647.602 141.753 655.421 145.645 663.165 149.708C670.88 153.799 678.514 158.094 686.043 162.588C693.549 167.146 700.962 171.906 708.244 176.883C715.506 181.913 722.637 187.161 729.657 192.584C736.624 198.043 743.471 203.664 750.179 209.421C756.845 215.159 763.375 221.01 769.755 226.937C776.102 232.79 782.291 238.695 788.324 244.641C794.296 250.473 800.115 256.334 805.748 262.209C811.321 267.969 816.706 273.754 821.882 279.558C826.991 285.282 831.885 291.059 836.561 296.901C841.142 302.702 845.487 308.599 849.585 314.601C853.59 320.609 857.339 326.766 860.834 333.061C864.226 339.419 867.359 345.947 870.234 352.636C873.012 359.422 875.54 366.382 877.812 373.502C880.016 380.736 881.988 388.123 883.714 395.661C885.399 403.307 886.876 411.087 888.148 418.991C889.406 426.973 890.485 435.06 891.384 443.253C892.32 451.499 893.116 459.822 893.761 468.222C894.469 476.655 895.064 485.138 895.548 493.669C896.141 502.232 896.637 510.822 897.048 519.444C897.581 528.087 898.039 536.763 898.426 545.449C898.936 554.157 899.375 562.875 899.753 571.616C900.244 580.367 900.662 589.138 900.998 597.919C901.434 606.716 901.776 615.532 901.992 624.348C902.296 633.179 902.452 642.007 902.457 650.843C902.508 659.687 902.365 668.519 902.027 677.351" stroke="white" stroke-opacity="0.2" stroke-width="2.5" stroke-linecap="round" stroke-dasharray="13 18"/>
<path opacity="0.61" d="M877.26 696.475C876.504 704.855 875.538 713.045 874.368 721.071C873.157 729.075 871.701 736.892 870.004 744.501C868.233 752.081 866.203 759.436 863.925 766.569C861.542 773.654 858.902 780.504 855.995 787.115C852.977 793.653 849.706 799.945 846.185 805.969C842.552 811.93 838.667 817.634 834.555 823.075C830.331 828.454 825.89 833.573 821.242 838.444C816.52 843.286 811.585 847.904 806.459 852.301C801.262 856.704 795.894 860.951 790.355 865.04C784.761 869.21 779.006 873.282 773.108 877.32C767.164 881.498 761.062 885.708 754.819 889.976C748.539 894.492 742.122 899.148 735.561 903.967C728.967 909.114 722.228 914.482 715.358 920.108C708.471 926.09 701.451 932.342 694.299 938.852C687.163 945.679 679.904 952.732 672.557 959.961C665.257 967.375 657.885 974.854 650.474 982.299C643.15 989.719 635.827 996.942 628.52 1003.86C621.369 1010.46 614.281 1016.56 607.286 1022.02C600.496 1026.93 593.838 1031.04 587.313 1034.3C577.95 1037.65 560.231 1038.78 551.785 1036.85C543.593 1033.76 527.124 1026.05 518.564 1022.52C509.61 1020.38 489.958 1021.06 479.138 1024.39C471.564 1027.97 463.696 1032.33 455.537 1037.38C447.236 1043.07 438.74 1049.04 430.125 1055.02C421.541 1060.92 412.964 1066.32 404.447 1070.92C396.152 1074.65 388.039 1077.14 380.152 1078.19C372.584 1077.92 365.278 1076.08 358.24 1072.67C351.478 1068.07 344.92 1062.18 338.503 1055.23C332.214 1047.78 325.907 1039.88 319.526 1031.85C313.026 1024.32 306.356 1017.39 299.477 1011.35C292.291 1006.53 284.814 1002.88 277.033 1000.45C268.913 999.381 260.535 999.391 251.92 1000.3C243.091 1002.09 234.141 1004.29 225.157 1006.64C216.134 1009.05 207.204 1011.02 198.441 1012.3C189.825 1012.87 181.464 1012.32 173.4 1010.54C165.571 1007.63 158.074 1003.39 150.879 997.835C143.92 991.201 137.234 983.474 130.775 974.803C124.444 965.501 118.266 955.656 112.19 945.487C106.112 935.272 100.049 925.141 93.9617 915.26C87.7666 905.875 81.5027 897.019 75.1547 888.803C68.6529 881.375 62.0596 874.667 55.402 868.663C48.6072 863.472 41.8047 858.895 35.0102 854.865C28.1641 851.437 21.409 848.356 14.8118 845.487C5.10214 841.616 -12.7127 833.424 -20.5907 828.543C-27.6774 822.876 -39.0613 808.57 -43.2932 799.899C-45.6308 793.585 -47.4691 786.834 -48.8052 779.681C-49.8623 772.235 -50.4382 764.476 -50.5705 756.463C-50.4558 748.242 -49.9432 739.862 -49.0322 731.369C-47.9826 722.781 -46.5969 714.146 -44.9186 705.5C-43.1911 696.843 -41.2281 688.219 -39.0837 679.661C-36.9885 671.115 -34.7858 662.653 -32.5001 654.28C-30.3838 645.937 -28.264 637.675 -26.1845 629.485C-24.3648 621.313 -22.6485 613.187 -21.0714 605.108C-19.8527 597.025 -18.8092 588.946 -17.9788 580.886C-17.5539 572.775 -17.3673 564.641 -17.4189 556.485C-17.8953 548.262 -18.6182 540.003 -19.5689 531.678C-20.9114 523.294 -22.4597 514.849 -24.159 506.356C-26.1764 497.787 -28.3009 489.181 -30.475 480.539C-32.8246 471.856 -35.1469 463.156 -37.3736 454.444C-39.6223 445.726 -41.648 437.143 -43.3798 428.689C-44.9825 420.278 -46.2062 412.026 -47.012 403.968C-47.5519 395.962 -47.5863 388.17 -47.1178 380.603C-46.2873 373.122 -44.8965 365.869 -42.9396 358.868C-40.5794 351.974 -37.6505 345.322 -34.1472 338.935C-30.2599 332.64 -25.8228 326.616 -20.8828 320.816C-15.5861 315.126 -9.822 309.664 -3.62874 304.443C2.8414 299.278 9.69114 294.319 16.852 289.563C24.202 284.84 31.8052 280.271 39.626 275.859C47.5425 271.435 55.6026 267.138 63.7784 262.938C71.9591 258.67 80.1898 254.483 88.4429 250.348C96.6293 246.105 104.794 241.902 112.924 237.703C120.931 233.382 128.86 229.053 136.72 224.719C144.408 220.229 152.004 215.739 159.507 211.251C166.814 206.61 174.023 201.993 181.125 197.385C188.043 192.675 194.865 188.023 201.579 183.438C208.12 178.8 214.58 174.259 220.959 169.86C227.163 165.466 233.314 161.245 239.406 157.218C245.36 153.24 251.274 149.473 257.175 145.957C265.843 140.912 283.095 132.195 291.755 128.494C300.403 125.08 318.055 119.29 327.134 116.838C336.33 114.483 355.385 110.386 365.254 108.657C371.903 107.49 378.689 106.472 385.593 105.645C392.517 104.776 399.573 104.089 406.731 103.601C413.911 103.119 421.19 102.857 428.563 102.826C435.954 102.823 443.428 103.049 450.99 103.539C458.557 104.054 466.207 104.809 473.935 105.815C481.655 106.854 489.455 108.144 497.328 109.66C505.193 111.209 513.128 112.996 521.126 115.006C529.119 117.038 537.086 119.273 545.004 121.716C552.924 124.148 560.799 126.767 568.629 129.573C576.465 132.356 584.261 135.304 591.994 138.422C599.734 141.507 607.427 144.744 615.063 148.117C622.696 151.455 630.282 154.944 637.789 158.565C645.302 162.164 652.744 165.909 660.115 169.811C667.466 173.696 674.737 177.771 681.895 182.027C689.045 186.316 696.077 190.809 703.003 195.498C709.89 200.258 716.647 205.218 723.272 210.391C729.856 215.635 736.3 221.078 742.596 226.706C748.846 232.38 754.954 238.206 760.9 244.179C766.816 250.133 772.566 256.198 778.158 262.341C783.705 268.427 789.103 274.559 794.32 280.716C799.506 286.762 804.514 292.823 809.35 298.878C814.135 304.805 818.737 310.722 823.142 316.639C827.494 322.438 831.644 328.259 835.574 334.073C839.45 339.828 843.087 345.607 846.501 351.448C849.843 357.249 852.943 363.143 855.8 369.129C858.586 375.122 861.132 381.243 863.417 387.486C865.642 393.785 867.623 400.234 869.361 406.822C871.048 413.479 872.499 420.3 873.729 427.265C874.938 434.318 875.927 441.515 876.732 448.854C877.528 456.272 878.154 463.823 878.606 471.472C879.091 479.221 879.438 487.065 879.649 494.992C879.923 502.993 880.087 511.071 880.141 519.216C880.286 527.417 880.347 535.68 880.32 543.968C880.404 552.328 880.414 560.706 880.359 569.115C880.421 577.563 880.396 586.037 880.325 594.512C880.359 603.034 880.323 611.552 880.198 620.06C880.179 628.605 880.057 637.148 879.827 645.654C879.672 654.19 879.393 662.707 878.964 671.177C878.567 679.655 878.006 688.093 877.263 696.464" stroke="white" stroke-opacity="0.2" stroke-width="2.5" stroke-linecap="round" stroke-dasharray="24 4"/>
<path opacity="0.18" d="M852.742 710.542C851.643 718.413 850.353 726.096 848.886 733.585C847.365 741.057 845.642 748.302 843.71 755.343C841.694 762.347 839.462 769.132 836.995 775.681C834.427 782.175 831.631 788.448 828.604 794.473C825.461 800.452 822.072 806.191 818.463 811.687C812.762 819.767 800.045 834.785 793.069 841.783C788.229 846.399 783.188 850.86 777.951 855.191C772.627 859.578 767.093 863.878 761.375 868.122C755.575 872.482 749.586 876.845 743.427 881.226C737.19 885.784 730.762 890.426 724.174 895.172C717.524 900.16 710.7 905.294 703.731 910.597C696.694 916.163 689.519 921.91 682.199 927.826C674.861 933.995 667.399 940.304 659.839 946.737C652.292 953.326 644.671 959.964 637.006 966.588C629.403 973.208 621.806 979.688 614.206 985.943C606.761 991.998 599.374 997.669 592.077 1002.88C584.98 1007.68 578.019 1011.86 571.207 1015.36C561.454 1019.39 543.162 1022.65 534.61 1021.93C526.467 1019.9 510.659 1013.22 502.747 1009.34C494.615 1006.02 477.067 1002.24 467.424 1002.48C460.617 1003.82 453.481 1005.94 445.998 1008.81C438.279 1012.55 430.268 1016.85 422.014 1021.61C413.645 1026.78 405.147 1032.04 396.58 1037.13C388.093 1041.99 379.674 1046.24 371.393 1049.65C363.381 1052.21 355.61 1053.58 348.128 1053.61C341.016 1052.46 334.211 1049.91 327.718 1045.97C321.525 1041.01 315.565 1034.92 309.765 1027.92C304.089 1020.51 298.431 1012.69 292.674 1004.77C286.799 997.272 280.743 990.299 274.44 984.064C267.813 978.897 260.865 974.754 253.574 971.661C245.914 969.789 237.938 968.882 229.707 968.816C221.203 969.612 212.541 970.854 203.81 972.323C195.012 973.972 186.279 975.37 177.686 976.267C169.239 976.679 161.05 976.202 153.169 974.711C145.569 972.291 138.311 968.701 131.42 963.939C124.83 958.183 118.575 951.361 112.636 943.574C106.909 935.086 101.424 925.916 96.1248 916.249C90.9086 906.347 85.7846 896.296 80.7287 886.255C75.6299 876.471 70.5141 866.977 65.3605 857.92C60.08 849.437 54.7547 841.53 49.364 834.227C43.8289 827.635 38.2683 821.672 32.7019 816.273C27.043 811.53 21.4433 807.253 15.9431 803.347C7.7805 798.27 -7.31786 789.123 -14.0145 784.537C-20.0503 779.715 -29.6256 768.328 -33.0664 761.592C-35.6082 754.068 -37.9457 736.764 -37.7849 727.089C-37.3368 720.318 -36.4818 713.292 -35.2578 706.06C-33.8993 698.657 -32.2379 691.11 -30.2909 683.437C-28.3004 675.66 -26.112 667.812 -23.7431 659.914C-21.4366 651.949 -19.0415 643.964 -16.5643 635.98C-14.2565 627.933 -11.9552 619.908 -9.69294 611.895C-7.67469 603.831 -5.76667 595.781 -3.99051 587.738C-2.52646 579.636 -1.22988 571.542 -0.12995 563.436C0.600624 555.265 1.12379 547.078 1.43201 538.862C1.37087 530.581 1.08394 522.266 0.603715 513.929C-0.206942 505.515 -1.20015 497.081 -2.34026 488.627C-3.73194 480.107 -5.22406 471.57 -6.74432 463.047C-8.44059 454.483 -10.0829 445.935 -11.6453 437.435C-13.2294 428.928 -14.6194 420.598 -15.7657 412.436C-16.7932 404.31 -17.4939 396.389 -17.8246 388.686C-17.9393 381.049 -17.6192 373.65 -16.846 366.505C-15.7597 359.456 -14.1845 352.66 -12.1131 346.133C-9.68213 339.703 -6.74407 333.544 -3.30967 327.654C0.495076 321.864 4.78863 316.328 9.54609 311.051C14.6307 305.86 20.1534 300.897 26.0861 296.176C32.2909 291.49 38.855 287.019 45.7449 282.718C52.8282 278.44 60.1942 274.318 67.7889 270.336C75.5003 266.318 83.4005 262.417 91.4421 258.594C99.5389 254.705 107.723 250.878 115.976 247.096C124.213 243.214 132.467 239.349 140.729 235.499C148.92 231.533 157.086 227.571 165.195 223.603C173.198 219.52 181.129 215.44 188.971 211.38C196.678 207.22 204.294 203.091 211.814 199.004C219.165 194.854 226.408 190.789 233.564 186.816C240.537 182.822 247.411 178.964 254.192 175.254C260.811 171.577 267.327 168.082 273.766 164.799C280.051 161.564 286.266 158.555 292.435 155.779C301.454 151.84 319.207 145.218 328.018 142.513C336.75 140.03 354.398 135.935 363.37 134.256C372.424 132.614 391.065 129.832 400.648 128.704C407.11 127.915 413.659 127.27 420.329 126.768C427.009 126.234 433.779 125.868 440.655 125.7C447.534 125.52 454.49 125.553 461.528 125.822C468.57 126.116 475.668 126.652 482.845 127.435C490.002 128.283 497.224 129.386 504.495 130.751C511.761 132.174 519.08 133.849 526.449 135.787C533.795 137.764 541.204 139.997 548.646 142.475C556.094 144.967 563.495 147.656 570.848 150.544C578.207 153.409 585.517 156.437 592.792 159.619C600.067 162.765 607.295 166.063 614.477 169.476C621.661 172.842 628.809 176.327 635.888 179.922C642.981 183.473 650.016 187.136 656.976 190.93C663.939 194.677 670.826 198.555 677.622 202.582C684.396 206.602 691.085 210.785 697.65 215.143C704.195 219.53 710.606 224.124 716.891 228.904C723.131 233.752 729.226 238.805 735.167 244.058C741.057 249.402 746.784 254.932 752.351 260.638C757.864 266.409 763.21 272.342 768.384 278.412C773.509 284.491 778.458 290.681 783.242 296.951C787.993 303.176 792.563 309.452 796.959 315.757C801.324 321.971 805.525 328.182 809.539 334.384C813.522 340.458 817.337 346.505 820.957 352.529C824.535 358.422 827.934 364.284 831.136 370.134C835.778 378.742 843.952 395.845 847.455 404.438C850.675 413.028 855.93 430.626 857.971 439.684C859.744 448.931 862.223 468.141 862.977 478.105C863.421 484.887 863.701 491.785 863.827 498.801C863.984 505.909 863.991 513.124 863.872 520.443C863.82 527.853 863.649 535.345 863.369 542.922C863.184 550.575 862.906 558.305 862.539 566.091C862.271 573.942 861.925 581.853 861.513 589.79C861.199 597.793 860.829 605.825 860.373 613.867C860.033 621.956 859.604 630.065 859.099 638.152C858.685 646.289 858.174 654.397 857.563 662.486C857.016 670.595 856.35 678.667 855.551 686.676C854.759 694.699 853.834 702.658 852.745 710.532" stroke="white" stroke-opacity="0.2" stroke-width="2.5" stroke-linecap="round" stroke-dasharray="8 12"/>
<path opacity="0.46" d="M828.356 721.853C826.952 729.222 825.39 736.401 823.655 743.395C821.867 750.37 819.899 757.147 817.742 763.722C815.514 770.259 813.072 776.596 810.422 782.713C806.196 791.735 796.463 808.695 790.961 816.646C785.055 824.389 771.921 839.026 764.708 846.01C759.713 850.662 754.499 855.221 749.059 859.709C743.52 864.269 737.761 868.807 731.792 873.329C725.729 877.972 719.452 882.644 712.984 887.378C706.414 892.255 699.671 897.213 692.736 902.268C685.738 907.492 678.559 912.818 671.234 918.247C663.86 923.838 656.353 929.499 648.732 935.24C641.102 941.072 633.396 946.914 625.616 952.727C617.89 958.525 610.147 964.208 602.409 969.713C594.775 975.064 587.215 980.117 579.717 984.808C572.403 989.195 565.214 993.111 558.178 996.481C548.053 1000.57 529.102 1004.79 520.284 1004.87C511.976 1003.7 496.22 998.399 488.564 994.773C480.902 991.194 464.851 985.161 456.165 983.416C450.064 983.14 443.654 983.471 436.899 984.446C429.877 986.246 422.527 988.673 414.863 991.692C406.986 995.354 398.862 999.394 390.537 1003.68C382.166 1008.2 373.713 1012.61 365.257 1016.73C356.948 1020.52 348.767 1023.64 340.802 1025.91C333.14 1027.36 325.781 1027.69 318.76 1026.81C312.135 1024.89 305.849 1021.72 299.901 1017.34C294.272 1012.09 288.891 1005.88 283.681 998.873C278.606 991.534 273.539 983.849 268.393 976.05C263.117 968.637 257.657 961.66 251.945 955.301C245.901 949.876 239.505 945.308 232.773 941.651C225.644 939.073 218.171 937.365 210.409 936.406C202.344 936.272 194.107 936.604 185.754 937.217C177.29 938.103 168.864 938.882 160.559 939.333C152.367 939.477 144.431 938.958 136.788 937.645C129.429 935.596 122.436 932.551 115.849 928.501C109.581 923.584 103.72 917.662 98.234 910.82C93.0235 903.263 88.1322 894.969 83.5345 886.074C79.0877 876.803 74.8437 867.209 70.744 857.452C66.6827 847.721 62.6827 838.084 58.7262 828.656C54.69 819.608 50.6522 810.956 46.5893 802.763C42.3978 795.148 38.1935 788.057 33.9686 781.512C27.4828 772.847 14.6891 758.625 8.57722 752.731C2.7033 747.562 -7.58149 737.919 -11.8019 733.058C-17.778 722.357 -21.7846 703.209 -21.4011 695.608C-20.3607 687.432 -16.3692 669.547 -13.5718 659.963C-11.5877 653.336 -9.39191 646.559 -7.03841 639.648C-4.7306 632.6 -2.32693 625.455 0.147451 618.216C2.47586 610.85 4.80255 603.425 7.11703 595.934C9.19194 588.343 11.1939 580.689 13.09 572.997C14.7108 565.203 16.1796 557.364 17.4962 549.482C18.4875 541.504 19.3017 533.485 19.9386 525.425C20.2463 517.279 20.3769 509.092 20.3475 500.883C20.0246 492.589 19.563 484.28 18.9837 475.964C18.1677 467.573 17.2976 459.198 16.3841 450.843C15.3436 442.441 14.3444 434.09 13.4142 425.813C12.4667 417.518 11.6919 409.406 11.1283 401.505C10.6599 393.638 10.4741 385.984 10.5946 378.575C10.9241 371.219 11.6129 364.127 12.7007 357.291C14.0569 350.541 15.8333 344.055 18.0576 337.853C20.5899 331.729 23.5702 325.891 26.9957 320.312C30.7465 314.829 34.9425 309.607 39.5624 304.636C44.4943 299.733 49.8224 295.06 55.536 290.612C61.5231 286.206 67.8467 281.996 74.4935 277.952C81.3464 273.937 88.4839 270.062 95.8533 266.309C103.384 262.543 111.103 258.883 118.995 255.311C126.968 251.684 135.073 248.118 143.271 244.597C151.491 241.014 159.761 237.46 168.069 233.932C176.344 230.333 184.625 226.747 192.88 223.2C201.045 219.572 209.174 215.978 217.247 212.436C225.186 208.833 233.062 205.303 240.836 201.855C248.464 198.377 255.993 195.008 263.414 191.767C270.675 188.538 277.83 185.464 284.866 182.55C291.747 179.699 298.515 177.023 305.17 174.557C314.887 171.056 333.703 165.208 342.853 162.856C351.816 160.748 369.546 157.457 378.376 156.202C387.211 154.996 405.098 153.074 414.22 152.299C423.435 151.498 442.317 150.302 451.975 149.965C458.452 149.742 465.003 149.679 471.62 149.796C478.237 149.913 484.912 150.232 491.637 150.774C498.357 151.362 505.119 152.194 511.905 153.287C518.683 154.438 525.48 155.86 532.319 157.561C539.124 159.323 545.948 161.356 552.804 163.665C559.64 166.026 566.5 168.65 573.381 171.509C580.25 174.4 587.074 177.479 593.832 180.738C600.602 183.965 607.324 187.355 613.988 190.867C620.683 194.331 627.313 197.904 633.904 201.582C640.513 205.182 647.071 208.885 653.573 212.675C660.092 216.386 666.551 220.196 672.929 224.096C679.311 227.95 685.611 231.93 691.822 236.021C698.012 240.104 704.101 244.331 710.06 248.714C715.986 253.121 721.771 257.716 727.418 262.49C733.006 267.325 738.434 272.366 743.711 277.592C748.895 282.904 753.927 288.4 758.771 294.079C763.542 299.828 768.144 305.743 772.552 311.791C776.898 317.876 781.07 324.077 785.063 330.369C788.993 336.637 792.758 342.965 796.353 349.326C799.904 355.612 803.284 361.906 806.496 368.198C809.68 374.372 812.693 380.519 815.529 386.625C819.686 395.574 827.071 413.057 830.297 421.627C833.316 430.012 838.381 446.677 840.405 455.02C842.226 463.36 844.872 480.36 845.724 489.077C846.396 497.957 846.919 516.314 846.812 525.808C846.736 532.248 846.521 538.804 846.174 545.457C845.892 552.194 845.5 559.034 844.995 565.953C844.566 572.96 844.059 580.046 843.444 587.201C842.929 594.44 842.333 601.735 841.658 609.084C841.077 616.503 840.423 623.957 839.697 631.443C839.048 638.982 838.33 646.544 837.52 654.096C836.797 661.704 835.975 669.287 835.05 676.857C834.178 684.446 833.196 692.006 832.08 699.506C830.993 707.027 829.754 714.469 828.36 721.842" stroke="white" stroke-opacity="0.2" stroke-width="2.5" stroke-linecap="round" stroke-dasharray="21 15"/>
<path opacity="0.47" d="M803.37 732.662C801.703 739.554 799.885 746.281 797.892 752.846C795.868 759.397 793.658 765.781 791.263 771.997C787.472 781.186 778.756 798.663 773.785 806.943C768.447 815.05 756.463 830.484 749.81 837.882C745.174 842.775 740.306 847.58 735.217 852.3C730.008 857.066 724.559 861.764 718.901 866.433C713.109 871.154 707.11 875.87 700.889 880.588C694.571 885.387 688.037 890.202 681.317 895.047C674.506 899.988 667.51 904.958 660.343 909.953C653.121 915.046 645.758 920.152 638.259 925.259C630.742 930.408 623.117 935.523 615.433 940.574C607.762 945.595 600.07 950.495 592.354 955.225C584.748 959.818 577.159 964.173 569.645 968.215C562.27 972.023 555.016 975.441 547.877 978.429C540.947 981.077 534.188 983.221 527.609 984.841C518.171 986.382 500.599 986.142 492.419 984.466C484.617 981.981 469.522 975.364 462.009 971.738C454.321 968.541 437.83 964.022 428.815 963.187C422.449 963.472 415.773 964.298 408.772 965.672C401.508 967.706 393.945 970.226 386.115 973.158C378.112 976.544 369.929 980.147 361.622 983.806C353.309 987.536 344.998 991.034 336.759 994.145C328.706 996.856 320.854 998.881 313.268 1000.07C306.02 1000.49 299.129 999.892 292.605 998.2C286.479 995.599 280.73 991.906 275.332 987.185C270.255 981.731 265.428 975.449 260.788 968.487C256.27 961.27 251.778 953.744 247.219 946.115C242.52 938.807 237.644 931.876 232.532 925.458C227.072 919.836 221.281 914.944 215.152 910.827C208.597 907.656 201.717 905.23 194.52 903.502C187.003 902.534 179.277 902.015 171.417 901.833C163.403 901.976 155.413 902.118 147.496 902.095C139.661 901.91 132.045 901.255 124.73 899.993C117.65 898.194 110.943 895.597 104.656 892.15C98.7008 887.973 93.1748 882.925 88.0798 877.032C83.3079 870.455 78.9219 863.135 74.9029 855.201C71.1124 846.799 67.6077 837.969 64.345 828.838C61.1811 819.566 58.1896 810.209 55.3118 800.902C52.4373 791.756 49.6101 782.84 46.8239 774.225C43.9519 766.003 41.0964 758.195 38.2438 750.832C33.7965 740.777 24.9227 723.693 20.6097 716.517C12.6113 704.813 3.01073 689.591 0.954178 684.716C-1.11756 674.296 -0.222807 656.407 1.39471 649.519C3.41692 642.154 8.76212 626.11 11.9158 617.48C14.0203 611.506 16.2371 605.359 18.5319 599.061C20.702 592.599 22.9056 586.003 25.0981 579.292C27.1006 572.423 29.0565 565.436 30.9465 558.347C32.587 551.123 34.1216 543.805 35.5457 536.401C36.7099 528.859 37.7191 521.249 38.6088 513.575C39.2136 505.764 39.6898 497.909 40.0478 490.015C40.1428 482.018 40.1402 473.991 40.0607 465.943C39.7907 457.823 39.4702 449.707 39.1363 441.621C38.6931 433.476 38.288 425.384 37.967 417.353C37.6253 409.313 37.4349 401.463 37.4313 393.804C37.5001 386.178 37.8279 378.775 38.415 371.597C39.172 364.48 40.2502 357.614 41.6703 351.009C44.3305 341.338 51.9694 323.452 56.9927 315.22C60.7486 309.918 64.9162 304.857 69.4643 300.023C74.2948 295.276 79.4955 290.753 85.0504 286.433C90.861 282.176 96.9993 278.099 103.445 274.193C110.098 270.316 117.018 266.592 124.201 262.996C131.521 259.398 139.06 255.92 146.775 252.544C154.601 249.142 162.551 245.819 170.627 242.576C178.742 239.301 186.941 236.086 195.183 232.941C203.423 229.744 211.678 226.628 219.935 223.562C228.125 220.48 236.284 217.47 244.406 214.542C252.418 211.616 260.353 208.779 268.214 206.057C275.94 203.362 283.565 200.784 291.083 198.368C298.451 195.985 305.706 193.774 312.839 191.732C319.814 189.743 326.681 187.942 333.428 186.334C343.294 184.094 362.331 180.64 371.566 179.392C380.604 178.317 398.42 176.841 407.277 176.376C416.098 175.908 433.907 175.266 442.944 175.065C452.049 174.794 470.597 174.573 480.01 174.696C489.502 174.89 508.676 176.112 518.323 177.248C527.95 178.683 547.186 182.948 556.771 185.805C563.123 187.889 569.475 190.257 575.815 192.878C582.133 195.576 588.439 198.527 594.738 201.721C601.038 204.94 607.271 208.34 613.422 211.9C619.593 215.444 625.709 219.112 631.765 222.89C637.848 226.605 643.865 230.415 649.851 234.297C655.848 238.098 661.803 241.966 667.705 245.898C673.619 249.749 679.48 253.663 685.259 257.651C691.055 261.574 696.77 265.596 702.373 269.705C707.971 273.799 713.458 278.005 718.812 282.35C724.13 286.716 729.306 291.241 734.317 295.917C739.272 300.666 744.064 305.59 748.679 310.695C753.216 315.864 757.567 321.236 761.724 326.769C765.799 332.377 769.69 338.151 773.372 344.067C776.995 350.032 780.418 356.118 783.654 362.295C786.83 368.496 789.832 374.755 792.645 381.055C795.421 387.327 798.016 393.618 800.454 399.902C803.982 409.185 810.224 427.447 812.94 436.363C815.498 445.051 819.834 462.011 821.608 470.295C823.238 478.429 825.707 494.563 826.535 502.618C827.236 510.679 827.894 527.043 827.863 535.4C827.744 543.903 826.899 561.395 826.215 570.403C825.501 579.619 823.657 598.583 822.552 608.329C821.868 614.912 821.098 621.579 820.244 628.297C819.481 635.091 818.623 641.93 817.687 648.808C816.825 655.744 815.888 662.708 814.846 669.688C813.883 676.715 812.808 683.742 811.641 690.753C810.507 697.804 809.26 704.83 807.885 711.812C806.536 718.818 805.038 725.771 803.375 732.652" stroke="white" stroke-opacity="0.2" stroke-width="2.5" stroke-linecap="round" stroke-dasharray="18 15"/>
<path opacity="0.21" d="M776.878 744.473C774.967 750.917 772.895 757.254 770.662 763.459C767.163 772.677 759.169 790.406 754.625 798.915C751.448 804.513 748.055 809.989 744.451 815.332C736.941 825.965 728.511 836.143 719.18 845.926C709.395 855.731 698.679 865.252 687.087 874.581C675.054 884.027 662.21 893.352 648.621 902.551C634.778 911.848 620.367 920.945 605.544 929.706C590.784 938.246 575.887 946.109 561.087 953.008C546.767 959.14 532.841 963.851 519.521 966.871C506.966 968.686 495.126 968.649 484.02 966.771C473.535 964.044 463.503 960.029 453.674 955.194C443.77 950.902 433.465 946.951 422.442 943.938C410.527 943.028 397.47 943.79 383.246 946.325C368.094 950.932 352.118 956.511 335.737 962.29C319.539 967.833 303.889 971.604 289.297 972.623C279.341 971.393 261.963 963.059 254.5 956.01C249.963 950.424 245.673 944.128 241.579 937.274C237.597 930.198 233.652 922.876 229.653 915.437C225.515 908.295 221.214 901.449 216.703 895.041C211.839 889.301 206.668 884.165 201.16 879.692C195.242 876.023 188.997 873.023 182.455 870.632C175.555 868.919 168.435 867.664 161.172 866.741C146.154 865.885 131.339 864.803 117.325 862.496C104.108 858.696 92.479 852.198 82.6105 842.812C74.116 830.998 67.2634 816.678 61.8363 800.501C57.1426 783.33 53.2643 765.701 49.9491 748.359C46.5015 731.923 43.2268 716.74 40.1029 703.077C36.5587 691.111 33.241 680.665 30.3227 671.548C27.2191 663.692 24.8265 656.602 23.3191 649.912C21.9652 643.642 21.6971 637.202 22.5364 630.402C23.6096 623.342 25.7267 615.597 28.762 607.143C31.7812 598.098 35.4316 588.26 39.5359 577.704C43.1958 566.479 46.9564 554.559 50.6758 542.022C53.5722 528.865 56.2051 515.156 58.5079 501.025C59.3102 493.751 60.0372 486.4 60.6791 478.968C61.115 471.419 61.4956 463.829 61.8362 456.193C62.0008 448.48 62.1655 440.743 62.3403 433.01C62.4195 425.241 62.5592 417.478 62.7943 409.776C62.9992 402.058 63.3594 394.508 63.8697 387.136C64.4555 379.789 65.2669 372.646 66.3139 365.711C67.4968 358.833 68.9708 352.179 70.7408 345.764C72.6968 339.431 74.9892 333.332 77.6281 327.473C83.5799 316.047 90.988 305.59 99.7922 296.045C109.583 286.85 120.705 278.472 133.027 270.819C146.126 263.383 160.198 256.543 175.064 250.234C190.339 243.994 206.114 238.186 222.21 232.793C238.301 227.436 254.444 222.498 270.457 218.039C286.132 213.698 301.515 209.905 316.486 206.75C330.94 203.788 344.936 201.504 358.452 199.938C371.473 198.5 384.112 197.715 396.413 197.518C408.432 197.228 420.292 197.35 432.084 197.831C443.833 197.948 455.661 198.282 467.604 198.865C479.625 199.019 491.816 199.487 504.109 200.374C516.434 201.101 528.8 202.493 541.13 204.677C550.314 206.552 568.461 211.683 577.408 214.969C586.246 218.668 603.696 227.482 612.313 232.561C618.03 236.052 623.665 239.703 629.224 243.505C634.782 247.282 640.28 251.18 645.721 255.163C651.183 259.081 656.599 263.063 661.948 267.101C667.339 271.059 672.674 275.051 677.959 279.093C688.625 286.886 699.008 294.889 709.026 303.137C719.034 311.228 728.53 319.754 737.417 328.781C746.091 338.003 754.024 347.886 761.151 358.384C767.967 369.217 773.972 380.625 779.141 392.507C784.068 404.518 788.25 416.797 791.711 429.176C795.087 441.398 797.833 453.515 799.975 465.451C802.175 477.025 803.827 488.357 804.915 499.454C806.157 510.198 806.866 520.798 807.03 531.323C807.387 541.668 807.229 552.079 806.555 562.609C806.118 573.17 805.211 583.985 803.842 595.06C802.77 606.323 801.288 617.896 799.424 629.744C797.887 641.846 795.985 654.219 793.718 666.785C792.134 676.345 788.553 695.698 786.533 705.441C785.191 711.96 783.718 718.488 782.109 724.985C780.525 731.507 778.78 737.998 776.873 744.457" stroke="white" stroke-opacity="0.2" stroke-width="2.5" stroke-linecap="round" stroke-dasharray="25 8"/>
<path opacity="0.96" d="M748.175 757.502C743.868 769.62 738.868 781.359 733.183 792.684C727.266 803.913 720.548 814.725 712.992 825.112C705.1 835.407 696.313 845.309 686.649 854.855C676.596 864.33 665.673 873.504 653.951 882.369C641.888 891.19 629.114 899.687 615.752 907.801C602.25 915.755 588.344 923.171 574.244 929.912C560.313 936.163 546.441 941.443 532.828 945.542C519.737 948.795 507.14 950.599 495.157 950.842C483.81 950.175 473.082 948.028 462.89 944.56C453.041 940.797 443.375 936.343 433.638 931.652C423.536 927.898 412.814 924.8 401.263 922.786C388.736 922.684 375.13 924.002 360.507 926.634C345.146 930.728 329.249 935.268 313.251 939.513C297.655 943.182 282.86 944.968 269.296 944.115C257.208 940.807 246.717 934.21 237.771 924.414C229.952 912.716 222.905 899.117 216.049 884.61C208.639 871.073 200.439 858.93 191.13 848.817C180.216 841.424 168.146 836.165 155.232 832.569C141.445 830.488 127.751 828.539 114.709 825.901C102.253 822.35 91.281 816.754 82.0291 808.844C74.1034 798.913 67.9616 786.693 63.4381 772.623C59.8704 757.321 57.4252 741.174 55.8329 724.819C54.3717 708.777 53.3074 693.464 52.5047 679.244C51.3366 666.275 50.3477 654.652 49.5918 644.329C48.4802 635.261 47.77 627.161 47.6117 619.814C47.3 613.11 47.6992 606.665 48.8917 600.226C50.038 593.8 51.9561 587.015 54.6196 579.738C57.1122 572.061 60.1603 563.702 63.6323 554.663C66.67 545.005 69.9068 534.626 73.1998 523.548C75.8261 511.845 78.3485 499.493 80.7393 486.606C82.3927 473.17 83.9273 459.312 85.4006 445.157C86.3555 430.659 87.4697 416.045 88.9152 401.468C90.3079 386.848 92.3494 372.816 95.1956 359.464C98.4856 346.358 102.854 334.067 108.38 322.636C114.664 311.583 122.239 301.429 131.062 292.136C140.708 283.246 151.569 275.16 163.508 267.846C176.119 260.835 189.646 254.491 203.895 248.792C218.513 243.308 233.62 238.398 249.008 234.057C264.423 229.916 279.887 226.338 295.229 223.37C310.305 220.612 325.102 218.487 339.508 217.009C353.499 215.746 367.061 215.108 380.196 215.108C392.933 215.164 405.339 215.718 417.427 216.726C429.346 217.532 441.115 218.615 452.814 219.932C464.53 220.815 476.297 221.858 488.12 223.051C500.055 223.852 512.037 224.929 524.054 226.393C536.065 227.736 548.007 229.73 559.783 232.478C571.411 235.478 582.788 239.443 593.881 244.431C604.767 249.794 615.39 256.141 625.76 263.437C636.055 270.86 645.992 278.805 655.602 287.107C665.355 295.167 674.876 303.378 684.163 311.674C693.631 319.593 702.821 327.61 711.657 335.761C720.533 343.712 728.9 351.993 736.657 360.649C744.234 369.435 751.066 378.778 757.089 388.654C762.792 398.854 767.651 409.604 771.665 420.814C775.407 432.244 778.37 443.977 780.599 455.893C782.709 467.767 784.197 479.63 785.097 491.383C786.063 502.888 786.532 514.194 786.52 525.27C786.695 536.051 786.448 546.636 785.761 557.057C785.34 567.292 784.518 577.476 783.275 587.663C782.333 597.829 780.993 608.115 779.274 618.558C777.881 629.114 776.113 639.908 773.977 650.931C772.163 662.116 769.979 673.555 767.402 685.196C765.108 697.002 762.368 708.966 759.158 721.02C756.103 733.165 752.464 745.347 748.181 757.492" stroke="white" stroke-opacity="0.2" stroke-width="2.5" stroke-linecap="round" stroke-dasharray="17 1"/>
<path opacity="0.67" d="M717.251 770.744C712.493 782.147 707.068 793.228 700.961 803.948C694.658 814.578 687.594 824.823 679.751 834.67C671.608 844.399 662.657 853.711 652.919 862.619C642.873 871.377 632.068 879.71 620.624 887.576C608.927 895.232 596.686 902.362 584.051 908.864C571.384 915.006 558.515 920.375 545.608 924.824C532.951 928.694 520.479 931.454 508.371 932.978C496.725 933.767 485.553 933.257 474.903 931.455C464.685 929.088 454.871 925.688 445.367 921.477C435.873 917.395 426.297 913.11 416.408 908.968C405.905 905.949 394.674 903.719 382.557 902.512C369.479 902.928 355.474 904.407 340.675 906.754C325.353 910.026 309.799 913.279 294.436 915.9C279.678 917.718 265.902 917.655 253.488 915.165C242.535 910.544 233.176 903.108 225.332 892.994C218.504 881.376 212.444 868.18 206.615 854.231C200.258 841.095 193.224 829.095 185.211 818.787C175.667 810.754 165.047 804.578 153.6 799.926C141.198 796.766 128.769 793.994 116.821 790.947C105.248 787.459 94.9842 782.538 86.3161 775.875C78.8561 767.604 73.1956 757.388 69.2625 745.476C66.3904 732.278 64.8856 718.026 64.4856 703.237C64.461 688.291 65.0683 673.617 66.1261 659.57C66.9646 646.298 68.0187 634.065 69.2572 622.918C70.0762 612.806 71.0952 603.695 72.4081 595.445C73.3611 587.918 74.7049 580.881 76.5306 574.139C78.0652 567.61 80.113 561.003 82.652 554.167C84.8876 547.116 87.5457 539.573 90.5574 531.48C93.125 522.914 95.9055 513.663 98.8363 503.78C101.17 493.309 103.553 482.193 105.959 470.495C107.767 458.291 109.616 445.598 111.572 432.542C113.114 419.17 114.935 405.605 117.166 391.973C119.35 378.311 122.172 365.115 125.748 352.516C129.668 340.134 134.561 328.468 140.48 317.581C147.015 307.092 154.667 297.429 163.42 288.596C172.849 280.213 183.335 272.644 194.763 265.88C206.741 259.509 219.53 253.896 232.944 249.012C246.664 244.482 260.813 240.631 275.215 237.477C289.624 234.64 304.082 232.46 318.434 230.967C332.56 229.732 346.468 229.15 360.034 229.222C373.274 229.457 386.18 230.255 398.72 231.581C411.006 232.861 423.023 234.543 434.799 236.527C446.5 238.216 458.101 240.096 469.652 242.092C481.277 243.649 492.932 245.307 504.607 247.075C516.384 248.488 528.153 250.156 539.836 252.198C551.496 254.172 562.968 256.753 574.181 260.069C585.171 263.657 595.811 268.137 606.053 273.599C616.048 279.411 625.667 286.153 634.939 293.761C644.129 301.491 652.9 309.687 661.317 318.149C669.879 326.396 678.19 334.733 686.266 343.076C694.562 351.05 702.591 359.036 710.276 367.05C718.062 374.833 725.359 382.82 732.075 391.068C738.662 399.367 744.517 408.114 749.589 417.301C754.368 426.766 758.292 436.72 761.368 447.111C764.156 457.771 766.134 468.772 767.367 479.995C768.441 491.315 768.886 502.704 768.742 514.08C768.639 525.334 768.058 536.472 767.042 547.428C766.213 558.184 765.025 568.769 763.489 579.162C762.232 589.402 760.659 599.526 758.764 609.584C757.21 619.599 755.336 629.645 753.147 639.738C751.298 649.909 749.134 660.208 746.629 670.673C744.449 681.26 741.905 692.025 738.971 702.95C736.284 714.012 733.162 725.219 729.536 736.509C726.058 747.885 721.988 759.313 717.257 770.735" stroke="white" stroke-opacity="0.2" stroke-width="2.5" stroke-linecap="round" stroke-dasharray="21 11"/>
<path opacity="0.25" d="M684.952 782.363C679.804 793.05 674.03 803.405 667.625 813.398C661.076 823.281 653.836 832.77 645.914 841.813C637.776 850.694 628.936 859.1 619.452 866.993C609.753 874.665 599.466 881.767 588.69 888.244C577.782 894.41 566.525 899.859 555.036 904.511C543.598 908.721 532.098 912.021 520.714 914.307C509.551 916.038 498.64 916.687 488.079 916.201C477.839 915.194 467.967 913.121 458.459 910.08C449.11 906.848 439.929 902.979 430.787 898.687C421.383 894.834 411.655 891.074 401.424 887.699C390.46 885.424 378.709 883.911 366.124 883.239C352.691 883.821 338.527 885.108 323.828 886.84C308.849 889.038 293.933 890.889 279.47 891.88C265.741 891.955 253.14 890.239 241.983 886.348C232.212 880.661 223.996 872.616 217.237 862.362C211.369 850.93 206.25 838.225 201.406 824.894C196.037 812.24 190.138 800.53 183.39 790.186C175.224 781.74 166.07 774.88 156.142 769.4C145.208 765.309 134.143 761.784 123.407 758.31C112.811 754.743 103.328 750.265 95.2468 744.569C88.1937 737.698 82.8495 729.277 79.2253 719.385C76.6927 708.309 75.6599 696.147 75.9043 683.267C76.728 669.921 78.4139 656.462 80.7465 643.251C83.053 630.375 85.6844 618.153 88.5476 606.729C91.0359 596.026 93.6499 586.167 96.4076 577.109C98.7073 568.695 101.176 560.861 103.851 553.466C106.108 546.363 108.617 539.393 111.406 532.409C113.764 525.34 116.382 518.001 119.241 510.306C121.639 502.249 124.214 493.676 126.956 484.564C129.166 474.979 131.503 464.812 133.969 454.12C135.928 442.974 138.066 431.369 140.41 419.398C142.432 407.14 144.803 394.665 147.659 382.091C150.463 369.491 153.886 357.288 158.007 345.584C162.393 334.109 167.65 323.278 173.796 313.161C180.407 303.438 188 294.513 196.503 286.403C205.552 278.748 215.477 271.938 226.208 265.95C237.369 260.442 249.196 255.735 261.547 251.833C274.142 248.356 287.086 245.652 300.217 243.711C313.39 242.127 326.582 241.265 339.696 241.106C352.668 241.209 365.456 241.949 377.982 243.298C390.318 244.729 402.409 246.654 414.22 249.004C425.935 251.239 437.462 253.741 448.842 256.458C460.254 258.831 471.609 261.317 482.94 263.855C494.398 265.981 505.872 268.161 517.314 270.458C528.858 272.45 540.316 274.689 551.615 277.287C562.848 279.879 573.793 283.059 584.365 286.918C594.685 291.055 604.568 296.033 613.935 301.881C623.046 308.086 631.693 315.129 639.9 322.942C648.021 330.888 655.672 339.213 662.933 347.754C670.358 356.078 677.507 364.449 684.411 372.79C691.575 380.748 698.482 388.654 705.069 396.515C711.804 404.106 718.101 411.791 723.869 419.613C729.558 427.447 734.581 435.582 738.844 444.049C742.865 452.743 746.059 461.858 748.419 471.347C750.489 481.125 751.752 491.242 752.261 501.609C752.573 512.18 752.244 522.889 751.303 533.658C750.351 544.462 748.934 555.226 747.076 565.882C745.377 576.475 743.346 586.93 741.003 597.234C738.932 607.461 736.601 617.562 734.007 627.564C731.747 637.535 729.241 647.476 726.476 657.404C724.055 667.381 721.353 677.414 718.37 687.518C715.692 697.724 712.681 708.033 709.305 718.433C706.154 728.947 702.588 739.543 698.529 750.191C694.602 760.909 690.096 771.644 684.959 782.354" stroke="white" stroke-opacity="0.2" stroke-width="2.5" stroke-linecap="round" stroke-dasharray="22 16"/>
<path opacity="0.16" d="M652.861 790.317C647.394 800.243 641.393 809.787 634.885 818.9C628.25 827.919 621.057 836.462 613.334 844.479C605.435 852.302 597.004 859.567 588.114 866.205C579.067 872.575 569.622 878.265 559.862 883.212C550.042 887.811 540.027 891.578 529.936 894.479C519.899 896.951 509.922 898.482 500.084 899.034C490.403 899.157 480.941 898.31 471.75 896.538C462.686 894.46 453.817 891.613 445.104 888.115C436.292 884.68 427.415 880.922 418.344 877.043C408.798 873.739 398.767 870.673 388.148 868.055C376.75 866.402 364.623 865.344 351.785 864.91C338.264 865.347 324.243 866.129 309.981 867.001C295.666 868.005 281.655 868.426 268.319 867.864C255.821 866.371 244.529 863.238 234.688 858.228C226.143 851.715 219.052 843.27 213.341 833.051C208.398 821.93 204.165 809.784 200.236 797.126C195.832 785.042 190.992 773.712 185.474 763.509C178.639 754.852 170.942 747.535 162.543 741.442C153.1 736.61 143.467 732.416 134.019 728.527C124.494 724.781 115.868 720.555 108.411 715.548C101.749 709.765 96.6347 702.827 93.1254 694.737C90.6472 685.628 89.7054 675.516 90.1272 664.64C91.252 653.148 93.3976 641.31 96.3787 629.413C99.5261 617.496 103.154 605.884 107.125 594.757C110.853 584.001 114.733 573.85 118.713 564.346C122.239 555.271 125.833 546.743 129.471 538.683C132.625 530.862 135.856 523.299 139.184 515.864C142.015 508.404 144.957 500.848 148.023 493.13C150.603 485.13 153.293 476.81 156.112 468.111C158.461 459.026 160.944 449.506 163.578 439.582C165.813 429.273 168.251 418.588 170.969 407.609C173.419 396.387 176.255 384.974 179.582 373.507C182.867 362.002 186.717 350.877 191.198 340.229C195.863 329.783 201.274 319.957 207.435 310.816C213.954 302.039 221.262 294.039 229.34 286.858C237.806 280.126 247.003 274.239 256.83 269.215C266.989 264.653 277.68 260.945 288.775 258.084C300.072 255.648 311.641 254.022 323.362 253.192C335.134 252.702 346.948 252.945 358.697 253.873C370.398 255.013 381.979 256.747 393.394 259.007C404.756 261.31 415.967 264.018 427.011 267.043C438.089 269.905 449.088 272.966 460 276.145C471.047 279.01 482.089 281.915 493.119 284.869C504.311 287.442 515.5 290.087 526.61 292.843C537.814 295.367 548.863 298.16 559.676 301.299C570.364 304.481 580.704 308.21 590.581 312.568C600.186 317.212 609.25 322.612 617.752 328.792C625.953 335.308 633.645 342.561 640.838 350.486C647.93 358.547 654.517 366.905 660.686 375.423C667.015 383.753 673.072 392.089 678.866 400.333C684.945 408.227 690.775 416.029 696.325 423.708C702.083 431.107 707.433 438.499 712.331 445.935C717.216 453.315 721.5 460.88 725.089 468.668C728.499 476.614 731.142 484.886 732.994 493.461C734.579 502.312 735.383 511.491 735.429 520.913C735.264 530.585 734.426 540.454 732.981 550.444C731.476 560.574 729.461 570.745 727.005 580.895C724.658 591.109 721.954 601.255 718.953 611.296C716.17 621.36 713.147 631.324 709.9 641.185C706.935 651.079 703.773 660.91 700.4 670.693C697.335 680.531 694.037 690.364 690.491 700.193C687.233 710.119 683.681 720.077 679.802 730.036C676.138 740.09 672.091 750.159 667.602 760.207C663.221 770.303 658.325 780.359 652.876 790.3" stroke="white" stroke-opacity="0.2" stroke-width="2.5" stroke-linecap="round" stroke-dasharray="17 16"/>
<path opacity="0.82" d="M622.844 793.128C617.177 802.245 611.108 810.883 604.663 819.035C598.127 827.069 591.189 834.56 583.872 841.437C576.439 848.141 568.641 854.183 560.558 859.528C552.374 864.604 543.942 868.927 535.351 872.456C526.728 875.658 518.025 878.016 509.328 879.521C500.655 880.674 492.052 880.955 483.575 880.373C475.148 879.51 466.832 877.863 458.637 875.503C450.393 873.049 442.146 870.076 433.858 866.705C425.264 863.556 416.404 860.292 407.194 857.052C397.398 854.407 387.056 852.02 376.108 850.004C364.465 848.745 352.193 847.882 339.393 847.373C326.125 847.384 312.611 847.456 299.109 847.353C285.765 847.118 272.924 846.179 260.908 844.234C249.776 841.4 239.874 837.121 231.375 831.249C224.048 824.172 218.085 815.544 213.369 805.501C209.302 794.798 205.905 783.284 202.826 771.372C199.31 759.9 195.471 749.073 191.093 739.15C185.536 730.473 179.244 722.904 172.312 716.409C164.366 711.005 156.17 706.284 148.047 701.992C139.675 698.008 131.962 693.86 125.19 689.316C118.959 684.307 114.052 678.505 110.58 671.891C107.993 664.468 106.857 656.202 107.094 647.238C108.068 637.619 110.173 627.555 113.207 617.24C116.587 606.663 120.605 596.12 125.09 585.775C129.498 575.511 134.151 565.593 138.957 556.087C143.416 546.796 147.916 537.919 152.415 529.416C156.463 521.059 160.492 512.965 164.493 505.064C168.015 497.124 171.53 489.225 175.067 481.285C178.138 473.131 181.229 464.81 184.395 456.279C187.141 447.438 189.968 438.332 192.958 428.959C195.582 419.283 198.416 409.355 201.51 399.254C204.4 388.942 207.648 378.535 211.342 368.151C214.996 357.727 219.137 347.708 223.775 338.182C228.576 328.828 233.964 320.084 239.949 312.021C246.195 304.289 253.072 297.333 260.532 291.171C268.296 285.425 276.612 280.522 285.408 276.486C294.453 272.877 303.914 270.12 313.68 268.202C323.613 266.68 333.779 265.96 344.056 266.002C354.419 266.346 364.845 267.391 375.251 269.059C385.693 270.885 396.113 273.239 406.448 276.057C416.846 278.857 427.202 281.978 437.501 285.371C447.931 288.562 458.364 291.913 468.783 295.359C479.404 298.499 490.049 301.693 500.687 304.928C511.503 307.863 522.281 310.888 532.957 314.05C543.679 317.067 554.182 320.344 564.39 323.979C574.448 327.688 584.078 331.925 593.185 336.723C601.994 341.798 610.219 347.548 617.836 353.981C625.148 360.715 631.898 368.083 638.111 376.044C644.213 384.104 649.802 392.406 654.955 400.82C660.264 409.071 665.277 417.289 670.032 425.385C675.084 433.187 679.909 440.834 684.484 448.319C689.301 455.535 693.781 462.663 697.869 469.743C702.018 476.726 705.643 483.784 708.672 490.973C711.591 498.245 713.812 505.755 715.32 513.471C716.61 521.43 717.147 529.653 716.971 538.114C716.585 546.826 715.533 555.76 713.854 564.842C712.068 574.134 709.765 583.54 707 592.988C704.247 602.587 701.143 612.193 697.702 621.759C694.424 631.433 690.881 641.056 687.122 650.612C683.579 660.252 679.844 669.831 675.924 679.343C672.253 688.953 668.382 698.511 664.31 708.018C660.464 717.632 656.377 727.187 652.034 736.683C647.845 746.28 643.342 755.796 638.487 765.207C633.712 774.664 628.511 783.995 622.852 793.12" stroke="white" stroke-opacity="0.2" stroke-width="2.5" stroke-linecap="round" stroke-dasharray="10 21"/>
<path opacity="0.29" d="M596.468 790.33C590.726 798.557 584.732 806.263 578.513 813.409C572.209 820.449 565.666 826.88 558.907 832.665C552.044 838.271 544.983 843.198 537.759 847.384C530.463 851.345 523.053 854.55 515.577 856.971C508.055 859.127 500.499 860.499 492.981 861.082C485.416 861.432 477.888 861.025 470.403 859.917C462.843 858.679 455.267 856.825 447.669 854.468C439.847 852.15 431.878 849.491 423.695 846.6C415.077 844.004 406.086 841.37 396.668 838.808C386.657 836.749 376.103 834.886 365.038 833.25C353.394 832.135 341.304 831.203 328.899 830.379C316.237 829.792 303.574 829.037 291.14 827.916C279.02 826.52 267.552 824.366 257.014 821.258C247.328 817.344 238.855 812.215 231.71 805.764C225.582 798.37 220.682 789.745 216.918 780.039C213.667 769.841 211.038 759.02 208.741 747.892C206.039 737.125 203.125 726.876 199.784 717.361C195.417 708.813 190.439 701.183 184.908 694.466C178.4 688.67 171.635 683.543 164.835 678.909C157.653 674.675 150.923 670.499 144.894 666.182C139.175 661.669 134.527 656.687 131.082 651.159C128.329 645.067 126.894 638.339 126.718 631.028C127.242 623.145 128.902 614.795 131.556 606.108C134.64 597.038 138.472 587.828 142.903 578.602C147.427 569.244 152.306 560.002 157.432 550.962C162.367 541.931 167.404 533.127 172.464 524.595C177.18 516.058 181.856 507.727 186.494 499.57C190.711 491.342 194.862 483.19 198.971 475.077C202.664 466.78 206.327 458.435 209.993 450.01C213.294 441.323 216.64 432.518 220.069 423.605C223.221 414.441 226.52 405.172 230.029 395.846C233.361 386.347 236.987 376.882 240.968 367.519C244.935 358.123 249.251 349.188 253.947 340.762C258.749 332.484 263.998 324.821 269.685 317.846C275.568 311.15 281.91 305.197 288.676 300.035C295.677 295.226 303.077 291.245 310.821 288.084C318.774 285.299 327.031 283.323 335.513 282.154C344.174 281.311 353.014 281.225 361.955 281.845C371.038 282.703 380.201 284.194 389.398 286.253C398.728 288.405 408.087 291.021 417.455 294.045C426.984 297.011 436.567 300.266 446.165 303.738C455.97 307.017 465.834 310.443 475.741 313.966C485.866 317.242 496.036 320.584 506.187 324.005C516.505 327.208 526.747 330.544 536.832 334.042C546.934 337.477 556.779 341.182 566.251 345.231C575.551 349.409 584.37 354.048 592.643 359.21C600.602 364.63 607.957 370.626 614.666 377.22C621.086 384.067 626.918 391.458 632.197 399.346C637.36 407.342 642.006 415.494 646.226 423.717C650.571 431.81 654.623 439.851 658.433 447.747C662.515 455.391 666.397 462.867 670.063 470.143C673.993 477.174 677.65 484.059 680.967 490.842C684.441 497.497 687.46 504.142 689.992 510.808C692.482 517.528 694.376 524.354 695.643 531.331C696.758 538.494 697.197 545.839 696.973 553.381C696.556 561.164 695.501 569.139 693.842 577.273C692.053 585.651 689.733 594.167 686.93 602.761C684.08 611.569 680.844 620.442 677.256 629.317C673.742 638.371 669.939 647.429 665.9 656.431C661.998 665.598 657.89 674.725 653.602 683.757C649.484 692.939 645.185 702.059 640.714 711.076C636.413 720.228 631.901 729.283 627.186 738.203C622.595 747.224 617.746 756.099 612.625 764.796C607.573 773.552 602.195 782.072 596.468 790.315" stroke="white" stroke-opacity="0.2" stroke-width="2.5" stroke-linecap="round" stroke-dasharray="21 2"/>
<path opacity="0.44" d="M574.41 782.552C568.736 789.878 562.933 796.638 557.019 802.819C551.04 808.922 544.937 814.395 538.729 819.225C532.456 823.904 526.072 827.899 519.628 831.2C513.113 834.325 506.532 836.73 499.93 838.436C493.259 839.951 486.56 840.774 479.844 840.938C473.03 840.949 466.163 840.361 459.269 839.225C452.172 838.038 444.957 836.407 437.586 834.408C429.901 832.506 421.949 830.386 413.691 828.108C404.967 826.098 395.837 824.055 386.293 822.061C376.219 820.416 365.705 818.841 354.814 817.356C343.517 816.161 331.967 814.942 320.321 813.641C308.608 812.365 297.086 810.772 285.97 808.713C275.281 806.302 265.337 803.147 256.326 799.137C248.136 794.438 241.086 788.727 235.244 781.964C230.256 774.498 226.372 766.066 223.474 756.808C220.985 747.213 219.055 737.144 217.444 726.841C215.494 716.817 213.4 707.205 210.989 698.203C207.699 689.925 203.919 682.4 199.681 675.632C194.543 669.619 189.131 664.212 183.628 659.317C177.645 654.832 171.955 650.544 166.74 646.318C159.469 639.824 150.239 624.893 148.72 616.122C148.666 609.665 149.67 602.806 151.651 595.626C154.096 588.034 157.333 580.214 161.242 572.251C165.351 564.036 169.945 555.771 174.896 547.549C179.791 539.169 184.893 530.882 190.112 522.702C195.117 514.421 200.136 506.246 205.142 498.197C209.851 490 214.495 481.884 219.085 473.827C223.349 465.587 227.557 457.348 231.729 449.139C235.611 440.701 239.495 432.247 243.411 423.796C247.098 415.138 250.88 406.49 254.792 397.911C258.567 389.181 262.552 380.585 266.784 372.181C271.001 363.759 275.444 355.824 280.122 348.425C284.894 341.14 289.958 334.476 295.308 328.496C300.815 322.725 306.627 317.68 312.728 313.377C319.009 309.363 325.575 306.123 332.379 303.651C339.371 301.478 346.586 300.056 353.969 299.372C361.529 298.937 369.255 299.184 377.086 300.074C385.102 301.134 393.224 302.749 401.432 304.878C409.818 307.064 418.311 309.645 426.872 312.594C435.664 315.469 444.551 318.617 453.514 321.965C462.716 325.161 472.007 328.517 481.359 331.983C490.92 335.277 500.511 338.678 510.066 342.196C519.745 345.598 529.312 349.166 538.684 352.922C548.032 356.685 557.071 360.729 565.701 365.111C574.141 369.635 582.083 374.583 589.442 379.995C596.507 385.635 602.954 391.784 608.768 398.424C614.295 405.285 619.241 412.611 623.634 420.347C627.922 428.169 631.702 436.103 635.039 444.065C638.514 451.928 641.683 459.722 644.609 467.38C647.813 474.808 650.809 482.072 653.625 489.134C656.735 495.968 659.604 502.635 662.215 509.164C665.025 515.544 667.465 521.848 669.524 528.115C672.416 537.525 675.492 556.818 675.518 566.847C675.204 573.781 674.299 580.865 672.835 588.088C671.228 595.545 669.103 603.137 666.497 610.817C663.82 618.732 660.724 626.741 657.258 634.779C653.785 643.041 650.007 651.321 645.957 659.59C641.976 668.051 637.766 676.481 633.361 684.853C629.045 693.385 624.559 701.852 619.891 710.206C615.339 718.699 610.613 727.071 605.704 735.273C600.888 743.589 595.874 751.716 590.659 759.6C585.479 767.543 580.069 775.208 574.418 782.544" stroke="white" stroke-opacity="0.2" stroke-width="2.5" stroke-linecap="round" stroke-dasharray="8 2"/>
<path opacity="0.47" d="M556.239 771.283C550.757 777.706 545.199 783.583 539.615 788.907C533.978 794.158 528.288 798.82 522.548 802.876C513.829 808.475 496.058 816.382 487.023 818.694C477.771 820.228 458.681 820.444 448.73 819.333C441.802 818.463 434.671 817.238 427.309 815.734C419.607 814.339 411.596 812.75 403.258 811.036C394.511 809.509 385.388 807.907 375.916 806.266C366.058 804.822 355.909 803.325 345.527 801.775C334.926 800.329 324.271 798.712 313.701 796.866C303.22 794.913 293.086 792.554 283.473 789.704C274.33 786.483 265.961 782.601 258.511 777.951C251.792 772.77 246.106 766.766 241.494 759.937C237.577 752.588 234.614 744.516 232.499 735.827C230.693 726.912 229.389 717.631 228.388 708.172C227.077 698.939 225.713 690.037 224.132 681.601C221.8 673.725 219.085 666.435 216.007 659.759C212.118 653.674 207.983 648.131 203.701 643.058C196.596 636.161 183.61 623.43 178.579 617.004C174.754 610.105 172.274 594.479 173.653 585.701C175.273 579.399 177.674 572.848 180.782 566.118C184.138 559.095 188.048 551.934 192.397 544.704C196.815 537.242 201.529 529.747 206.466 522.27C211.323 514.587 216.287 506.937 221.316 499.337C226.155 491.555 230.999 483.797 235.824 476.109C240.424 468.208 244.992 460.358 249.52 452.551C253.846 444.542 258.149 436.578 262.456 428.696C266.595 420.641 270.779 412.667 275.028 404.84C279.182 396.901 283.468 389.145 287.9 381.645C292.328 374.121 296.868 367.114 301.527 360.636C306.253 354.248 311.157 348.47 316.222 343.315C321.413 338.332 326.796 334.034 332.354 330.418C341.021 325.667 359.478 319.966 369.222 318.953C375.958 318.679 382.833 319.016 389.832 319.905C397.036 320.924 404.363 322.438 411.81 324.382C419.483 326.371 427.275 328.733 435.187 331.413C443.341 334.042 451.616 336.933 459.987 340.032C468.589 343.046 477.286 346.229 486.024 349.563C494.93 352.803 503.852 356.199 512.692 359.751C521.613 363.26 530.379 366.978 538.916 370.919C547.374 374.904 555.503 379.184 563.21 383.786C570.701 388.531 577.685 393.674 584.107 399.212C590.23 404.954 595.76 411.127 600.678 417.705C605.331 424.476 609.44 431.629 612.996 439.115C616.451 446.675 619.418 454.311 621.981 461.948C624.636 469.519 627.014 476.998 629.146 484.35C631.521 491.538 633.723 498.545 635.76 505.365C639.146 515.223 645.238 533.911 647.746 542.872C650.088 551.718 652.666 569.491 652.752 578.556C652.566 584.777 651.865 591.094 650.656 597.501C649.353 604.103 647.563 610.822 645.3 617.621C642.962 624.642 640.208 631.743 637.067 638.888C633.9 646.247 630.388 653.649 626.592 661.062C622.799 668.654 618.75 676.238 614.489 683.781C610.259 691.481 605.837 699.128 601.231 706.656C596.69 714.333 591.978 721.869 587.106 729.243C582.282 736.721 577.289 743.987 572.142 751.003C567.019 758.071 561.724 764.845 556.248 771.277" stroke="white" stroke-opacity="0.2" stroke-width="2.5" stroke-linecap="round" stroke-dasharray="16 6"/>
<path opacity="0.7" d="M540.516 758.298C535.285 763.869 530.016 768.941 524.724 773.519C516.708 780.033 500.425 790.314 492.127 794.073C483.65 797.157 466.135 800.694 457.022 801.264C450.717 801.465 444.252 801.272 437.593 800.735C430.702 800.213 423.562 799.408 416.174 798.36C408.487 797.371 400.512 796.204 392.245 794.876C383.674 793.636 374.83 792.263 365.759 790.768C356.456 789.328 346.995 787.747 337.469 785.981C327.906 784.199 318.425 782.149 309.185 779.784C300.15 777.259 291.546 774.298 283.513 770.849C275.968 767.074 269.162 762.716 263.212 757.729C257.882 752.33 253.467 746.29 249.968 739.609C247.029 732.567 244.885 724.989 243.468 716.957C242.263 708.776 241.492 700.329 241.014 691.734C240.264 683.301 239.519 675.146 238.633 667.336C237.127 659.938 235.35 652.995 233.287 646.544C229.029 637.763 218.952 622.757 213.723 616.18C208.476 609.95 200.483 597.48 198.205 590.926C197.078 583.888 199.062 568.417 202.033 559.995C204.479 554.054 207.491 547.95 210.993 541.734C214.622 535.275 218.63 528.719 222.937 522.106C227.261 515.269 231.788 508.393 236.466 501.502C241.063 494.422 245.744 487.327 250.484 480.262C255.103 473.006 259.724 465.776 264.366 458.6C268.858 451.251 273.37 443.957 277.881 436.784C282.278 429.456 286.708 422.241 291.179 415.215C295.579 408.1 300.057 401.19 304.646 394.557C309.213 387.911 313.822 381.747 318.476 376.092C323.187 370.506 327.974 365.475 332.848 361.019C340.367 354.836 356.148 345.736 364.437 342.841C373.09 340.783 391.317 339.711 400.887 340.564C407.501 341.385 414.263 342.647 421.153 344.296C428.256 345.983 435.502 348.019 442.866 350.343C450.442 352.664 458.143 355.24 465.93 358.056C473.908 360.816 481.946 363.792 489.999 366.96C498.166 370.095 506.297 373.427 514.325 376.973C522.363 380.513 530.218 384.29 537.815 388.314C545.295 392.426 552.419 396.82 559.125 401.523C565.613 406.366 571.61 411.551 577.057 417.089C582.237 422.799 586.858 428.867 590.912 435.286C594.723 441.848 598.01 448.72 600.803 455.868C603.498 463.093 605.729 470.347 607.579 477.592C609.505 484.788 611.153 491.907 612.591 498.906C614.228 505.778 615.696 512.49 617.02 519.041C619.325 528.54 623.499 546.545 625.235 555.136C626.946 563.543 628.875 580.161 628.942 588.47C628.57 596.953 625.607 614.406 623.012 623.393C621.084 629.577 618.767 635.824 616.074 642.111C613.34 648.585 610.259 655.081 606.88 661.594C603.479 668.282 599.813 674.953 595.884 681.591C591.981 688.374 587.844 695.105 583.524 701.74C579.227 708.494 574.735 715.132 570.093 721.598C565.471 728.159 560.68 734.519 555.753 740.646C550.83 746.823 545.75 752.712 540.526 758.292" stroke="white" stroke-opacity="0.2" stroke-width="2.5" stroke-linecap="round" stroke-dasharray="14 18"/>
<path opacity="0.35" d="M525.298 745.054C517.856 752.006 502.685 763.74 494.944 768.478C484.427 774.31 473.562 778.371 462.351 780.802C450.643 782.994 438.294 783.723 425.238 783.218C411.374 782.701 396.583 781.179 380.995 778.862C364.653 776.606 347.815 773.516 331.066 769.523C314.592 765.168 299.258 759.434 285.968 752.086C274.427 743.639 265.75 733.194 260.242 720.813C258.161 714.231 256.722 707.25 255.884 699.932C255.192 692.53 254.88 684.929 254.825 677.209C254.558 669.595 254.322 662.197 254.008 655.075C253.202 648.23 252.216 641.732 251.01 635.603C246.878 624.312 242.188 614.331 237.465 605.443C231.718 597.104 227.233 589.053 224.547 581.026C222.383 572.524 222.635 563.531 225.202 554.053C228.576 543.708 233.949 532.821 240.846 521.608C248.001 509.539 256.159 497.23 264.907 484.912C273.428 471.868 282.297 458.913 291.351 446.333C295.761 439.857 300.236 433.499 304.751 427.326C309.232 421.068 313.783 415.03 318.413 409.245C323.032 403.441 327.657 398.085 332.304 393.184C336.979 388.331 341.707 383.966 346.46 380.104C356.223 372.677 366.32 367.366 376.739 364.099C387.696 361.332 399.133 360.521 411.007 361.457C423.588 362.708 436.706 365.442 450.217 369.405C464.403 373.442 478.896 378.509 493.357 384.487C508.054 390.514 522.297 397.508 535.541 405.464C548.246 413.774 559.438 423.259 568.682 433.929C572.925 439.476 576.662 445.321 579.888 451.454C582.892 457.698 585.434 464.201 587.513 470.94C589.503 477.728 591.08 484.541 592.307 491.33C593.578 498.082 594.599 504.781 595.397 511.359C597.565 524.244 599.153 536.603 600.259 548.313C602.266 559.62 603.584 570.486 604.06 580.959C604.965 591.411 604.648 601.785 603.017 612.122C601.357 622.824 598.246 633.683 593.768 644.597C589.165 656.047 583.313 667.578 576.403 678.953C569.461 690.825 561.614 702.443 553.007 713.516C548.724 719.158 544.271 724.636 539.647 729.9C535.029 735.199 530.254 740.264 525.308 745.049" stroke="white" stroke-opacity="0.2" stroke-width="2.5" stroke-linecap="round" stroke-dasharray="25 13"/>
<path opacity="0.89" d="M508.822 732.305C499.519 740.41 489.838 747.094 479.869 752.363C469.73 757.437 459.117 761.075 448.059 763.385C436.605 765.5 424.497 766.376 411.781 766.157C398.52 765.826 384.589 764.504 370.249 762.265C355.603 759.886 340.926 756.518 326.781 752.101C313.2 747.221 300.965 741.008 290.703 733.357C281.958 724.88 275.641 714.819 271.938 703.298C269.432 691.168 268.778 677.998 269.442 664.237C269.402 650.806 269.333 638.117 268.79 626.462C266.426 615.706 263.597 605.954 260.633 597.109C256.548 588.772 253.211 580.836 251.036 573.124C248.94 565.212 248.586 557.09 250.062 548.731C252.058 539.766 255.804 530.401 261.046 520.785C266.593 510.455 273.278 499.885 280.821 489.273C288.325 478.066 296.419 466.911 304.943 456.072C313.305 444.849 322.08 434.139 331.22 424.281C340.33 414.362 349.539 406.014 358.847 399.31C368.364 392.882 378.171 388.207 388.227 385.256C398.708 382.662 409.61 381.732 420.865 382.299C432.651 383.159 444.863 385.356 457.319 388.726C470.208 392.262 483.206 396.874 495.993 402.442C508.792 408.192 520.991 414.949 532.151 422.665C542.721 430.742 551.848 439.899 559.213 450.077C565.721 460.685 570.488 472.278 573.495 484.691C576.173 497.276 577.545 509.833 577.976 522.107C578.944 534.145 579.372 545.769 579.371 556.848C580.191 567.628 580.481 577.989 580.18 587.935C580.409 597.811 579.737 607.511 578.078 617.013C576.568 626.745 573.893 636.479 570.063 646.136C566.229 656.171 561.24 666.178 555.229 675.994C549.204 686.167 542.239 696.083 534.441 705.527C526.676 715.167 518.125 724.174 508.832 732.3" stroke="white" stroke-opacity="0.2" stroke-width="2.5" stroke-linecap="round" stroke-dasharray="22 19"/>
<path opacity="0.88" d="M490.203 719.952C481.519 726.743 472.35 732.367 462.8 736.841C453.114 741.165 442.923 744.306 432.289 746.323C421.39 748.171 409.964 748.93 398.117 748.679C385.994 748.262 373.545 746.856 361.041 744.496C348.569 741.89 336.431 738.266 325.095 733.575C314.451 728.461 305.14 722.146 297.637 714.626C291.326 706.536 287.007 697.214 284.777 686.804C283.35 676.034 283.4 664.467 284.56 652.426C285.163 640.604 285.889 629.281 286.377 618.68C285.455 608.654 284.215 599.359 282.824 590.761C280.385 582.551 278.352 574.759 277.021 567.273C275.447 559.729 275.081 552.184 276.027 544.594C277.208 536.625 279.804 528.446 283.713 520.135C287.855 511.325 293.147 502.342 299.389 493.355C305.673 483.909 312.742 474.529 320.437 465.45C328.053 456.062 336.255 447.114 344.974 438.88C353.679 430.614 362.574 423.626 371.618 417.994C380.79 412.552 390.246 408.556 399.933 405.967C409.884 403.659 420.193 402.742 430.736 403.12C441.62 403.759 452.749 405.604 463.958 408.552C475.365 411.711 486.684 415.921 497.632 421.091C508.412 426.502 518.508 432.882 527.559 440.186C536.031 447.804 543.189 456.372 548.802 465.839C553.707 475.601 557.097 486.213 558.973 497.504C560.561 508.927 560.983 520.335 560.555 531.522C560.521 542.569 559.957 553.312 558.993 563.622C558.706 573.736 558.013 583.494 556.877 592.861C556.282 602.15 555.056 611.213 553.106 620.004C551.415 628.918 548.842 637.711 545.347 646.313C541.941 655.159 537.563 663.871 532.256 672.348C526.98 681.043 520.786 689.473 513.744 697.45C506.733 705.56 498.885 713.126 490.203 719.952Z" stroke="white" stroke-opacity="0.2" stroke-width="2.5" stroke-linecap="round" stroke-dasharray="9 21"/>
<path opacity="0.78" d="M469.822 707.237C461.807 712.827 453.298 717.442 444.4 721.082C435.419 724.62 425.989 727.144 416.224 728.708C406.333 730.114 396.092 730.555 385.697 730.07C375.234 729.393 364.745 727.782 354.496 725.25C344.472 722.473 335.006 718.725 326.44 714.03C318.518 708.991 311.831 702.936 306.683 695.914C302.396 688.521 299.688 680.206 298.582 671.07C297.979 661.735 298.556 651.773 300.044 641.41C301.102 631.185 302.396 621.26 303.629 611.81C303.836 602.707 303.889 594.087 303.845 585.978C302.899 578.124 302.168 570.614 301.858 563.422C301.146 556.24 301.209 549.157 302.176 542.165C303.13 534.964 305.142 527.715 308.221 520.477C311.4 512.906 315.59 505.292 320.713 497.747C325.885 489.899 331.894 482.153 338.627 474.704C345.343 467.034 352.746 459.758 360.788 453.083C368.82 446.376 377.147 440.725 385.665 436.166C394.255 431.749 403.133 428.498 412.195 426.39C421.405 424.504 430.853 423.779 440.423 424.158C450.132 424.763 459.937 426.433 469.646 429.093C479.361 431.978 488.839 435.829 497.82 440.583C506.543 445.557 514.544 451.441 521.569 458.155C528.068 465.112 533.427 472.908 537.454 481.444C540.924 490.197 543.134 499.653 544.036 509.709C544.714 519.842 544.379 529.982 543.274 539.973C542.44 549.881 541.082 559.589 539.353 568.985C538.128 578.253 536.546 587.251 534.628 595.9C533.18 604.493 531.279 612.849 528.846 620.913C526.732 629.034 523.965 636.963 520.499 644.635C517.185 652.433 513.098 660.035 508.225 667.337C503.432 674.766 497.818 681.897 491.403 688.578C485.027 695.34 477.836 701.611 469.822 707.237Z" stroke="white" stroke-opacity="0.2" stroke-width="2.5" stroke-linecap="round" stroke-dasharray="20 3"/>
<path opacity="0.7" d="M449.306 693.219C442.065 697.702 434.417 701.328 426.488 704.131C418.513 706.853 410.245 708.708 401.797 709.723C393.339 710.623 384.743 710.661 376.207 709.883C367.755 708.941 359.483 707.15 351.638 704.546C344.076 701.745 337.144 698.108 331.085 693.66C325.539 688.996 321.038 683.508 317.763 677.261C315.065 670.815 313.57 663.652 313.275 655.879C313.266 648.002 314.172 639.629 315.83 630.891C317.196 622.236 318.84 613.737 320.567 605.53C321.586 597.513 322.591 589.781 323.578 582.394C323.891 575.152 324.337 568.177 325.044 561.456C325.325 554.763 326.092 548.213 327.433 541.828C328.637 535.329 330.587 528.9 333.297 522.584C336.001 516.082 339.519 509.642 343.834 503.362C348.154 496.894 353.251 490.603 359.056 484.616C364.857 478.49 371.351 472.741 378.497 467.51C385.636 462.258 393.104 457.874 400.793 454.39C408.503 450.981 416.448 448.525 424.53 447.004C432.654 445.636 440.911 445.226 449.169 445.731C457.433 446.421 465.649 448.017 473.633 450.487C481.513 453.128 489.05 456.629 496.049 460.915C502.768 465.375 508.798 470.628 513.953 476.599C518.675 482.74 522.445 489.573 525.104 497.039C527.357 504.643 528.569 512.836 528.702 521.523C528.654 530.273 527.747 539.056 526.177 547.733C524.751 556.382 522.842 564.898 520.543 573.197C518.615 581.437 516.335 589.473 513.774 597.224C511.572 604.956 509.024 612.457 506.094 619.692C503.449 626.939 500.333 633.969 496.711 640.708C493.262 647.516 489.224 654.069 484.576 660.29C480.032 666.588 474.817 672.548 468.937 678.064C463.094 683.628 456.554 688.722 449.306 693.219Z" stroke="white" stroke-opacity="0.2" stroke-width="2.5" stroke-linecap="round" stroke-dasharray="9 9"/>
<path opacity="0.89" d="M431.056 677.206C418.375 684.068 404.784 687.966 391.16 689.053C377.636 689.805 364.546 687.619 353.172 682.742C342.742 677.379 334.951 669.271 330.825 658.827C328.024 647.997 328.525 635.073 332.002 620.716C334.656 606.553 338.267 592.698 342.1 579.741C344.078 567.068 346.829 554.963 350.774 543.714C353.976 532.237 359.29 521.171 366.892 511.042C374.416 500.457 384.391 490.82 396.619 483.007C408.843 475.125 422.141 470.217 435.665 468.263C449.127 466.705 462.608 468.261 475.046 472.671C486.909 477.567 497.082 485.263 504.425 495.365C510.547 505.852 513.519 518.597 512.874 533.066C511.679 547.657 507.937 562.385 502.603 576.494C498.103 590.512 492.343 603.999 485.562 616.43C479.604 628.921 472.155 640.576 463.138 650.833C454.431 661.241 443.735 670.286 431.056 677.206Z" stroke="white" stroke-opacity="0.2" stroke-width="2.5" stroke-linecap="round" stroke-dasharray="2 2"/>
<path opacity="0.2" d="M417.472 659.091C406.941 664.093 396.254 666.63 386.074 666.914C376.046 667.003 366.878 664.76 359.419 660.427C352.561 655.848 347.851 649.2 345.81 640.822C344.418 632.282 345.411 622.161 348.662 610.877C351.402 599.675 355.231 588.504 359.558 577.871C362.759 567.338 366.68 557.169 371.362 547.747C375.443 538.215 380.854 529.213 387.704 521.202C394.44 512.982 402.854 505.748 412.827 500.185C422.802 494.563 433.38 491.347 443.837 490.447C454.179 489.748 464.178 491.469 473.02 495.387C481.383 499.587 488.208 505.953 492.746 514.159C496.507 522.582 497.839 532.742 496.409 544.27C494.614 555.869 490.719 567.633 485.457 578.988C480.591 590.324 474.58 601.285 467.745 611.384C461.385 621.521 453.978 630.901 445.609 638.984C437.437 647.161 428.011 654.065 417.472 659.091Z" stroke="white" stroke-opacity="0.2" stroke-width="2.5" stroke-linecap="round" stroke-dasharray="11 8"/>
<path opacity="0.29" d="M410.182 639.386C402.072 642.729 394.33 644.21 387.382 644.013C377.586 642.764 364.692 632.247 362.601 623.512C362.06 617.228 363.173 609.804 365.953 601.486C368.441 593.186 371.976 584.815 376.109 576.758C379.688 568.711 383.924 560.893 388.698 553.679C393.102 546.4 398.328 539.627 404.304 533.777C410.178 527.812 417.007 522.772 424.642 519.102C432.274 515.399 439.988 513.523 447.329 513.352C457.901 514.081 474.274 523.908 478.704 532.556C480.696 538.841 480.932 546.379 479.185 554.933C477.201 563.511 473.645 572.236 468.986 580.697C464.461 589.145 458.96 597.351 452.824 604.884C446.893 612.43 440.231 619.358 433.079 625.236C426.009 631.151 418.29 636.019 410.182 639.386Z" stroke="white" stroke-opacity="0.2" stroke-width="2.5" stroke-linecap="round" stroke-dasharray="4 26"/>
<path opacity="0.67" d="M409.493 618.982C394.153 622.36 380.044 607.996 383.978 592.828C387.693 581.949 394.577 570.689 402.729 561.15C410.278 551.5 419.845 543.416 430.274 539.224C440.689 535 450.031 535.663 456.283 540.236C462.078 544.942 464.183 553.514 461.089 564.684C457.59 575.883 449.998 587.499 440.647 597.257C431.489 607.052 420.463 615.062 409.493 618.982Z" stroke="white" stroke-opacity="0.2" stroke-width="2.5" stroke-linecap="round" stroke-dasharray="24 3"/>
</svg>
