<svg width="1343" height="1008" viewBox="0 0 1343 1008" fill="none" xmlns="http://www.w3.org/2000/svg">
<path opacity="0.91" d="M115.717 -1382.96C135.577 -1385.29 155.53 -1387.07 175.577 -1388.23C195.623 -1389.26 215.74 -1389.63 235.973 -1389.35C256.206 -1388.84 276.532 -1387.6 296.906 -1385.64C317.325 -1383.4 337.768 -1380.44 358.282 -1376.73C378.748 -1372.74 399.238 -1368.02 419.681 -1362.59C440.078 -1356.89 460.381 -1350.52 480.521 -1343.5C500.497 -1336.26 520.263 -1328.42 539.68 -1320.02C558.839 -1311.48 577.532 -1302.42 595.712 -1292.9C613.471 -1283.33 630.554 -1273.35 646.89 -1263.01C662.666 -1252.69 677.555 -1242.07 691.487 -1231.18C704.812 -1220.39 717.134 -1209.38 728.429 -1198.18C739.141 -1187.14 748.919 -1175.94 757.764 -1164.62C770.249 -1147.86 792.652 -1114.07 803.691 -1097.08C811.812 -1085.95 820.447 -1074.68 829.828 -1063.29C840.563 -1052.11 852.418 -1040.79 865.604 -1029.31C880.446 -1017.99 896.759 -1006.51 914.471 -994.819C933.724 -983.267 954.121 -971.505 975.451 -959.487C997.504 -947.585 1019.74 -935.403 1041.77 -922.964C1063.24 -910.572 1083.5 -897.9 1102.05 -884.902C1118.69 -871.926 1132.81 -858.648 1144.06 -845.042C1152.6 -831.437 1157.99 -817.481 1160.3 -803.199C1160.26 -788.893 1157.69 -774.261 1153.12 -759.302C1147.72 -744.296 1141.66 -728.964 1135.66 -713.328C1131.09 -697.646 1128.07 -681.637 1127.28 -665.347C1129.73 -649.012 1135.24 -632.372 1143.99 -615.5C1156.22 -598.557 1171.27 -581.358 1188.59 -563.925C1207.7 -546.469 1227.44 -528.756 1246.79 -510.857C1265.04 -492.934 1280.84 -474.801 1293.28 -456.482C1302.05 -438.139 1306.28 -419.656 1305.69 -400.986C1300.95 -382.317 1291.92 -363.507 1279.3 -344.558C1264.6 -325.608 1248.38 -306.542 1231.85 -287.335C1216.82 -268.152 1203.99 -249.063 1194.26 -230.113C1188.59 -211.14 1186.86 -192.307 1189.01 -173.568C1195.17 -154.851 1204.2 -136.228 1215.26 -117.722C1227.89 -99.1927 1240.47 -80.78 1251.9 -62.4371C1261.77 -44.0709 1268.66 -25.7981 1271.9 -7.59528C1271.6 10.7009 1267.05 28.9037 1258.32 47.0832C1246.14 65.356 1230.59 83.6056 1212.34 101.832C1192.48 120.198 1171.5 138.564 1150.31 156.977C1129.87 175.507 1110.67 194.106 1093.28 212.776C1078.39 231.585 1066.02 250.488 1056.24 269.438C1049.36 288.597 1044.78 307.827 1042.19 327.127C1041.61 346.59 1042.08 366.123 1043.03 385.679C1044.48 405.376 1045.37 425.095 1045.18 444.792C1044.06 464.558 1041.1 484.255 1036.08 503.788C1029.27 523.321 1020.14 542.644 1008.75 561.687C995.474 580.543 980.118 599.049 962.942 617.088C944.389 634.825 924.483 651.954 903.596 668.453C882.056 684.462 860.026 699.678 837.833 714.03C815.709 727.752 793.819 740.518 772.349 752.21C751.439 763.155 731.183 773.003 711.603 781.661C692.817 789.549 674.754 796.223 657.368 801.684C640.799 806.421 624.79 809.992 609.247 812.442C594.358 814.286 579.796 815.103 565.421 815.009C551.488 814.566 537.579 813.376 523.601 811.555C509.878 809.758 495.946 807.565 481.734 805.114C467.615 803.061 453.146 801.03 438.257 799.164C423.368 798.067 408.036 797.413 392.26 797.25C376.414 798.207 360.102 799.864 343.346 802.291C326.52 806.001 309.227 810.575 291.515 815.99C273.755 822.687 255.576 830.178 237 838.37C218.4 847.634 199.427 857.413 180.104 867.564C160.758 878.346 141.108 889.197 121.131 899.886C101.155 910.667 81.1086 920.796 61.0388 930.084C40.9923 938.905 20.9226 946.513 0.852811 952.791C-19.217 958.135 -39.2634 961.915 -59.2632 964.062C-79.263 964.996 -99.1928 964.156 -119.076 961.589C-138.889 957.738 -158.632 952.161 -178.258 944.95C-197.815 936.572 -217.231 926.7 -236.484 915.428C-255.644 903.293 -274.593 890.014 -293.286 875.732C-311.839 860.936 -330.135 845.394 -348.105 829.315C-365.887 813.049 -383.32 796.503 -400.38 779.77C-417.229 763.248 -433.658 746.772 -449.667 730.436C-465.466 714.59 -480.845 699.048 -495.781 683.856C-510.53 669.34 -524.882 655.268 -538.814 641.639C-552.677 628.757 -566.189 616.365 -579.374 604.393C-592.583 593.145 -605.535 582.317 -618.277 571.838C-631.159 562.013 -643.877 552.445 -656.479 543.064C-669.291 534.219 -681.987 525.468 -694.612 516.763C-707.447 508.408 -720.189 499.984 -732.791 491.396C-745.556 483.041 -758.112 474.453 -770.434 465.538C-782.802 456.74 -794.821 447.569 -806.489 437.954C-818.064 428.339 -829.173 418.258 -839.838 407.686C-850.363 397.021 -860.398 385.819 -869.919 374.081C-879.347 362.226 -888.332 349.81 -896.897 336.835C-905.461 323.743 -913.653 310.091 -921.54 295.925C-929.498 281.596 -937.176 266.754 -944.574 251.445C-952.065 235.996 -959.253 220.08 -966.114 203.744C-972.975 187.268 -979.416 170.396 -985.367 153.15C-991.201 135.81 -996.452 118.121 -1001.1 100.105C-1005.55 82.042 -1009.36 63.6526 -1012.55 45.0063C-1015.64 26.3134 -1018.16 7.36372 -1020.19 -11.8193C-1022.29 -31.0256 -1024.04 -50.4418 -1025.48 -70.0449C-1027.14 -89.6713 -1028.59 -109.461 -1029.82 -129.437C-1031.32 -149.414 -1032.55 -169.53 -1033.44 -189.81C-1034.42 -210.067 -1034.93 -230.253 -1034.86 -250.323C-1034.65 -270.393 -1033.77 -290.346 -1032.16 -310.206C-1030.29 -330.065 -1027.7 -349.808 -1024.41 -369.435C-1020.96 -389.061 -1016.9 -408.594 -1012.32 -428.011C-1007.72 -447.45 -1002.75 -466.773 -997.456 -486.003C-992.275 -505.233 -986.861 -524.369 -981.166 -543.412C-975.636 -562.478 -969.825 -581.428 -963.687 -600.284C-957.643 -619.164 -951.178 -637.95 -944.294 -656.596C-937.363 -675.289 -929.942 -693.889 -922.007 -712.348C-913.979 -730.831 -905.438 -749.174 -896.453 -767.377C-887.375 -785.58 -877.9 -803.642 -868.052 -821.518C-858.274 -839.395 -848.192 -857.061 -837.854 -874.517C-827.656 -891.926 -817.271 -909.102 -806.676 -925.998C-796.221 -942.824 -785.556 -959.37 -774.658 -975.566C-763.853 -991.645 -752.744 -1007.37 -741.309 -1022.73C-729.827 -1037.9 -717.949 -1052.67 -705.627 -1067C-693.118 -1081.12 -680.143 -1094.77 -666.654 -1107.91C-652.909 -1120.84 -638.673 -1133.23 -623.924 -1145.09C-608.942 -1156.71 -593.493 -1167.77 -577.6 -1178.25C-561.545 -1188.52 -545.115 -1198.22 -528.359 -1207.35C-511.51 -1216.29 -494.427 -1224.66 -477.135 -1232.51C-459.889 -1240.18 -442.456 -1247.35 -424.93 -1254.02C-407.497 -1260.6 -389.995 -1266.72 -372.399 -1272.41C-354.989 -1278.11 -337.51 -1283.4 -319.984 -1288.35C-302.644 -1293.37 -285.212 -1298.08 -267.732 -1302.52C-250.416 -1307.11 -232.984 -1311.45 -215.481 -1315.59C-198.095 -1319.95 -180.569 -1324.13 -162.903 -1328.12C-145.353 -1332.39 -127.617 -1336.47 -109.694 -1340.42C-91.8416 -1344.62 -73.7788 -1348.65 -55.4826 -1352.5C-37.2331 -1356.59 -18.7503 -1360.46 0.0126438 -1364.08C18.7289 -1367.88 37.7252 -1371.38 57.0015 -1374.53C76.2545 -1377.78 95.8109 -1380.6 115.694 -1382.96" stroke="white" stroke-opacity="0.2" stroke-width="2.5" stroke-linecap="round" stroke-dasharray="19 2"/>
<path opacity="0.36" d="M194.667 -1339.05C214.191 -1340.31 233.705 -1341 253.209 -1341.12C272.729 -1341.11 292.211 -1340.48 311.633 -1339.2C331.065 -1337.7 350.432 -1335.51 369.735 -1332.62C388.976 -1329.45 408.128 -1325.59 427.123 -1321.03C446.053 -1316.18 464.778 -1310.61 483.278 -1304.4C501.62 -1297.9 519.667 -1290.76 537.328 -1283.01C554.789 -1275.04 571.795 -1266.48 588.257 -1257.43C604.429 -1248.2 619.989 -1238.51 634.868 -1228.38C649.347 -1218.2 663.079 -1207.64 676.02 -1196.76C688.519 -1185.9 700.206 -1174.76 711.037 -1163.37C721.477 -1152.1 731.135 -1140.63 740.036 -1129.03C748.757 -1117.53 756.885 -1105.9 764.516 -1094.16C772.273 -1082.57 779.837 -1070.88 787.369 -1059.05C795.451 -1047.43 803.852 -1035.66 812.735 -1023.76C822.657 -1012.02 833.411 -1000.12 845.137 -988.044C858.226 -976.099 872.497 -963.967 887.947 -951.626C904.76 -939.391 922.682 -926.951 941.572 -914.267C961.382 -901.715 981.715 -888.923 1002.25 -875.931C1022.81 -863.055 1042.82 -849.977 1061.91 -836.72C1079.86 -823.624 1096.08 -810.395 1110.18 -796.988C1122.17 -783.798 1131.53 -770.46 1138.08 -757.006C1142.25 -743.716 1143.7 -730.282 1142.6 -716.718C1139.85 -703.251 1135.3 -689.562 1129.52 -675.666C1123.7 -661.748 1117.86 -647.551 1112.73 -632.986C1109.43 -618.289 1108.03 -603.199 1108.96 -587.692C1113.04 -571.953 1119.92 -555.791 1129.67 -539.157C1142.35 -522.349 1157.26 -505.154 1173.81 -487.605C1191.54 -469.963 1209.35 -452.082 1226.31 -434.018C1241.87 -416.012 1254.86 -397.948 1264.5 -379.871C1270.65 -361.999 1272.55 -344.191 1270.03 -326.455C1263.78 -308.916 1253.73 -291.437 1240.45 -273.985C1225.38 -256.615 1208.97 -239.183 1192.27 -221.605C1176.97 -203.944 1163.61 -186.24 1152.98 -168.421C1146.02 -150.409 1142.59 -132.26 1142.73 -113.947C1146.57 -95.4167 1153.19 -76.7925 1161.86 -58.0942C1172.26 -39.2945 1182.93 -20.5016 1192.93 -1.81833C1201.91 16.8511 1208.49 35.3327 1212.04 53.6126C1212.56 71.7841 1209.31 89.7101 1202.19 107.385C1191.78 124.96 1177.95 142.356 1161.24 159.583C1142.51 176.808 1122.17 193.961 1100.94 211.109C1079.72 228.374 1059.02 245.716 1039.4 263.17C1021.6 280.847 1005.73 298.707 992.041 316.743C980.932 335.072 972.082 353.556 965.305 372.186C960.734 391.04 957.654 410.004 955.648 428.986C954.755 448.103 954.007 467.158 953.008 486.105C951.801 505.016 949.532 523.701 945.854 542.093C941.019 560.277 934.314 578.069 925.696 595.399C915.462 612.376 903.251 628.792 889.184 644.562C873.647 659.894 856.494 674.477 838.009 688.256C818.503 701.508 798.067 713.887 776.984 725.339C755.494 736.159 733.758 746.007 711.964 754.846C690.328 762.993 668.963 770.104 647.965 776.137C627.473 781.523 607.512 785.841 588.126 789.118C569.383 791.801 551.211 793.513 533.611 794.253C516.643 794.586 500.145 794.082 484.066 792.808C468.464 791.375 453.155 789.351 438.037 786.848C423.263 784.458 408.527 781.814 393.778 779.005C379.234 776.675 364.523 774.406 349.636 772.338C334.796 771.066 319.677 770.176 304.224 769.78C288.758 770.412 272.926 771.701 256.68 773.666C240.387 776.821 223.654 780.698 206.526 785.323C189.31 791.065 171.656 797.483 153.639 804.511C135.52 812.467 117.026 820.846 98.1884 829.508C79.2941 838.728 60.0724 847.953 40.5341 856.994C21.0135 866.131 1.43686 874.633 -18.1164 882.341C-37.645 889.631 -57.1324 895.823 -76.5704 900.78C-95.9152 904.948 -115.174 907.647 -134.274 908.86C-153.287 908.979 -172.135 907.495 -190.796 904.409C-209.318 900.163 -227.628 894.315 -245.684 886.917C-263.584 878.452 -281.235 868.552 -298.577 857.362C-315.726 845.294 -332.576 832.099 -349.088 817.942C-365.425 803.187 -381.392 787.706 -396.971 771.593C-412.373 755.257 -427.401 738.522 -442.016 721.531C-456.474 704.643 -470.555 687.706 -484.217 670.795C-497.784 654.263 -510.963 637.894 -523.808 621.802C-536.615 606.25 -549.091 591.044 -561.31 576.228C-573.566 562.041 -585.612 548.264 -597.447 534.873C-609.462 522.149 -621.312 509.809 -633.089 497.801C-645.088 486.411 -657.011 475.306 -668.877 464.415C-681.008 454.069 -693.1 443.842 -705.105 433.737C-717.343 424.016 -729.465 414.302 -741.421 404.551C-753.534 395.071 -765.405 385.465 -777.009 375.688C-788.597 366.052 -799.821 356.18 -810.609 346.03C-821.307 335.956 -831.517 325.536 -841.236 314.724C-850.794 303.946 -859.788 292.732 -868.314 281.103C-876.719 269.41 -884.654 257.277 -892.118 244.682C-899.554 232.017 -906.611 218.861 -913.291 205.259C-920.033 191.537 -926.468 177.342 -932.55 162.724C-938.72 148.007 -944.56 132.842 -950.048 117.276C-955.553 101.593 -960.639 85.5372 -965.284 69.1332C-969.853 52.6402 -973.888 35.8046 -977.39 18.6731C-980.773 1.47852 -983.6 -16.0106 -985.85 -33.7697C-988.006 -51.5465 -989.678 -69.5989 -990.869 -87.88C-992.081 -106.209 -992.906 -124.749 -993.368 -143.502C-993.993 -162.264 -994.278 -181.24 -994.296 -200.387C-994.452 -219.565 -994.271 -238.911 -993.73 -258.423C-993.235 -277.937 -992.254 -297.376 -990.765 -316.715C-989.205 -336.05 -987.044 -355.279 -984.258 -374.401C-981.332 -393.516 -977.782 -412.523 -973.631 -431.401C-969.387 -450.274 -964.61 -469.068 -959.374 -487.719C-954.113 -506.392 -948.485 -524.949 -942.513 -543.393C-936.609 -561.864 -930.407 -580.247 -923.909 -598.496C-917.502 -616.774 -910.775 -634.94 -903.705 -652.968C-896.657 -671.021 -889.196 -688.956 -881.322 -706.751C-873.401 -724.542 -864.998 -742.188 -856.137 -759.667C-847.16 -777.138 -837.748 -794.444 -827.879 -811.583C-817.989 -828.674 -807.712 -845.579 -797.121 -862.278C-786.58 -878.909 -775.771 -895.338 -764.742 -911.52C-753.882 -927.619 -742.827 -943.449 -731.626 -958.99C-720.618 -974.425 -709.441 -989.547 -698.122 -1004.31C-686.928 -1018.94 -675.521 -1033.21 -663.859 -1047.04C-652.254 -1060.71 -640.325 -1073.91 -628.05 -1086.66C-615.669 -1099.2 -602.874 -1111.24 -589.665 -1122.76C-576.259 -1134.05 -562.371 -1144.81 -548.025 -1155C-533.458 -1164.96 -518.411 -1174.36 -502.929 -1183.2C-487.25 -1191.81 -471.159 -1199.87 -454.706 -1207.34C-438.098 -1214.66 -421.193 -1221.45 -404.015 -1227.73C-386.775 -1233.87 -369.306 -1239.52 -351.702 -1244.71C-334.076 -1249.86 -316.359 -1254.57 -298.524 -1258.9C-280.758 -1263.25 -262.919 -1267.25 -245.008 -1270.89C-227.228 -1274.69 -209.372 -1278.19 -191.484 -1281.44C-173.701 -1284.88 -155.863 -1288.09 -137.965 -1291.1C-120.17 -1294.35 -102.269 -1297.44 -84.3068 -1300.35C-66.3997 -1303.53 -48.4063 -1306.58 -30.2607 -1309.44C-12.1918 -1312.59 6.0305 -1315.56 24.4049 -1318.33C42.7711 -1321.37 61.2867 -1324.16 79.9983 -1326.7C98.6961 -1329.41 117.587 -1331.83 136.691 -1333.88C155.801 -1336.05 175.096 -1337.79 194.644 -1339.05" stroke="white" stroke-opacity="0.2" stroke-width="2.5" stroke-linecap="round" stroke-dasharray="13 16"/>
<path opacity="0.88" d="M261.982 -1290.72C280.973 -1290.94 299.831 -1290.64 318.556 -1289.81C337.242 -1288.85 355.786 -1287.29 374.118 -1285.13C392.426 -1282.75 410.494 -1279.75 428.344 -1276.09C446.091 -1272.16 463.577 -1267.6 480.745 -1262.35C497.791 -1256.86 514.454 -1250.7 530.712 -1243.92C546.778 -1236.9 562.397 -1229.27 577.501 -1221.07C592.346 -1212.66 606.636 -1203.74 620.304 -1194.32C633.719 -1184.75 646.447 -1174.73 658.495 -1164.33C670.254 -1153.87 681.312 -1143.05 691.677 -1131.93C701.828 -1120.79 711.292 -1109.4 720.166 -1097.8C728.928 -1086.24 737.219 -1074.47 745.088 -1062.52C753.111 -1050.67 760.903 -1038.66 768.627 -1026.46C776.833 -1014.38 785.208 -1002.13 793.917 -989.73C803.434 -977.396 813.542 -964.898 824.378 -952.196C836.305 -939.577 849.121 -926.736 862.875 -913.666C877.814 -900.691 893.69 -887.488 910.431 -874.042C928.076 -860.7 946.354 -847.142 965.013 -833.422C983.989 -819.806 1002.83 -806.064 1021.24 -792.209C1039.06 -778.541 1055.79 -764.837 1071.06 -751.094C1084.84 -737.646 1096.62 -724.198 1106.13 -710.807C1116.06 -691.234 1120.76 -652.679 1116.42 -633.595C1111.92 -620.99 1106.37 -608.228 1100.3 -595.268C1094.77 -582.246 1089.83 -568.871 1086.01 -555.081C1084.28 -541.045 1084.56 -526.49 1087.17 -511.4C1092.68 -495.945 1100.68 -479.936 1111.06 -463.364C1123.84 -446.508 1138.25 -429.202 1153.69 -411.515C1169.78 -393.751 1185.49 -375.773 1199.99 -357.704C1212.89 -339.823 1223.13 -322.023 1230.11 -304.395C1233.81 -287.133 1233.58 -270.122 1229.37 -253.395C1221.85 -237.036 1210.89 -220.894 1197.13 -204.873C1181.84 -189.032 1165.35 -173.145 1148.6 -157.101C1133.1 -140.908 1119.3 -124.539 1107.93 -107.905C1099.81 -90.8882 1094.87 -73.5189 1093.1 -55.7975C1094.79 -37.668 1099.08 -19.2549 1105.38 -0.603439C1113.54 18.2671 1122.2 37.198 1130.59 56.0728C1138.42 74.9282 1144.4 93.5645 1147.92 111.91C1148.97 130.012 1146.73 147.748 1141.02 165.074C1132.26 182.109 1120.21 198.78 1105.19 215.122C1087.96 231.297 1068.73 247.283 1048.1 263.105C1026.91 278.977 1005.55 294.852 984.61 310.801C964.745 326.97 946.245 343.325 929.367 359.871C914.637 376.741 901.85 393.865 891.065 411.155C882.45 428.772 875.535 446.519 870.021 464.338C866.04 482.314 862.791 500.26 859.935 518.064C857.53 535.827 854.758 553.312 851.327 570.413C847.361 587.264 842.185 603.618 835.578 619.358C827.845 634.682 818.457 649.293 807.423 663.123C795.091 676.399 781.17 688.806 765.778 700.335C749.291 711.193 731.596 721.134 712.916 730.064C693.537 738.349 673.525 745.618 653.07 751.872C632.359 757.508 611.511 762.117 590.685 765.742C570 768.772 549.566 770.869 529.453 772.04C509.702 772.737 490.399 772.618 471.546 771.682C453.145 770.494 435.2 768.631 417.703 766.164C400.631 763.676 383.918 760.737 367.526 757.46C351.481 754.436 335.646 751.225 319.933 747.981C304.439 745.257 288.976 742.677 273.488 740.306C258.095 738.722 242.561 737.544 226.852 736.839C211.148 737.097 195.186 737.937 178.963 739.403C162.66 741.941 146.025 745.098 129.079 748.899C112.036 753.723 94.6437 759.117 76.9359 764.99C59.1064 771.695 40.9576 778.715 22.5238 785.959C4.03247 793.691 -14.7342 801.366 -33.7367 808.848C-52.7501 816.424 -71.7155 823.394 -90.5932 829.623C-109.43 835.503 -128.149 840.388 -146.687 844.142C-165.117 847.181 -183.348 848.927 -201.321 849.293C-219.138 848.738 -236.662 846.691 -253.894 843.174C-270.911 838.624 -287.613 832.608 -303.936 825.18C-320.072 816.764 -335.792 807.01 -351.153 796.006C-366.278 784.208 -380.992 771.306 -395.309 757.442C-409.419 743.014 -423.131 727.81 -436.437 711.95C-449.569 695.805 -462.318 679.211 -474.676 662.288C-486.941 645.376 -498.88 628.29 -510.438 611.156C-522.023 594.254 -533.289 577.436 -544.313 560.765C-555.413 544.531 -566.327 528.507 -577.044 512.811C-587.957 497.586 -598.747 482.705 -609.459 468.161C-620.426 454.176 -631.335 440.502 -642.236 427.158C-653.434 414.344 -664.616 401.789 -675.783 389.495C-687.217 377.686 -698.625 366.045 -709.957 354.554C-721.503 343.484 -732.912 332.454 -744.142 321.492C-755.456 310.849 -766.504 300.143 -777.217 289.384C-787.911 278.861 -798.166 268.202 -808.002 257.381C-817.667 246.698 -826.861 235.812 -835.507 224.662C-843.975 213.603 -851.937 202.229 -859.37 190.564C-866.665 178.915 -873.47 166.902 -879.788 154.546C-886.103 142.168 -891.992 129.369 -897.511 116.216C-903.068 102.987 -908.294 89.3502 -913.173 75.3554C-918.134 61.2569 -922.767 46.7743 -927.049 31.91C-931.372 16.9938 -935.299 1.70155 -938.811 -13.9176C-942.314 -29.6063 -945.336 -45.5907 -947.874 -61.8938C-950.337 -78.235 -952.298 -94.8458 -953.734 -111.724C-955.098 -128.616 -955.983 -145.782 -956.395 -163.173C-956.781 -180.584 -956.766 -198.207 -956.324 -216.061C-955.952 -233.924 -955.179 -251.998 -954.031 -270.262C-952.975 -288.537 -951.498 -306.998 -949.605 -325.597C-947.756 -344.225 -945.423 -362.772 -942.629 -381.242C-939.789 -399.705 -936.441 -418.086 -932.566 -436.357C-928.601 -454.594 -924.152 -472.75 -919.176 -490.797C-914.179 -508.818 -908.701 -526.735 -902.837 -544.536C-896.973 -562.337 -890.744 -580.047 -884.178 -597.624C-877.659 -615.207 -870.82 -632.705 -863.648 -650.045C-856.545 -667.394 -849.056 -684.627 -841.231 -701.726C-833.362 -718.797 -825.112 -735.705 -816.411 -752.465C-807.642 -769.195 -798.4 -785.75 -788.738 -802.092C-778.962 -818.396 -768.739 -834.507 -758.144 -850.386C-747.482 -866.233 -736.474 -881.828 -725.166 -897.176C-713.89 -912.458 -702.409 -927.48 -690.724 -942.243C-679.191 -956.906 -667.53 -971.273 -655.764 -985.321C-644.198 -999.276 -632.555 -1012.89 -620.79 -1026.14C-609.253 -1039.25 -597.551 -1051.97 -585.734 -1064.27C-574.008 -1076.4 -562.079 -1088.06 -549.898 -1099.26C-537.719 -1110.25 -525.223 -1120.73 -512.391 -1130.69C-499.466 -1140.44 -486.134 -1149.65 -472.402 -1158.27C-458.48 -1166.71 -444.132 -1174.58 -429.383 -1181.86C-414.419 -1188.97 -399.052 -1195.52 -383.302 -1201.53C-367.359 -1207.38 -351.081 -1212.69 -334.507 -1217.52C-317.758 -1222.24 -300.78 -1226.51 -283.554 -1230.3C-266.255 -1234.11 -248.77 -1237.49 -231.142 -1240.51C-213.482 -1243.59 -195.698 -1246.33 -177.831 -1248.78C-159.974 -1251.34 -142.028 -1253.66 -124.04 -1255.74C-106.074 -1258.04 -88.0604 -1260.14 -70.0017 -1262.02C-51.9592 -1264.17 -33.8867 -1266.17 -15.7408 -1267.99C2.36851 -1270.11 20.554 -1272.07 38.7899 -1273.86C57.0123 -1275.94 75.3315 -1277.84 93.7214 -1279.54C112.095 -1281.51 130.58 -1283.22 149.18 -1284.71C167.75 -1286.35 186.452 -1287.71 205.252 -1288.71C224.04 -1289.8 242.946 -1290.5 261.959 -1290.72" stroke="white" stroke-opacity="0.2" stroke-width="2.5" stroke-linecap="round" stroke-dasharray="21 26"/>
<path opacity="0.93" d="M315.165 -1240.01C333.405 -1239.27 351.398 -1238.07 369.112 -1236.38C386.783 -1234.58 404.164 -1232.22 421.213 -1229.32C438.206 -1226.24 454.854 -1222.56 471.094 -1218.32C487.265 -1213.82 502.995 -1208.72 518.267 -1203.03C533.42 -1197.08 548.091 -1190.55 562.234 -1183.46C576.217 -1176.13 589.625 -1168.24 602.491 -1159.83C615.131 -1151.22 627.21 -1142.12 638.666 -1132.58C649.948 -1122.87 660.611 -1112.74 670.687 -1102.25C680.65 -1091.65 690.057 -1080.73 698.953 -1069.47C707.819 -1058.17 716.278 -1046.59 724.405 -1034.73C732.673 -1022.87 740.755 -1010.76 748.749 -998.435C757.146 -986.104 765.622 -973.546 774.317 -960.759C783.676 -947.973 793.447 -934.97 803.721 -921.736C814.871 -908.488 826.693 -895.025 839.226 -881.293C852.715 -867.604 866.941 -853.664 881.882 -839.479C897.664 -825.358 913.977 -811.023 930.733 -796.514C947.863 -782.105 965.091 -767.583 982.16 -752.971C998.983 -738.569 1015.14 -724.144 1030.33 -709.748C1044.53 -695.671 1057.28 -681.711 1068.28 -667.873C1081.37 -647.854 1094.25 -609.336 1094.05 -590.811C1090.02 -572.85 1075.01 -537.054 1066.48 -518.757C1061.87 -506.328 1058.23 -493.466 1055.96 -480.097C1055.88 -466.362 1057.8 -452.01 1061.88 -437.011C1068.51 -421.558 1077.24 -405.472 1087.87 -388.807C1100.32 -371.795 1113.87 -354.349 1127.91 -336.556C1142.16 -318.75 1155.62 -300.798 1167.65 -282.89C1177.9 -265.297 1185.52 -247.914 1190.02 -230.874C1191.48 -214.374 1189.37 -198.276 1183.63 -182.587C1175.01 -167.437 1163.37 -152.586 1149.25 -137.967C1133.83 -123.577 1117.37 -109.16 1100.64 -94.5778C1085.06 -79.7677 1070.95 -64.7183 1058.95 -49.269C1049.84 -33.3036 1043.51 -16.8193 1040.04 0.149926C1039.68 17.6993 1041.75 35.706 1045.78 54.0609C1051.67 72.7477 1058.31 91.5926 1064.95 110.461C1071.43 129.323 1076.56 147.97 1079.77 166.274C1081.04 184.302 1079.5 201.83 1074.94 218.868C1067.65 235.441 1057.29 251.515 1044.06 267.077C1028.54 282.325 1010.8 297.176 991.321 311.743C970.826 326.175 949.619 340.48 928.201 354.771C907.262 369.172 887.035 383.699 867.895 398.373C850.333 413.376 834.35 428.565 820.051 444.007C807.737 459.756 797.098 475.685 787.976 491.743C780.571 508.011 774.302 524.293 768.858 540.461C764.381 556.659 760.142 572.591 755.871 588.163C751.711 603.517 746.939 618.311 741.376 632.49C735.224 646.256 727.928 659.25 719.361 671.4C709.853 682.979 698.97 693.626 686.771 703.279C673.574 712.28 659.134 720.278 643.623 727.231C627.265 733.488 610.044 738.737 592.128 742.962C573.663 746.544 554.779 749.15 535.573 750.774C516.169 751.913 496.691 752.137 477.245 751.514C457.861 750.546 438.658 748.829 419.697 746.419C400.952 743.859 382.517 740.761 364.382 737.172C346.543 733.658 328.994 729.842 311.751 725.771C294.735 722.025 277.946 718.202 261.36 714.438C244.941 711.202 228.631 708.151 212.413 705.378C196.225 703.368 180.041 701.738 163.797 700.572C147.532 700.327 131.15 700.605 114.619 701.45C97.9657 703.245 81.1373 705.625 64.1187 708.54C46.9592 712.379 29.5716 716.698 11.9496 721.402C-5.75762 726.849 -23.7019 732.562 -41.8127 738.411C-60.0284 744.716 -78.3926 750.923 -96.866 756.945C-115.348 763.013 -133.712 768.556 -151.862 773.427C-169.958 777.999 -187.817 781.641 -205.409 784.312C-222.867 786.367 -239.992 787.224 -256.763 786.888C-273.336 785.71 -289.534 783.225 -305.302 779.394C-320.86 774.652 -335.97 768.591 -350.609 761.216C-365.018 752.957 -378.996 743.472 -392.458 732.822C-405.734 721.399 -418.542 708.945 -430.903 695.576C-443.088 681.621 -454.827 666.893 -466.163 651.502C-477.392 635.774 -488.223 619.549 -498.725 602.931C-509.182 586.203 -519.365 569.264 -529.259 552.162C-539.218 535.167 -548.986 518.159 -558.57 501.184C-568.349 484.506 -577.984 467.948 -587.56 451.591C-597.366 435.596 -607.144 419.842 -616.921 404.35C-626.991 389.303 -637.083 374.513 -647.198 359.979C-657.609 345.915 -668.038 332.084 -678.439 318.495C-689.11 305.356 -699.718 292.394 -710.24 279.613C-720.927 267.23 -731.424 254.975 -741.703 242.83C-752.044 231.03 -762.059 219.264 -771.703 207.541C-781.277 196.091 -790.393 184.604 -799.053 173.08C-807.557 161.749 -815.52 150.302 -822.967 138.757C-833.618 121.52 -852.141 86.2152 -860.127 67.9843C-867.664 49.5014 -880.89 10.9451 -886.671 -9.14472C-890.554 -22.7327 -894.099 -36.616 -897.322 -50.8449C-900.606 -65.132 -903.548 -79.7376 -906.103 -94.6534C-908.7 -109.6 -910.864 -124.849 -912.58 -140.35C-914.265 -155.893 -915.475 -171.707 -916.195 -187.741C-916.861 -203.814 -917.041 -220.084 -916.705 -236.594C-916.368 -253.104 -915.542 -269.834 -914.23 -286.763C-912.94 -303.695 -911.193 -320.807 -908.987 -338.098C-906.799 -355.415 -904.161 -372.866 -901.065 -390.496C-897.968 -408.125 -894.412 -425.673 -890.443 -443.147C-886.446 -460.64 -881.995 -478.028 -877.11 -495.315C-872.207 -512.575 -866.89 -529.761 -861.141 -546.847C-855.419 -563.913 -849.314 -580.864 -842.846 -597.727C-836.428 -614.574 -829.674 -631.315 -822.61 -647.929C-815.574 -664.524 -808.224 -681.016 -800.545 -697.354C-792.871 -713.67 -784.819 -729.847 -776.415 -745.866C-767.95 -761.827 -759.066 -777.619 -749.769 -793.195C-740.339 -808.723 -730.493 -824.058 -720.197 -839.124C-709.79 -854.146 -698.934 -868.899 -687.715 -883.421C-676.422 -897.834 -664.793 -911.999 -652.884 -925.876C-641.014 -939.665 -628.909 -953.176 -616.647 -966.374C-604.539 -979.504 -592.323 -992.307 -580.023 -1004.79C-567.958 -1017.14 -555.832 -1029.18 -543.679 -1040.83C-531.762 -1052.36 -519.795 -1063.5 -507.787 -1074.21C-495.946 -1084.78 -483.995 -1094.91 -471.911 -1104.58C-459.909 -1114.05 -447.71 -1123.04 -435.294 -1131.52C-422.865 -1139.81 -410.127 -1147.56 -397.104 -1154.79C-383.952 -1161.81 -370.446 -1168.29 -356.608 -1174.24C-342.57 -1179.98 -328.172 -1185.22 -313.443 -1189.91C-298.478 -1194.48 -283.196 -1198.55 -267.601 -1202.13C-251.784 -1205.61 -235.689 -1208.67 -219.337 -1211.3C-202.825 -1213.9 -186.094 -1216.13 -169.145 -1217.99C-152.087 -1219.93 -134.868 -1221.58 -117.491 -1222.91C-100.044 -1224.37 -82.4959 -1225.61 -64.8468 -1226.61C-47.1336 -1227.83 -29.3614 -1228.86 -11.5259 -1229.71C6.35462 -1230.81 24.3025 -1231.76 42.2717 -1232.56C60.286 -1233.62 78.3217 -1234.52 96.4058 -1235.31C114.508 -1236.32 132.654 -1237.19 150.818 -1237.88C169.019 -1238.78 187.255 -1239.49 205.493 -1239.94C223.763 -1240.57 242.026 -1240.89 260.305 -1240.9C278.6 -1241 296.872 -1240.71 315.142 -1240.01" stroke="white" stroke-opacity="0.2" stroke-width="2.5" stroke-linecap="round" stroke-dasharray="13 18"/>
<path opacity="0.61" d="M354.707 -1188.77C372.043 -1187.21 388.986 -1185.21 405.589 -1182.79C422.147 -1180.28 438.319 -1177.27 454.061 -1173.76C469.741 -1170.1 484.957 -1165.9 499.714 -1161.18C514.371 -1156.26 528.541 -1150.79 542.218 -1144.78C555.744 -1138.54 568.76 -1131.77 581.221 -1124.49C593.554 -1116.97 605.354 -1108.93 616.61 -1100.43C627.738 -1091.69 638.327 -1082.5 648.405 -1072.89C658.422 -1063.12 667.974 -1052.91 677.07 -1042.3C686.18 -1031.55 694.965 -1020.45 703.425 -1008.99C712.05 -997.416 720.475 -985.509 728.829 -973.307C737.472 -961.012 746.181 -948.389 755.012 -935.473C764.352 -922.482 773.984 -909.206 783.954 -895.633C794.602 -881.993 805.707 -868.051 817.347 -853.838C829.722 -839.592 842.655 -825.068 856.123 -810.272C870.247 -795.511 884.837 -780.494 899.792 -765.294C915.13 -750.193 930.6 -734.941 946.003 -719.61C961.354 -704.458 976.296 -689.309 990.599 -674.193C1004.26 -659.399 1016.87 -644.736 1028.18 -630.265C1038.33 -616.218 1046.83 -602.444 1053.58 -588.947C1060.5 -569.577 1062.85 -532.921 1058.85 -515.448C1052.46 -498.502 1036.52 -464.431 1029.2 -446.722C1024.79 -428.199 1026.2 -387.543 1033.07 -365.161C1040.47 -349.491 1049.51 -333.214 1059.96 -316.335C1071.73 -299.162 1084.07 -281.587 1096.45 -263.764C1108.66 -246.007 1119.81 -228.263 1129.34 -210.644C1137.06 -193.483 1142.2 -176.699 1144.38 -160.384C1143.82 -144.728 1140.01 -129.612 1132.96 -115.054C1123.44 -101.065 1111.26 -87.4984 1096.87 -74.2215C1081.47 -61.2121 1065.12 -48.1653 1048.51 -34.9632C1032.93 -21.5162 1018.61 -7.71921 1006.1 6.51305C996.128 21.3773 988.58 36.8465 983.546 52.9422C981.342 69.7407 981.363 87.0724 983.234 104.896C986.942 123.159 991.503 141.675 996.358 160.262C1001.34 178.927 1005.43 197.402 1008.07 215.529C1009.24 233.353 1008.12 250.651 1004.43 267.334C998.412 283.529 989.63 299.039 978.142 313.923C964.42 328.32 948.433 342.15 930.495 355.513C911.252 368.61 890.886 381.39 869.849 393.962C848.716 406.534 827.759 419.076 807.317 431.67C787.901 444.487 769.58 457.445 752.585 470.577C737.217 484.028 723.34 497.668 710.919 511.441C700.181 525.497 690.712 539.57 682.375 553.626C675.283 567.789 668.909 581.763 662.974 595.411C654.966 615.498 638.02 652.352 627.921 668.65C616.199 683.31 586.603 706.861 568.665 715.615C555.603 720.451 541.636 724.254 526.838 727.018C511.435 729.205 495.383 730.397 478.806 730.67C461.8 730.433 444.464 729.373 426.893 727.488C409.127 725.317 391.264 722.45 373.377 718.978C355.468 715.404 337.627 711.343 319.924 706.907C302.244 702.573 284.738 698.016 267.417 693.287C250.156 688.909 233.064 684.524 216.121 680.222C199.217 676.458 182.405 672.907 165.693 669.644C148.971 667.123 132.257 664.964 115.582 663.247C98.8025 662.368 81.9763 661.982 65.104 662.088C48.0929 663.074 31.0076 664.569 13.7854 666.536C-3.55922 669.313 -21.0299 672.516 -38.5994 676.032C-56.3267 680.205 -74.1312 684.6 -92.0081 689.098C-109.972 693.959 -127.971 698.763 -145.994 703.37C-164.028 708.021 -181.783 712.212 -199.273 715.795C-216.675 719.11 -233.744 721.642 -250.415 723.309C-266.977 724.426 -283.097 724.497 -298.752 723.528C-314.226 721.81 -329.232 718.932 -343.716 714.884C-357.976 710.001 -371.738 703.942 -384.952 696.695C-397.975 688.653 -410.437 679.474 -422.434 669.254C-434.206 658.297 -445.506 646.372 -456.306 633.56C-466.992 620.175 -477.25 606.005 -487.089 591.191C-496.859 575.985 -506.311 560.256 -515.439 544.077C-524.592 527.7 -533.482 511.026 -542.17 494.112C-551 477.188 -559.661 460.161 -568.215 443.087C-576.994 426.152 -585.687 409.261 -594.375 392.443C-603.314 375.877 -612.269 359.475 -621.234 343.215C-630.524 327.309 -639.812 311.595 -649.098 296.074C-658.697 280.958 -668.248 266.045 -677.781 251.353C-687.525 237.041 -697.149 222.927 -706.634 209.038C-716.229 195.507 -725.624 182.143 -734.724 168.946C-743.814 156.112 -752.546 143.387 -760.876 130.783C-769.106 118.467 -776.9 106.231 -784.173 94.0242C-794.609 76.0915 -812.643 40.4024 -820.299 22.4881C-827.361 4.59629 -839.341 -31.9212 -844.413 -50.7039C-849.284 -69.7263 -857.76 -109.148 -861.337 -129.564C-863.751 -143.318 -865.857 -157.357 -867.569 -171.639C-869.366 -185.964 -870.787 -200.56 -871.796 -215.369C-872.795 -230.223 -873.337 -245.28 -873.4 -260.534C-873.406 -275.822 -872.939 -291.285 -871.924 -306.929C-870.859 -322.584 -869.297 -338.409 -867.216 -354.396C-865.067 -370.368 -862.399 -386.503 -859.262 -402.79C-856.057 -419.06 -852.362 -435.477 -848.203 -452.023C-843.999 -468.558 -839.376 -485.04 -834.321 -501.419C-829.289 -517.803 -823.872 -534.095 -818.068 -550.294C-812.31 -566.505 -806.212 -582.633 -799.761 -598.63C-793.378 -614.642 -786.683 -630.556 -779.704 -646.353C-772.799 -662.145 -765.581 -677.837 -758.09 -693.368C-750.644 -708.91 -742.897 -724.307 -734.826 -739.555C-726.789 -754.763 -718.359 -769.804 -709.553 -784.612C-700.68 -799.404 -691.385 -813.95 -681.686 -828.28C-671.839 -842.526 -661.577 -856.504 -650.875 -870.21C-640.026 -883.831 -628.767 -897.163 -617.125 -910.187C-605.386 -923.115 -593.333 -935.753 -580.977 -948.053C-568.66 -960.291 -556.113 -972.186 -543.404 -983.754C-530.814 -995.231 -518.13 -1006.4 -505.391 -1017.19C-492.884 -1027.92 -480.344 -1038.28 -467.819 -1048.28C-455.558 -1058.18 -443.317 -1067.7 -431.077 -1076.82C-419.079 -1085.82 -407.038 -1094.4 -395.009 -1102.54C-383.104 -1110.55 -371.149 -1118.08 -359.064 -1125.14C-347.064 -1132.05 -334.871 -1138.47 -322.487 -1144.38C-310.09 -1150.14 -297.428 -1155.41 -284.512 -1160.13C-271.481 -1164.74 -258.14 -1168.84 -244.51 -1172.43C-230.739 -1175.92 -216.628 -1178.92 -202.219 -1181.47C-187.629 -1183.97 -172.739 -1186.01 -157.557 -1187.68C-142.211 -1189.33 -126.59 -1190.62 -110.767 -1191.56C-94.7354 -1192.56 -78.5086 -1193.28 -62.1093 -1193.71C-45.5584 -1194.28 -28.8468 -1194.62 -11.9971 -1194.73C4.96957 -1195.03 22.0625 -1195.16 39.2081 -1195.1C56.5044 -1195.28 73.836 -1195.3 91.2312 -1195.18C108.709 -1195.31 126.24 -1195.26 143.771 -1195.11C161.402 -1195.18 179.023 -1195.11 196.624 -1194.85C214.301 -1194.81 231.975 -1194.56 249.572 -1194.08C267.23 -1193.76 284.85 -1193.19 302.372 -1192.3C319.91 -1191.48 337.366 -1190.31 354.684 -1188.78" stroke="white" stroke-opacity="0.2" stroke-width="2.5" stroke-linecap="round" stroke-dasharray="24 4"/>
<path opacity="0.18" d="M383.806 -1138.06C400.089 -1135.78 415.984 -1133.11 431.475 -1130.08C446.933 -1126.93 461.922 -1123.37 476.487 -1119.37C490.977 -1115.2 505.013 -1110.58 518.561 -1105.48C531.996 -1100.17 544.973 -1094.38 557.438 -1088.12C569.806 -1081.62 581.679 -1074.61 593.048 -1067.14C609.763 -1055.35 640.833 -1029.04 655.31 -1014.61C664.86 -1004.59 674.088 -994.167 683.047 -983.333C692.122 -972.318 701.017 -960.87 709.797 -949.042C718.818 -937.043 727.843 -924.654 736.906 -911.911C746.336 -899.008 755.939 -885.712 765.758 -872.082C776.076 -858.325 786.698 -844.208 797.668 -829.79C809.182 -815.232 821.072 -800.39 833.31 -785.247C846.073 -770.066 859.124 -754.628 872.432 -738.991C886.063 -723.377 899.795 -707.61 913.5 -691.755C927.194 -676.024 940.599 -660.308 953.54 -644.586C966.066 -629.185 977.798 -613.903 988.588 -598.808C998.503 -584.125 1007.16 -569.725 1014.4 -555.632C1022.73 -535.457 1029.48 -497.615 1028 -479.923C1023.8 -463.078 1009.96 -430.374 1001.93 -414.007C995.083 -397.184 987.257 -360.882 987.749 -340.933C990.53 -326.85 994.91 -312.087 1000.85 -296.608C1008.57 -280.639 1017.48 -264.067 1027.32 -246.99C1038.03 -229.678 1048.89 -212.098 1059.42 -194.375C1069.49 -176.817 1078.29 -159.401 1085.34 -142.269C1090.63 -125.694 1093.47 -109.619 1093.53 -94.1395C1091.15 -79.4265 1085.86 -65.3493 1077.72 -51.9168C1067.45 -39.1047 1054.86 -26.7748 1040.38 -14.7764C1025.05 -3.03509 1008.87 8.67043 992.484 20.5811C976.977 32.7333 962.55 45.2616 949.651 58.3014C938.964 72.011 930.391 86.3856 923.994 101.468C920.121 117.315 918.244 133.815 918.109 150.843C919.754 168.435 922.324 186.355 925.363 204.418C928.774 222.617 931.666 240.684 933.523 258.462C934.375 275.935 933.389 292.876 930.303 309.181C925.297 324.904 917.871 339.918 908.018 354.173C896.11 367.806 881.998 380.746 865.889 393.033C848.328 404.881 829.359 416.228 809.359 427.19C788.876 437.981 768.084 448.581 747.31 459.041C727.071 469.589 707.43 480.172 688.692 490.833C671.143 501.757 654.785 512.774 639.678 523.926C626.042 535.377 613.706 546.88 602.537 558.396C592.724 570.102 583.875 581.687 575.796 593.065C565.292 609.952 546.369 641.186 536.882 655.04C526.906 667.526 503.349 687.335 489.416 694.453C473.851 699.712 438.053 704.547 418.037 704.215C404.029 703.288 389.495 701.519 374.535 698.987C359.219 696.176 343.606 692.739 327.733 688.712C311.643 684.594 295.409 680.066 279.069 675.166C262.592 670.394 246.073 665.439 229.556 660.315C212.91 655.54 196.307 650.78 179.73 646.1C163.048 641.924 146.394 637.977 129.755 634.303C112.994 631.274 96.2505 628.592 79.4807 626.316C62.5771 624.805 45.641 623.723 28.6433 623.085C11.5118 623.211 -5.68809 623.805 -22.9359 624.798C-40.3421 626.476 -57.7895 628.53 -75.2801 630.889C-92.9041 633.768 -110.567 636.855 -128.198 640C-145.915 643.509 -163.599 646.906 -181.183 650.139C-198.781 653.416 -216.014 656.291 -232.899 658.663C-249.71 660.788 -266.096 662.238 -282.031 662.922C-297.83 663.159 -313.138 662.497 -327.918 660.897C-342.502 658.65 -356.56 655.392 -370.063 651.106C-383.365 646.077 -396.106 639.999 -408.291 632.894C-420.269 625.023 -431.722 616.141 -442.639 606.299C-453.376 595.78 -463.644 584.355 -473.411 572.082C-483.104 559.246 -492.354 545.666 -501.252 531.413C-510.103 516.759 -518.63 501.521 -526.868 485.81C-535.179 469.857 -543.249 453.513 -551.158 436.877C-559.203 420.127 -567.12 403.196 -574.945 386.122C-582.976 369.084 -590.97 352.007 -598.936 334.915C-607.141 317.97 -615.338 301.076 -623.546 284.301C-631.991 267.746 -640.433 251.339 -648.832 235.115C-657.438 219.17 -665.98 203.416 -674.435 187.858C-683.02 172.651 -691.429 157.668 -699.649 142.864C-707.911 128.438 -715.893 114.218 -723.567 100.189C-731.173 86.4977 -738.404 73.0176 -745.195 59.6951C-751.889 46.6947 -758.113 33.8365 -763.855 21.0757C-772.005 2.41617 -785.703 -34.3103 -791.301 -52.5383C-796.436 -70.6019 -804.909 -107.111 -808.383 -125.671C-811.779 -144.403 -817.533 -182.965 -819.868 -202.79C-821.5 -216.159 -822.834 -229.706 -823.872 -243.505C-824.978 -257.324 -825.734 -271.33 -826.083 -285.554C-826.454 -299.785 -826.386 -314.176 -825.829 -328.735C-825.22 -343.303 -824.113 -357.988 -822.493 -372.835C-820.739 -387.641 -818.457 -402.58 -815.632 -417.623C-812.688 -432.654 -809.223 -447.795 -805.215 -463.04C-801.124 -478.236 -796.506 -493.565 -791.379 -508.959C-786.224 -524.369 -780.66 -539.679 -774.687 -554.89C-768.759 -570.114 -762.495 -585.237 -755.913 -600.287C-749.404 -615.336 -742.582 -630.29 -735.521 -645.147C-728.557 -660.008 -721.347 -674.796 -713.911 -689.442C-706.565 -704.115 -698.986 -718.668 -691.138 -733.067C-683.386 -747.471 -675.363 -761.72 -667.033 -775.778C-658.716 -789.791 -650.062 -803.629 -641.047 -817.211C-631.971 -830.75 -622.467 -844.014 -612.58 -857.015C-602.549 -869.924 -592.097 -882.534 -581.23 -894.824C-570.175 -907.008 -558.735 -918.856 -546.931 -930.374C-534.991 -941.778 -522.716 -952.837 -510.159 -963.541C-497.584 -974.143 -484.778 -984.383 -471.807 -994.279C-458.93 -1004.11 -445.947 -1013.56 -432.902 -1022.66C-420.048 -1031.69 -407.199 -1040.38 -394.368 -1048.68C-381.802 -1056.92 -369.292 -1064.81 -356.831 -1072.3C-344.64 -1079.7 -332.513 -1086.74 -320.411 -1093.36C-302.604 -1102.96 -267.221 -1119.87 -249.445 -1127.12C-231.674 -1133.78 -195.269 -1144.65 -176.53 -1148.87C-157.4 -1152.54 -117.661 -1157.67 -97.0471 -1159.23C-83.016 -1160.15 -68.7467 -1160.73 -54.2323 -1160.99C-39.5277 -1161.31 -24.6005 -1161.33 -9.45931 -1161.08C5.86997 -1160.97 21.3684 -1160.62 37.0429 -1160.04C52.8744 -1159.66 68.8663 -1159.08 84.974 -1158.32C101.216 -1157.77 117.581 -1157.05 134.002 -1156.2C150.557 -1155.55 167.174 -1154.79 183.811 -1153.84C200.544 -1153.14 217.32 -1152.25 234.048 -1151.21C250.882 -1150.35 267.655 -1149.29 284.39 -1148.03C301.165 -1146.9 317.865 -1145.52 334.433 -1143.87C351.03 -1142.23 367.495 -1140.31 383.784 -1138.06" stroke="white" stroke-opacity="0.2" stroke-width="2.5" stroke-linecap="round" stroke-dasharray="8 12"/>
<path opacity="0.46" d="M407.205 -1087.6C422.449 -1084.7 437.3 -1081.46 451.77 -1077.87C466.2 -1074.18 480.22 -1070.1 493.821 -1065.64C507.344 -1061.03 520.454 -1055.98 533.108 -1050.5C551.773 -1041.76 586.858 -1021.62 603.308 -1010.24C619.325 -998.022 649.606 -970.851 664.055 -955.929C673.678 -945.595 683.109 -934.808 692.393 -923.554C701.826 -912.096 711.215 -900.182 720.569 -887.833C730.174 -875.292 739.84 -862.305 749.634 -848.924C759.724 -835.334 769.979 -821.384 780.437 -807.036C791.245 -792.56 802.263 -777.708 813.493 -762.554C825.059 -747.301 836.772 -731.77 848.647 -716.005C860.713 -700.219 872.797 -684.278 884.825 -668.183C896.819 -652.201 908.575 -636.181 919.963 -620.173C931.033 -604.381 941.487 -588.742 951.192 -573.229C960.266 -558.098 968.367 -543.226 975.34 -528.67C983.791 -507.726 992.527 -468.52 992.697 -450.278C990.27 -433.092 979.308 -400.496 971.806 -384.657C964.401 -368.807 951.921 -335.602 948.311 -317.633C947.74 -305.01 948.426 -291.75 950.441 -277.777C954.167 -263.248 959.186 -248.044 965.432 -232.189C973.008 -215.894 981.366 -199.087 990.242 -181.865C999.581 -164.548 1008.71 -147.06 1017.24 -129.568C1025.08 -112.379 1031.53 -95.4539 1036.23 -78.9753C1039.22 -63.1258 1039.9 -47.9021 1038.08 -33.3766C1034.1 -19.6717 1027.55 -6.66741 1018.49 5.63857C1007.63 17.2831 994.778 28.4148 980.288 39.1928C965.105 49.6907 949.206 60.1737 933.074 70.8192C917.737 81.7332 903.305 93.0298 890.148 104.846C878.926 117.35 869.476 130.582 861.909 144.507C856.576 159.255 853.044 174.717 851.059 190.773C850.782 207.458 851.469 224.498 852.739 241.778C854.57 259.289 856.182 276.72 857.115 293.901C857.413 310.848 856.34 327.264 853.624 343.076C849.383 358.301 843.084 372.768 834.707 386.395C824.534 399.36 812.283 411.485 798.13 422.835C782.495 433.614 765.338 443.733 746.937 453.244C727.756 462.443 707.908 471.223 687.723 479.704C667.592 488.106 647.657 496.381 628.154 504.566C609.435 512.916 591.535 521.269 574.586 529.674C558.833 538.345 544.164 547.043 530.623 555.783C512.698 569.201 483.277 595.668 471.084 608.311C460.39 620.463 440.44 641.74 430.385 650.471C408.248 662.834 368.636 671.122 352.912 670.329C335.997 668.177 298.998 659.919 279.17 654.132C265.461 650.027 251.442 645.485 237.144 640.616C222.564 635.842 207.782 630.869 192.806 625.75C177.569 620.934 162.207 616.12 146.711 611.332C131.008 607.04 115.174 602.898 99.2594 598.976C83.1354 595.623 66.9204 592.584 50.6143 589.86C34.1099 587.81 17.5203 586.125 0.845417 584.808C-16.0058 584.171 -32.9422 583.901 -49.9259 583.962C-67.0836 584.63 -84.2723 585.585 -101.476 586.783C-118.835 588.471 -136.161 590.271 -153.446 592.161C-170.827 594.314 -188.102 596.381 -205.225 598.305C-222.386 600.265 -239.167 601.868 -255.513 603.034C-271.787 604.003 -287.622 604.387 -302.949 604.138C-318.167 603.456 -332.838 602.031 -346.981 599.781C-360.944 596.975 -374.363 593.301 -387.192 588.699C-399.861 583.46 -411.939 577.295 -423.48 570.208C-434.822 562.449 -445.627 553.769 -455.909 544.211C-466.053 534.008 -475.721 522.986 -484.921 511.166C-494.037 498.78 -502.747 485.698 -511.111 471.948C-519.418 457.771 -527.434 443.005 -535.198 427.76C-542.989 412.181 -550.56 396.211 -557.951 379.885C-565.455 363.392 -572.832 346.623 -580.114 329.665C-587.528 312.659 -594.88 295.551 -602.177 278.364C-609.624 261.246 -617.042 244.114 -624.379 227.036C-631.886 210.145 -639.32 193.329 -646.648 176.628C-654.102 160.204 -661.405 143.91 -668.537 127.828C-675.731 112.047 -682.702 96.4716 -689.407 81.1191C-696.086 66.0996 -702.446 51.2969 -708.475 36.7407C-714.373 22.5061 -719.909 8.50423 -725.01 -5.26251C-732.253 -25.3646 -744.351 -64.2908 -749.216 -83.2186C-753.577 -101.761 -760.385 -138.44 -762.982 -156.707C-765.476 -174.985 -769.453 -211.989 -771.057 -230.859C-772.714 -249.923 -775.186 -288.984 -775.885 -308.963C-776.345 -322.364 -776.476 -335.917 -776.233 -349.605C-775.991 -363.294 -775.331 -377.102 -774.21 -391.014C-772.994 -404.916 -771.273 -418.906 -769.011 -432.945C-766.632 -446.966 -763.69 -461.028 -760.169 -475.175C-756.526 -489.252 -752.32 -503.371 -747.543 -517.553C-742.657 -531.695 -737.23 -545.886 -731.315 -560.121C-725.334 -574.332 -718.965 -588.45 -712.223 -602.431C-705.547 -616.435 -698.535 -630.341 -691.267 -644.128C-684.102 -657.977 -676.711 -671.693 -669.102 -685.329C-661.653 -699 -653.994 -712.568 -646.154 -726.019C-638.476 -739.506 -630.594 -752.867 -622.526 -766.061C-614.553 -779.264 -606.32 -792.297 -597.857 -805.146C-589.409 -817.951 -580.665 -830.548 -571.598 -842.876C-562.481 -855.135 -552.974 -867.103 -543.1 -878.785C-533.096 -890.345 -522.668 -901.575 -511.857 -912.49C-500.869 -923.215 -489.498 -933.625 -477.749 -943.647C-465.856 -953.516 -453.62 -963.036 -441.109 -972.155C-428.52 -981.147 -415.692 -989.776 -402.675 -998.038C-389.707 -1006.17 -376.617 -1013.96 -363.457 -1021.39C-350.454 -1028.74 -337.433 -1035.73 -324.416 -1042.38C-311.644 -1048.96 -298.927 -1055.2 -286.296 -1061.06C-267.783 -1069.66 -231.615 -1084.94 -213.886 -1091.62C-196.539 -1097.86 -162.064 -1108.34 -144.804 -1112.53C-127.55 -1116.29 -92.3817 -1121.77 -74.3482 -1123.53C-55.9792 -1124.92 -18.0022 -1126 1.63806 -1125.78C14.9602 -1125.62 28.5243 -1125.18 42.2867 -1124.46C56.2231 -1123.88 70.3739 -1123.07 84.6872 -1122.02C99.1827 -1121.13 113.843 -1120.09 128.644 -1118.81C143.621 -1117.75 158.711 -1116.52 173.914 -1115.12C189.264 -1113.92 204.682 -1112.56 220.17 -1111.06C235.766 -1109.72 251.409 -1108.23 267.032 -1106.56C282.771 -1105.06 298.459 -1103.36 314.119 -1101.45C329.819 -1099.64 345.46 -1097.61 360.974 -1095.3C376.535 -1093.05 391.93 -1090.49 407.183 -1087.61" stroke="white" stroke-opacity="0.2" stroke-width="2.5" stroke-linecap="round" stroke-dasharray="21 15"/>
<path opacity="0.47" d="M429.569 -1035.92C443.825 -1032.47 457.742 -1028.71 471.323 -1024.59C484.875 -1020.4 498.082 -1015.83 510.943 -1010.87C529.952 -1003.03 566.107 -984.998 583.237 -974.715C600.009 -963.672 631.937 -938.88 647.241 -925.117C657.364 -915.526 667.303 -905.456 677.067 -894.927C686.928 -884.152 696.647 -872.879 706.305 -861.174C716.072 -849.192 725.829 -836.782 735.589 -823.912C745.517 -810.842 755.478 -797.324 765.501 -783.422C775.722 -769.332 786.005 -754.859 796.337 -740.033C806.873 -725.093 817.436 -709.86 828.002 -694.346C838.654 -678.795 849.234 -663.021 859.685 -647.124C870.071 -631.256 880.209 -615.344 889.994 -599.381C899.496 -583.645 908.504 -567.946 916.867 -552.401C924.745 -537.144 931.816 -522.138 937.996 -507.369C943.474 -493.033 947.91 -479.05 951.261 -465.44C954.449 -445.916 953.954 -409.564 950.485 -392.642C945.345 -376.5 931.656 -345.274 924.155 -329.731C917.54 -313.826 908.192 -279.71 906.464 -261.06C907.054 -247.892 908.764 -234.081 911.606 -219.598C915.814 -204.569 921.027 -188.923 927.093 -172.726C934.098 -156.17 941.55 -139.24 949.12 -122.055C956.838 -104.857 964.074 -87.6654 970.508 -70.62C976.118 -53.9603 980.306 -37.718 982.772 -22.0237C983.634 -7.02999 982.399 7.22616 978.899 20.7221C973.516 33.396 965.878 45.2884 956.112 56.4552C944.827 66.9589 931.833 76.9451 917.428 86.5448C902.499 95.8896 886.929 105.184 871.147 114.615C856.028 124.335 841.691 134.423 828.414 144.998C816.784 156.293 806.663 168.273 798.145 180.953C791.586 194.513 786.567 208.747 782.993 223.636C780.989 239.186 779.917 255.169 779.538 271.429C779.835 288.009 780.129 304.537 780.081 320.916C779.7 337.124 778.344 352.881 775.733 368.013C772.011 382.659 766.638 396.535 759.507 409.54C750.866 421.861 740.424 433.292 728.232 443.833C714.626 453.704 699.484 462.778 683.069 471.092C665.689 478.934 647.422 486.184 628.532 492.934C609.35 499.479 589.993 505.668 570.739 511.621C551.818 517.568 533.373 523.416 515.551 529.181C498.543 535.122 482.39 541.029 467.156 546.931C446.356 556.131 411.015 574.489 396.168 583.411C371.956 599.958 340.465 619.819 330.381 624.073C308.824 628.359 271.817 626.508 257.566 623.162C242.331 618.978 209.14 607.921 191.286 601.396C178.927 597.043 166.211 592.457 153.183 587.709C139.813 583.22 126.168 578.661 112.284 574.126C98.0757 569.983 83.6213 565.937 68.9546 562.027C54.0116 558.633 38.871 555.458 23.5541 552.512C7.95162 550.104 -7.79105 548.016 -23.6671 546.175C-39.8261 544.924 -56.0758 543.939 -72.4068 543.199C-88.95 543.002 -105.556 543.007 -122.206 543.172C-139.002 543.731 -155.793 544.393 -172.52 545.084C-189.371 546.001 -206.112 546.839 -222.725 547.503C-239.357 548.21 -255.598 548.604 -271.441 548.611C-287.218 548.469 -302.532 547.791 -317.383 546.576C-332.106 545.01 -346.309 542.78 -359.974 539.842C-379.981 534.339 -416.981 518.536 -434.012 508.144C-444.981 500.374 -455.451 491.752 -465.45 482.343C-475.27 472.35 -484.628 461.591 -493.564 450.1C-502.371 438.079 -510.806 425.38 -518.887 412.047C-526.907 398.282 -534.61 383.967 -542.049 369.106C-549.493 353.963 -556.688 338.368 -563.672 322.407C-570.71 306.218 -577.584 289.771 -584.293 273.063C-591.069 256.276 -597.719 239.315 -604.227 222.263C-610.839 205.217 -617.285 188.141 -623.628 171.059C-630.004 154.115 -636.232 137.237 -642.288 120.433C-648.342 103.859 -654.211 87.4429 -659.842 71.1814C-665.416 55.1992 -670.75 39.424 -675.748 23.8716C-680.678 8.62929 -685.251 -6.38078 -689.477 -21.1372C-693.591 -35.5649 -697.318 -49.7724 -700.645 -63.729C-705.279 -84.1389 -712.423 -123.522 -715.004 -142.628C-717.229 -161.324 -720.282 -198.181 -721.244 -216.504C-722.212 -234.752 -723.54 -271.595 -723.957 -290.291C-724.517 -309.125 -724.973 -347.497 -724.72 -366.969C-724.318 -386.606 -721.79 -426.272 -719.44 -446.23C-716.472 -466.146 -707.649 -505.941 -701.739 -525.769C-697.426 -538.91 -692.528 -552.05 -687.105 -565.165C-681.524 -578.236 -675.419 -591.282 -668.812 -604.312C-662.152 -617.345 -655.119 -630.241 -647.754 -642.965C-640.422 -655.73 -632.834 -668.383 -625.019 -680.911C-617.333 -693.496 -609.452 -705.944 -601.421 -718.327C-593.558 -730.733 -585.555 -743.052 -577.421 -755.263C-569.455 -767.496 -561.358 -779.621 -553.107 -791.577C-544.992 -803.567 -536.671 -815.39 -528.17 -826.983C-519.701 -838.563 -510.999 -849.915 -502.012 -860.989C-492.979 -871.992 -483.618 -882.699 -473.946 -893.067C-464.121 -903.317 -453.935 -913.23 -443.373 -922.777C-432.679 -932.163 -421.567 -941.163 -410.12 -949.763C-398.519 -958.193 -386.574 -966.243 -374.334 -973.86C-361.995 -981.356 -349.404 -988.437 -336.625 -995.131C-323.798 -1001.7 -310.849 -1007.91 -297.816 -1013.73C-284.842 -1019.47 -271.827 -1024.84 -258.827 -1029.89C-239.622 -1037.18 -201.844 -1050.1 -183.398 -1055.72C-165.426 -1061.01 -130.338 -1069.98 -113.202 -1073.65C-96.3735 -1077.02 -62.9981 -1082.13 -46.3345 -1083.84C-29.6575 -1085.29 4.19474 -1086.65 21.4834 -1086.59C39.0743 -1086.34 75.2616 -1084.59 93.8955 -1083.18C112.961 -1081.7 152.192 -1077.89 172.355 -1075.6C185.973 -1074.19 199.767 -1072.59 213.664 -1070.83C227.719 -1069.25 241.867 -1067.47 256.097 -1065.54C270.444 -1063.75 284.852 -1061.82 299.291 -1059.66C313.827 -1057.67 328.365 -1055.44 342.87 -1053.03C357.456 -1050.68 371.991 -1048.1 386.435 -1045.26C400.928 -1042.47 415.313 -1039.37 429.548 -1035.93" stroke="white" stroke-opacity="0.2" stroke-width="2.5" stroke-linecap="round" stroke-dasharray="18 15"/>
<path opacity="0.21" d="M454 -981.11C467.332 -977.155 480.442 -972.869 493.279 -968.25C512.349 -961.01 549.024 -944.474 566.628 -935.073C578.209 -928.501 589.537 -921.482 600.59 -914.026C622.587 -898.49 643.642 -881.05 663.881 -861.747C684.165 -841.505 703.862 -819.336 723.16 -795.353C742.703 -770.461 761.993 -743.891 781.023 -715.778C800.257 -687.141 819.077 -657.328 837.201 -626.664C854.868 -596.128 871.133 -565.31 885.407 -534.693C898.091 -505.069 907.837 -476.258 914.085 -448.703C917.84 -422.731 917.763 -398.236 913.878 -375.26C908.237 -353.57 899.932 -332.817 889.928 -312.482C881.05 -291.994 872.876 -270.676 866.643 -247.873C864.76 -223.223 866.337 -196.212 871.58 -166.786C881.111 -135.44 892.654 -102.39 904.609 -68.5021C916.076 -34.9932 923.877 -2.61604 925.984 27.5715C923.441 48.1667 906.2 84.1167 891.617 99.5559C880.06 108.942 867.036 117.817 852.856 126.287C838.219 134.524 823.07 142.685 807.681 150.959C792.906 159.519 778.744 168.417 765.487 177.75C753.613 187.812 742.987 198.509 733.734 209.904C726.145 222.146 719.939 235.066 714.992 248.599C711.448 262.873 708.852 277.602 706.942 292.629C705.171 323.697 702.933 354.345 698.161 383.337C690.3 410.679 676.857 434.737 657.438 455.152C632.998 472.725 603.374 486.901 569.909 498.128C534.387 507.838 497.917 515.862 462.04 522.72C428.039 529.852 396.629 536.627 368.363 543.089C343.608 550.421 321.998 557.285 303.139 563.322C286.886 569.742 272.219 574.692 258.379 577.811C245.407 580.611 232.086 581.166 218.018 579.43C203.412 577.21 187.39 572.83 169.9 566.551C151.188 560.305 130.837 552.753 108.999 544.262C85.7776 536.691 61.1171 528.911 35.1828 521.216C7.96335 515.225 -20.3975 509.778 -49.6294 505.014C-64.6782 503.354 -79.8847 501.85 -95.2594 500.522C-110.877 499.621 -126.579 498.833 -142.376 498.129C-158.331 497.788 -174.339 497.447 -190.336 497.086C-206.408 496.922 -222.468 496.633 -238.402 496.146C-254.367 495.722 -269.986 494.977 -285.237 493.922C-300.435 492.71 -315.213 491.031 -329.559 488.865C-343.788 486.418 -357.554 483.369 -370.825 479.707C-383.927 475.661 -396.543 470.918 -408.664 465.459C-432.302 453.146 -453.935 437.821 -473.681 419.607C-492.702 399.353 -510.034 376.344 -525.868 350.852C-541.251 323.756 -555.4 294.643 -568.451 263.889C-581.361 232.29 -593.377 199.654 -604.533 166.356C-615.615 133.069 -625.83 99.6733 -635.056 66.5452C-644.036 34.1182 -651.883 2.29386 -658.41 -28.6759C-664.537 -58.5783 -669.263 -87.5316 -672.502 -115.494C-675.477 -142.431 -677.101 -168.576 -677.509 -194.024C-678.109 -218.889 -677.855 -243.424 -676.861 -267.818C-676.619 -292.124 -675.927 -316.594 -674.722 -341.3C-674.404 -366.169 -673.435 -391.388 -671.599 -416.82C-670.097 -442.317 -667.216 -467.899 -662.697 -493.407C-658.818 -512.406 -648.204 -549.947 -641.406 -568.456C-633.754 -586.741 -615.521 -622.841 -605.012 -640.667C-597.792 -652.494 -590.238 -664.151 -582.372 -675.65C-574.558 -687.15 -566.495 -698.522 -558.255 -709.778C-550.151 -721.077 -541.912 -732.282 -533.558 -743.349C-525.371 -754.502 -517.112 -765.539 -508.75 -776.471C-492.628 -798.537 -476.072 -820.016 -459.01 -840.74C-442.271 -861.445 -424.632 -881.09 -405.958 -899.475C-386.881 -917.419 -366.436 -933.83 -344.718 -948.573C-322.306 -962.674 -298.706 -975.097 -274.126 -985.791C-249.278 -995.982 -223.877 -1004.64 -198.268 -1011.79C-172.983 -1018.78 -147.916 -1024.46 -123.223 -1028.89C-99.2803 -1033.44 -75.8363 -1036.86 -52.8804 -1039.11C-30.653 -1041.68 -8.72538 -1043.15 13.0483 -1043.48C34.4489 -1044.22 55.9884 -1043.9 77.7708 -1042.5C99.6194 -1041.6 121.993 -1039.72 144.903 -1036.89C168.204 -1034.67 192.146 -1031.61 216.656 -1027.75C241.693 -1024.57 267.288 -1020.64 293.285 -1015.95C313.061 -1012.67 353.097 -1005.26 373.253 -1001.08C386.739 -998.307 400.244 -995.26 413.685 -991.931C427.178 -988.654 440.606 -985.043 453.969 -981.099" stroke="white" stroke-opacity="0.2" stroke-width="2.5" stroke-linecap="round" stroke-dasharray="25 8"/>
<path opacity="0.96" d="M480.958 -921.728C506.028 -912.818 530.312 -902.475 553.74 -890.713C576.969 -878.473 599.336 -864.574 620.826 -848.945C642.122 -832.617 662.607 -814.439 682.355 -794.447C701.956 -773.65 720.937 -751.053 739.275 -726.803C757.524 -701.848 775.102 -675.421 791.888 -647.78C808.342 -619.848 823.684 -591.079 837.629 -561.91C850.562 -533.09 861.485 -504.392 869.964 -476.232C876.694 -449.149 880.426 -423.09 880.927 -398.3C879.549 -374.826 875.106 -352.631 867.933 -331.547C860.149 -311.173 850.935 -291.175 841.23 -271.032C833.463 -250.133 827.055 -227.953 822.887 -204.056C822.676 -178.142 825.403 -149.994 830.847 -119.743C839.318 -87.9646 848.71 -55.0793 857.491 -21.9832C865.082 10.2814 868.777 40.8879 867.013 68.9488C860.168 93.9557 846.522 115.659 826.257 134.166C802.055 150.342 773.922 164.92 743.911 179.103C715.906 194.433 690.785 211.396 669.864 230.654C654.571 253.232 643.69 278.203 636.252 304.918C631.947 333.439 627.915 361.769 622.457 388.75C615.112 414.519 603.534 437.216 587.17 456.356C566.626 472.752 541.346 485.458 512.238 494.816C480.584 502.197 447.179 507.255 413.346 510.549C380.158 513.572 348.479 515.774 319.063 517.434C292.232 519.851 268.188 521.897 246.832 523.46C228.073 525.76 211.315 527.229 196.117 527.557C182.248 528.202 168.914 527.376 155.595 524.909C142.3 522.537 128.264 518.569 113.21 513.059C97.3274 507.903 80.0353 501.597 61.3366 494.414C41.3551 488.13 19.884 481.434 -3.03322 474.622C-27.2441 469.188 -52.7974 463.97 -79.4564 459.024C-107.251 455.604 -135.92 452.429 -165.204 449.381C-195.196 447.406 -225.429 445.101 -255.584 442.111C-285.831 439.229 -314.859 435.006 -342.481 429.118C-369.593 422.312 -395.02 413.274 -418.669 401.843C-441.534 388.842 -462.54 373.171 -481.764 354.919C-500.155 334.965 -516.885 312.495 -532.014 287.798C-546.518 261.709 -559.642 233.724 -571.433 204.247C-582.777 174.005 -592.935 142.753 -601.914 110.92C-610.482 79.0305 -617.883 47.04 -624.024 15.2997C-629.73 -15.889 -634.126 -46.4999 -637.183 -76.3008C-639.795 -105.246 -641.116 -133.301 -641.115 -160.474C-641.001 -186.824 -639.854 -212.488 -637.768 -237.495C-636.102 -262.153 -633.861 -286.501 -631.137 -310.702C-629.31 -334.941 -627.153 -359.284 -624.684 -383.742C-623.027 -408.432 -620.798 -433.22 -617.769 -458.081C-614.993 -482.927 -610.866 -507.631 -605.182 -531.993C-598.975 -556.048 -590.773 -579.585 -580.454 -602.533C-569.359 -625.053 -556.229 -647.031 -541.135 -668.483C-525.78 -689.781 -509.344 -710.338 -492.167 -730.22C-475.495 -750.396 -458.509 -770.091 -441.345 -789.303C-424.963 -808.892 -408.377 -827.902 -391.516 -846.183C-375.067 -864.543 -357.935 -881.854 -340.028 -897.901C-321.853 -913.575 -302.525 -927.708 -282.093 -940.169C-260.994 -951.968 -238.754 -962.019 -215.563 -970.323C-191.918 -978.064 -167.646 -984.195 -142.993 -988.805C-118.43 -993.17 -93.8883 -996.249 -69.5736 -998.11C-45.7727 -1000.11 -22.3848 -1001.08 0.529787 -1001.05C22.8317 -1001.42 44.731 -1000.9 66.2881 -999.485C87.4629 -998.613 108.531 -996.912 129.604 -994.342C150.635 -992.392 171.914 -989.62 193.519 -986.064C215.356 -983.182 237.687 -979.525 260.489 -975.105C283.629 -971.353 307.294 -966.835 331.375 -961.504C355.799 -956.758 380.548 -951.09 405.485 -944.448C430.61 -938.129 455.813 -930.601 480.938 -921.74" stroke="white" stroke-opacity="0.2" stroke-width="2.5" stroke-linecap="round" stroke-dasharray="17 1"/>
<path opacity="0.67" d="M508.346 -857.759C531.936 -847.915 554.858 -836.693 577.037 -824.06C599.027 -811.019 620.221 -796.405 640.593 -780.18C660.718 -763.334 679.983 -744.818 698.411 -724.671C716.53 -703.89 733.767 -681.537 750.04 -657.863C765.879 -633.665 780.63 -608.341 794.08 -582.202C806.786 -555.998 817.893 -529.374 827.097 -502.672C835.104 -476.489 840.813 -450.688 843.965 -425.639C845.597 -401.548 844.543 -378.435 840.816 -356.403C835.918 -335.265 828.884 -314.963 820.174 -295.301C811.729 -275.659 802.863 -255.849 794.295 -235.392C788.051 -213.665 783.437 -190.43 780.939 -165.362C781.8 -138.307 784.861 -109.335 789.714 -78.7191C796.483 -47.0216 803.214 -14.8452 808.637 16.9361C812.396 47.4678 812.267 75.9663 807.115 101.648C797.556 124.306 782.173 143.668 761.25 159.896C737.214 174.02 709.916 186.557 681.059 198.615C653.884 211.767 629.059 226.318 607.734 242.895C591.115 262.639 578.339 284.61 568.715 308.291C562.179 333.946 556.444 359.66 550.141 384.377C542.925 408.317 532.745 429.551 518.961 447.483C501.85 462.916 480.715 474.626 456.072 482.763C428.769 488.704 399.286 491.817 368.69 492.645C337.771 492.696 307.416 491.439 278.355 489.251C250.899 487.517 225.592 485.336 202.531 482.774C181.612 481.079 162.764 478.971 145.697 476.255C130.125 474.284 115.569 471.504 101.621 467.727C88.1139 464.552 74.445 460.316 60.3038 455.063C45.7159 450.439 30.112 444.94 13.3691 438.709C-4.35133 433.397 -23.4892 427.645 -43.9344 421.582C-65.5967 416.755 -88.5924 411.824 -112.792 406.847C-138.04 403.107 -164.298 399.282 -191.307 395.236C-218.97 392.045 -247.034 388.278 -275.233 383.663C-303.498 379.145 -330.797 373.307 -356.86 365.909C-382.477 357.799 -406.61 347.677 -429.132 335.432C-450.831 321.912 -470.821 306.082 -489.095 287.974C-506.436 268.469 -522.095 246.775 -536.089 223.135C-549.268 198.355 -560.879 171.899 -570.983 144.149C-580.355 115.764 -588.322 86.4938 -594.846 56.6993C-600.716 26.892 -605.226 -3.0185 -608.313 -32.7086C-610.869 -61.9326 -612.073 -90.7032 -611.924 -118.768C-611.438 -146.16 -609.788 -172.858 -607.044 -198.799C-604.397 -224.216 -600.915 -249.076 -596.812 -273.438C-593.318 -297.644 -589.429 -321.643 -585.3 -345.539C-582.078 -369.59 -578.648 -393.699 -574.992 -417.854C-572.067 -442.216 -568.617 -466.564 -564.392 -490.732C-560.308 -514.854 -554.969 -538.587 -548.109 -561.783C-540.686 -584.519 -531.419 -606.53 -520.119 -627.718C-508.095 -648.395 -494.149 -668.295 -478.409 -687.475C-462.418 -706.488 -445.462 -724.633 -427.956 -742.046C-410.897 -759.757 -393.65 -776.951 -376.39 -793.659C-359.894 -810.82 -343.372 -827.431 -326.793 -843.33C-310.692 -859.436 -294.17 -874.532 -277.105 -888.425C-259.937 -902.052 -241.843 -914.164 -222.838 -924.658C-203.256 -934.543 -182.665 -942.661 -161.168 -949.025C-139.115 -954.793 -116.357 -958.885 -93.1393 -961.436C-69.7213 -963.657 -46.1611 -964.577 -22.6271 -964.28C0.654422 -964.068 23.6963 -962.865 46.3625 -960.762C68.6146 -959.048 90.5105 -956.59 112.011 -953.413C133.195 -950.813 154.14 -947.559 174.948 -943.638C195.665 -940.422 216.448 -936.547 237.327 -932.018C258.368 -928.194 279.675 -923.716 301.324 -918.533C323.226 -914.023 345.497 -908.762 368.097 -902.692C390.983 -897.133 414.165 -890.675 437.523 -883.174C461.055 -875.977 484.697 -867.557 508.326 -857.772" stroke="white" stroke-opacity="0.2" stroke-width="2.5" stroke-linecap="round" stroke-dasharray="21 11"/>
<path opacity="0.25" d="M532.384 -790.937C554.493 -780.286 575.916 -768.341 596.587 -755.091C617.033 -741.543 636.662 -726.565 655.372 -710.177C673.743 -693.341 691.134 -675.053 707.461 -655.434C723.334 -635.368 738.025 -614.088 751.426 -591.795C764.181 -569.23 775.453 -545.941 785.077 -522.173C793.786 -498.511 800.614 -474.72 805.342 -451.17C808.924 -428.077 810.267 -405.505 809.26 -383.656C807.177 -362.473 802.89 -342.05 796.598 -322.38C789.911 -303.039 781.909 -284.048 773.029 -265.134C765.058 -245.681 757.28 -225.555 750.297 -204.389C745.591 -181.709 742.461 -157.398 741.071 -131.363C742.274 -103.574 744.937 -74.2715 748.521 -43.8645C753.068 -12.8753 756.898 17.9807 758.947 47.9015C759.103 76.3033 755.551 102.372 747.502 125.452C735.738 145.667 719.094 162.662 697.882 176.645C674.231 188.785 647.948 199.375 620.37 209.395C594.193 220.504 569.968 232.707 548.569 246.665C531.095 263.56 516.904 282.496 505.568 303.035C497.105 325.655 489.812 348.547 482.624 370.757C475.246 392.677 465.982 412.293 454.198 429.012C439.985 443.603 422.564 454.659 402.098 462.156C379.186 467.396 354.026 469.532 327.381 469.027C299.77 467.323 271.927 463.835 244.598 459.009C217.959 454.238 192.677 448.794 169.043 442.871C146.901 437.723 126.505 432.316 107.767 426.611C90.3604 421.853 74.1546 416.745 58.8558 411.211C44.1608 406.543 29.7429 401.353 15.2944 395.584C0.670119 390.705 -14.5124 385.288 -30.4306 379.374C-47.0989 374.414 -64.8348 369.086 -83.685 363.413C-103.515 358.843 -124.547 354.007 -146.667 348.906C-169.723 344.852 -193.731 340.43 -218.498 335.581C-243.855 331.398 -269.662 326.494 -295.676 320.585C-321.742 314.784 -346.986 307.703 -371.198 299.178C-394.937 290.103 -417.344 279.228 -438.274 266.514C-458.388 252.837 -476.853 237.13 -493.63 219.54C-509.465 200.818 -523.553 180.287 -535.941 158.087C-547.336 134.999 -557.073 110.53 -565.145 84.9798C-572.338 58.924 -577.933 32.1457 -581.948 4.981C-585.225 -22.2698 -587.009 -49.5618 -587.337 -76.69C-587.125 -103.527 -585.593 -129.981 -582.803 -155.894C-579.841 -181.414 -575.86 -206.427 -570.998 -230.862C-566.375 -255.098 -561.198 -278.944 -555.578 -302.485C-550.668 -326.094 -545.525 -349.585 -540.274 -373.025C-535.877 -396.729 -531.368 -420.466 -526.616 -444.136C-522.494 -468.018 -517.863 -491.722 -512.487 -515.096C-507.125 -538.334 -500.547 -560.976 -492.563 -582.847C-484.006 -604.198 -473.707 -624.642 -461.61 -644.02C-448.773 -662.868 -434.203 -680.757 -418.04 -697.736C-401.602 -714.536 -384.378 -730.363 -366.71 -745.385C-349.489 -760.745 -332.171 -775.535 -314.916 -789.816C-298.453 -804.637 -282.098 -818.927 -265.835 -832.554C-250.131 -846.486 -234.234 -859.512 -218.052 -871.445C-201.846 -883.214 -185.016 -893.605 -167.5 -902.424C-149.515 -910.743 -130.659 -917.35 -111.029 -922.232C-90.7988 -926.515 -69.8701 -929.129 -48.4242 -930.182C-26.555 -930.828 -4.40118 -930.146 17.8788 -928.2C40.2288 -926.23 62.4959 -923.299 84.5405 -919.454C106.455 -915.941 128.083 -911.737 149.401 -906.891C170.557 -902.606 191.455 -897.785 212.145 -892.418C232.772 -887.743 253.337 -882.558 273.877 -876.838C294.517 -871.831 315.271 -866.24 336.174 -860.07C357.288 -854.529 378.615 -848.301 400.13 -841.317C421.88 -834.798 443.8 -827.42 465.828 -819.024C488.002 -810.899 510.209 -801.578 532.365 -790.951" stroke="white" stroke-opacity="0.2" stroke-width="2.5" stroke-linecap="round" stroke-dasharray="22 16"/>
<path opacity="0.16" d="M548.837 -724.546C569.371 -713.237 589.116 -700.822 607.968 -687.359C626.625 -673.632 644.299 -658.752 660.884 -642.774C677.068 -626.434 692.099 -608.991 705.83 -590.601C719.009 -571.886 730.779 -552.346 741.013 -532.155C750.528 -511.84 758.32 -491.122 764.32 -470.246C769.435 -449.481 772.602 -428.842 773.744 -408.489C773.999 -388.462 772.247 -368.888 768.581 -349.873C764.281 -331.123 758.393 -312.775 751.155 -294.75C744.049 -276.521 736.275 -258.156 728.252 -239.39C721.416 -219.643 715.074 -198.892 709.656 -176.923C706.238 -153.343 704.048 -128.255 703.152 -101.697C704.056 -73.7263 705.672 -44.7199 707.476 -15.2155C709.555 14.3996 710.424 43.3828 709.261 70.9716C706.173 96.8267 699.691 120.188 689.328 140.547C675.855 158.224 658.384 172.893 637.242 184.708C614.236 194.934 589.109 203.69 562.923 211.819C537.924 220.929 514.486 230.941 493.379 242.357C475.468 256.497 460.332 272.42 447.728 289.796C437.73 309.332 429.055 329.259 421.011 348.804C413.261 368.509 404.518 386.355 394.16 401.781C382.197 415.564 367.843 426.143 351.106 433.403C332.262 438.53 311.344 440.478 288.844 439.606C265.069 437.279 240.58 432.84 215.969 426.673C191.314 420.162 167.293 412.656 144.274 404.442C122.023 396.73 101.022 388.702 81.3619 380.469C62.5878 373.174 44.9449 365.74 28.2711 358.212C12.0912 351.688 -3.55509 345.005 -18.9361 338.119C-34.3675 332.264 -49.9995 326.176 -65.9663 319.833C-82.5151 314.497 -99.7278 308.932 -117.723 303.099C-136.519 298.24 -156.213 293.105 -176.744 287.655C-198.07 283.031 -220.174 277.988 -242.887 272.365C-266.102 267.296 -289.712 261.429 -313.436 254.546C-337.236 247.751 -360.252 239.785 -382.279 230.516C-403.889 220.865 -424.216 209.671 -443.126 196.925C-461.284 183.44 -477.835 168.321 -492.691 151.61C-506.617 134.096 -518.794 115.069 -529.188 94.741C-538.626 73.7245 -546.298 51.6071 -552.216 28.6547C-557.256 5.28475 -560.62 -18.6493 -562.337 -42.8966C-563.35 -67.2496 -562.847 -91.6901 -560.927 -115.995C-558.568 -140.203 -554.981 -164.161 -550.307 -187.776C-545.542 -211.281 -539.941 -234.473 -533.683 -257.319C-527.761 -280.238 -521.43 -302.991 -514.852 -325.566C-508.926 -348.419 -502.916 -371.262 -496.804 -394.08C-491.481 -417.233 -486.009 -440.381 -480.308 -463.366C-475.086 -486.543 -469.309 -509.401 -462.815 -531.77C-456.233 -553.881 -448.518 -575.271 -439.502 -595.705C-429.895 -615.574 -418.725 -634.326 -405.939 -651.915C-392.459 -668.881 -377.454 -684.793 -361.059 -699.674C-344.383 -714.345 -327.094 -727.972 -309.471 -740.733C-292.238 -753.826 -274.994 -766.357 -257.939 -778.344C-241.609 -790.918 -225.469 -802.981 -209.582 -814.461C-194.275 -826.374 -178.983 -837.442 -163.601 -847.574C-148.332 -857.68 -132.683 -866.542 -116.571 -873.967C-100.133 -881.021 -83.0211 -886.49 -65.2824 -890.32C-46.9701 -893.6 -27.9826 -895.262 -8.48963 -895.358C11.5184 -895.016 31.9352 -893.282 52.6009 -890.294C73.5582 -887.179 94.5993 -883.012 115.597 -877.931C136.726 -873.076 157.716 -867.481 178.489 -861.273C199.309 -855.516 219.921 -849.262 240.321 -842.544C260.79 -836.411 281.126 -829.87 301.365 -822.891C321.719 -816.55 342.061 -809.729 362.394 -802.393C382.929 -795.653 403.528 -788.305 424.131 -780.279C444.931 -772.7 465.761 -764.328 486.548 -755.042C507.433 -745.979 528.237 -735.85 548.801 -724.576" stroke="white" stroke-opacity="0.2" stroke-width="2.5" stroke-linecap="round" stroke-dasharray="17 16"/>
<path opacity="0.82" d="M554.654 -662.455C573.514 -650.73 591.385 -638.176 608.249 -624.842C624.869 -611.322 640.367 -596.969 654.594 -581.831C668.463 -566.454 680.961 -550.323 692.019 -533.601C702.52 -516.669 711.463 -499.227 718.763 -481.453C725.388 -463.616 730.266 -445.611 733.378 -427.618C735.763 -409.677 736.346 -391.88 735.141 -374.343C733.356 -356.909 729.948 -339.706 725.067 -322.754C719.99 -305.698 713.84 -288.636 706.866 -271.491C700.351 -253.712 693.6 -235.384 686.897 -216.33C681.424 -196.064 676.486 -174.67 672.316 -152.021C669.712 -127.936 667.926 -102.547 666.873 -76.0671C666.896 -48.6193 667.045 -20.6624 666.831 7.26891C666.346 34.8757 664.403 61.4398 660.378 86.2975C654.517 109.328 645.665 129.813 633.517 147.394C618.877 162.552 601.026 174.888 580.25 184.643C558.109 193.057 534.289 200.085 509.646 206.455C485.913 213.729 463.515 221.669 442.988 230.726C425.037 242.222 409.379 255.239 395.943 269.579C384.763 286.019 374.996 302.974 366.117 319.778C357.876 337.098 349.293 353.054 339.895 367.063C329.532 379.954 317.528 390.105 303.845 397.288C288.49 402.639 271.39 404.99 252.845 404.499C232.947 402.485 212.126 398.129 190.787 391.853C168.905 384.861 147.095 376.548 125.694 367.27C104.461 358.152 83.9437 348.525 64.2783 338.583C45.0569 329.358 26.6921 320.05 9.10301 310.741C-8.18617 302.368 -24.9299 294.032 -41.2763 285.755C-57.7012 278.469 -74.0433 271.198 -90.4689 263.88C-107.337 257.528 -124.552 251.133 -142.199 244.583C-160.489 238.904 -179.327 233.054 -198.717 226.87C-218.734 221.441 -239.273 215.578 -260.169 209.177C-281.502 203.197 -303.031 196.48 -324.514 188.836C-346.078 181.278 -366.804 172.711 -386.512 163.116C-405.864 153.185 -423.953 142.038 -440.632 129.658C-456.629 116.735 -471.018 102.508 -483.766 87.0751C-495.652 71.0138 -505.796 53.8107 -514.144 35.6131C-521.612 16.9021 -527.315 -2.67074 -531.282 -22.8736C-534.43 -43.4236 -535.922 -64.4534 -535.833 -85.714C-535.121 -107.153 -532.96 -128.72 -529.51 -150.248C-525.731 -171.849 -520.863 -193.407 -515.033 -214.786C-509.239 -236.297 -502.783 -257.722 -495.764 -279.027C-489.162 -300.604 -482.231 -322.188 -475.101 -343.743C-468.607 -365.713 -461.998 -387.736 -455.307 -409.744C-449.233 -432.119 -442.977 -454.415 -436.436 -476.502C-430.194 -498.682 -423.414 -520.411 -415.895 -541.529C-408.222 -562.335 -399.457 -582.257 -389.531 -601.097C-379.031 -619.321 -367.136 -636.337 -353.829 -652.094C-339.897 -667.22 -324.655 -681.186 -308.184 -694.037C-291.511 -706.662 -274.338 -718.224 -256.93 -728.884C-239.86 -739.866 -222.86 -750.237 -206.112 -760.074C-189.972 -770.525 -174.152 -780.508 -158.668 -789.973C-143.738 -799.937 -128.993 -809.204 -114.346 -817.661C-99.9001 -826.245 -85.2995 -833.744 -70.4258 -840.01C-55.3824 -846.048 -39.847 -850.645 -23.885 -853.764C-7.41841 -856.432 9.59203 -857.543 27.0951 -857.179C45.1189 -856.38 63.6003 -854.204 82.3891 -850.731C101.612 -847.035 121.071 -842.272 140.616 -836.553C160.474 -830.856 180.347 -824.434 200.136 -817.317C220.148 -810.535 240.057 -803.206 259.826 -795.428C279.767 -788.1 299.585 -780.373 319.262 -772.263C339.143 -764.67 358.917 -756.661 378.584 -748.238C398.472 -740.281 418.239 -731.826 437.884 -722.841C457.738 -714.174 477.423 -704.86 496.893 -694.815C516.458 -684.937 535.76 -674.179 554.637 -662.471" stroke="white" stroke-opacity="0.2" stroke-width="2.5" stroke-linecap="round" stroke-dasharray="10 21"/>
<path opacity="0.29" d="M548.872 -607.887C565.89 -596.009 581.831 -583.61 596.616 -570.743C611.179 -557.703 624.484 -544.166 636.451 -530.184C648.047 -515.986 658.24 -501.379 666.901 -486.433C675.094 -471.341 681.726 -456.011 686.734 -440.545C691.193 -424.984 694.032 -409.352 695.238 -393.8C695.962 -378.15 695.12 -362.577 692.828 -347.092C690.266 -331.452 686.432 -315.778 681.555 -300.062C676.759 -283.88 671.259 -267.394 665.279 -250.465C659.909 -232.636 654.459 -214.035 649.158 -194.553C644.9 -173.842 641.045 -152.01 637.662 -129.119C635.355 -105.03 633.427 -80.0197 631.721 -54.3564C630.507 -28.1624 628.945 -1.96515 626.626 23.7573C623.738 48.8305 619.282 72.5559 612.852 94.3564C604.755 114.392 594.145 131.921 580.799 146.704C565.503 159.381 547.661 169.517 527.581 177.304C506.484 184.03 484.098 189.467 461.078 194.22C438.803 199.81 417.6 205.838 397.916 212.749C380.232 221.785 364.448 232.081 350.553 243.524C338.562 256.987 327.955 270.982 318.369 285.05C309.611 299.908 300.972 313.83 292.041 326.304C282.705 338.135 272.397 347.749 260.961 354.876C248.359 360.571 234.44 363.541 219.316 363.905C203.009 362.82 185.734 359.387 167.762 353.895C148.998 347.515 129.947 339.588 110.86 330.421C91.4995 321.063 72.3819 310.97 53.6802 300.365C34.9963 290.156 16.783 279.735 -0.867116 269.268C-18.5278 259.512 -35.7623 249.838 -52.6366 240.244C-69.6596 231.519 -86.5228 222.932 -103.307 214.431C-120.47 206.791 -137.735 199.213 -155.165 191.629C-173.135 184.8 -191.35 177.879 -209.79 170.785C-228.746 164.265 -247.923 157.44 -267.214 150.181C-286.867 143.288 -306.447 135.787 -325.817 127.55C-345.254 119.344 -363.739 110.415 -381.17 100.701C-398.296 90.7664 -414.147 79.9066 -428.577 68.1431C-442.43 55.9724 -454.744 42.853 -465.423 28.8547C-475.373 14.3723 -483.607 -0.936319 -490.146 -16.9564C-495.909 -33.4093 -499.997 -50.4919 -502.416 -68.0392C-504.159 -85.9571 -504.337 -104.245 -503.053 -122.74C-501.279 -141.531 -498.195 -160.487 -493.935 -179.514C-489.483 -198.813 -484.07 -218.176 -477.815 -237.555C-471.68 -257.27 -464.945 -277.093 -457.764 -296.95C-450.979 -317.234 -443.892 -337.639 -436.603 -358.135C-429.826 -379.08 -422.913 -400.119 -415.837 -421.118C-409.209 -442.466 -402.307 -463.653 -395.071 -484.515C-387.965 -505.414 -380.302 -525.781 -371.925 -545.377C-363.281 -564.616 -353.684 -582.86 -343.007 -599.974C-331.793 -616.44 -319.389 -631.654 -305.747 -645.534C-291.584 -658.815 -276.294 -670.881 -259.974 -681.802C-243.433 -692.483 -226.569 -702.094 -209.557 -710.825C-192.816 -719.814 -176.181 -728.195 -159.845 -736.077C-144.033 -744.523 -128.567 -752.553 -113.514 -760.136C-98.9691 -768.267 -84.7264 -775.832 -70.692 -782.695C-56.9261 -789.881 -43.1795 -796.128 -29.3889 -801.365C-15.486 -806.515 -1.36579 -810.435 13.0681 -813.055C27.8864 -815.363 43.0806 -816.269 58.6849 -815.806C74.7859 -814.944 91.2825 -812.762 108.111 -809.329C125.441 -805.629 143.06 -800.828 160.839 -795.031C179.06 -789.134 197.415 -782.439 215.776 -775.017C234.506 -767.747 253.246 -759.881 271.868 -751.525C290.832 -743.452 309.713 -734.954 328.398 -726.083C347.394 -717.564 366.261 -708.67 384.915 -699.42C403.847 -690.524 422.581 -681.189 441.034 -671.435C459.696 -661.938 478.056 -651.907 496.048 -641.312C514.161 -630.861 531.786 -619.736 548.839 -607.889" stroke="white" stroke-opacity="0.2" stroke-width="2.5" stroke-linecap="round" stroke-dasharray="21 2"/>
<path opacity="0.44" d="M532.775 -562.253C547.932 -550.516 561.918 -538.511 574.704 -526.276C587.328 -513.906 598.651 -501.282 608.643 -488.439C618.323 -475.461 626.588 -462.255 633.416 -448.924C639.881 -435.446 644.857 -421.831 648.386 -408.174C651.52 -394.374 653.223 -380.514 653.562 -366.62C653.584 -352.525 652.368 -338.319 650.019 -324.056C647.563 -309.374 644.188 -294.449 640.052 -279.2C636.118 -263.301 631.733 -246.85 627.021 -229.767C622.861 -211.719 618.636 -192.831 614.511 -173.088C611.108 -152.247 607.848 -130.496 604.778 -107.965C602.306 -84.5961 599.783 -60.7017 597.091 -36.608C594.452 -12.3766 591.155 11.4592 586.896 34.4553C581.91 56.5683 575.383 77.1387 567.087 95.7797C557.365 112.723 545.551 127.308 531.559 139.393C516.115 149.712 498.671 157.748 479.518 163.744C459.669 168.893 438.838 172.885 417.524 176.217C396.789 180.251 376.903 184.584 358.28 189.57C341.154 196.377 325.588 204.197 311.587 212.965C299.147 223.593 287.961 234.79 277.834 246.174C268.556 258.552 259.685 270.322 250.943 281.111C237.509 296.152 206.621 315.248 188.475 318.391C175.118 318.501 160.929 316.424 146.074 312.326C130.368 307.267 114.191 300.571 97.7184 292.486C80.7221 283.985 63.6246 274.48 46.6154 264.237C29.2798 254.112 12.1352 243.558 -4.78681 232.76C-21.9178 222.406 -38.8305 212.023 -55.4804 201.667C-72.4389 191.926 -89.2279 182.318 -105.895 172.822C-122.943 164.001 -139.986 155.297 -156.969 146.665C-174.426 138.634 -191.915 130.599 -209.398 122.499C-227.308 114.871 -245.199 107.046 -262.948 98.9534C-281.006 91.1454 -298.79 82.8998 -316.176 74.1458C-333.598 65.4214 -350.013 56.2312 -365.32 46.5521C-380.392 36.6802 -394.178 26.2038 -406.548 15.1358C-418.488 3.74477 -428.924 -8.27913 -437.827 -20.9C-446.129 -33.8936 -452.833 -47.4777 -457.946 -61.5538C-462.442 -76.0174 -465.383 -90.9433 -466.799 -106.218C-467.699 -121.857 -467.188 -137.84 -465.347 -154.042C-463.154 -170.624 -459.812 -187.425 -455.408 -204.405C-450.886 -221.755 -445.546 -239.324 -439.446 -257.035C-433.499 -275.225 -426.985 -293.608 -420.059 -312.15C-413.449 -331.187 -406.506 -350.407 -399.335 -369.754C-392.52 -389.534 -385.484 -409.375 -378.206 -429.143C-371.168 -449.167 -363.789 -468.958 -356.017 -488.346C-348.234 -507.683 -339.866 -526.384 -330.801 -544.237C-321.443 -561.697 -311.207 -578.126 -300.01 -593.352C-288.343 -607.967 -275.622 -621.303 -261.885 -633.33C-247.691 -644.766 -232.537 -654.997 -216.533 -664.084C-200.35 -672.956 -183.938 -680.776 -167.467 -687.68C-151.199 -694.868 -135.076 -701.424 -119.234 -707.476C-103.867 -714.105 -88.8396 -720.304 -74.2301 -726.128C-60.0919 -732.562 -46.3006 -738.499 -32.7934 -743.9C-19.5944 -749.712 -6.5526 -754.76 6.4125 -759.02C25.8785 -765.002 65.7912 -771.366 86.5376 -771.42C100.882 -770.771 115.539 -768.898 130.481 -765.869C145.908 -762.545 161.612 -758.149 177.502 -752.757C193.874 -747.219 210.444 -740.816 227.072 -733.644C244.164 -726.461 261.293 -718.644 278.4 -710.265C295.903 -702.03 313.343 -693.32 330.661 -684.208C348.312 -675.279 365.83 -665.999 383.111 -656.343C400.681 -646.924 418.001 -637.149 434.969 -626.993C452.171 -617.03 468.985 -606.657 485.295 -595.869C501.727 -585.152 517.583 -573.96 532.761 -562.271" stroke="white" stroke-opacity="0.2" stroke-width="2.5" stroke-linecap="round" stroke-dasharray="8 2"/>
<path opacity="0.47" d="M509.465 -524.662C522.75 -513.321 534.909 -501.824 545.923 -490.272C556.787 -478.61 566.431 -466.839 574.822 -454.964C586.404 -436.926 602.763 -400.163 607.545 -381.472C610.719 -362.332 611.165 -322.84 608.867 -302.254C607.067 -287.921 604.533 -273.169 601.422 -257.939C598.536 -242.005 595.248 -225.434 591.704 -208.184C588.544 -190.088 585.229 -171.216 581.834 -151.621C578.848 -131.226 575.751 -110.231 572.545 -88.7525C569.552 -66.8225 566.207 -44.7808 562.388 -22.9136C558.348 -1.2316 553.468 19.734 547.572 39.6211C540.91 58.536 532.878 75.8495 523.259 91.2598C512.54 105.161 500.118 116.924 485.992 126.465C470.788 134.567 454.09 140.698 436.114 145.074C417.671 148.809 398.472 151.506 378.904 153.577C359.802 156.29 341.386 159.11 323.934 162.383C307.642 167.207 292.561 172.823 278.749 179.19C266.16 187.235 254.694 195.791 244.199 204.649C229.931 219.346 203.595 246.212 190.301 256.619C176.029 264.533 143.703 269.662 125.543 266.81C112.505 263.46 98.9535 258.491 85.0299 252.062C70.502 245.12 55.6866 237.03 40.7298 228.033C25.2941 218.893 9.78763 209.141 -5.67976 198.928C-21.5742 188.881 -37.4002 178.612 -53.1217 168.208C-69.2221 158.196 -85.2709 148.175 -101.176 138.194C-117.521 128.678 -133.76 119.229 -149.911 109.86C-166.479 100.91 -182.954 92.0087 -199.261 83.1C-215.923 74.5364 -232.421 65.8819 -248.613 57.0915C-265.036 48.4986 -281.082 39.6308 -296.597 30.4624C-312.163 21.3026 -326.657 11.9102 -340.06 2.2717C-353.274 -7.50427 -365.227 -17.6502 -375.892 -28.1283C-386.199 -38.8674 -395.091 -50.0023 -402.572 -61.5005C-412.401 -79.4308 -424.194 -117.614 -426.29 -137.771C-426.857 -151.708 -426.16 -165.93 -424.321 -180.408C-422.214 -195.311 -419.081 -210.471 -415.058 -225.875C-410.945 -241.749 -406.058 -257.869 -400.514 -274.237C-395.075 -291.105 -389.095 -308.223 -382.684 -325.541C-376.448 -343.337 -369.864 -361.328 -362.966 -379.405C-356.263 -397.829 -349.239 -416.286 -341.89 -434.575C-334.631 -453.029 -326.939 -471.164 -318.786 -488.826C-310.543 -506.323 -301.688 -523.14 -292.168 -539.084C-282.351 -554.58 -271.713 -569.028 -260.255 -582.313C-248.377 -594.979 -235.606 -606.42 -221.998 -616.594C-207.991 -626.22 -193.193 -634.72 -177.705 -642.077C-162.067 -649.225 -146.27 -655.363 -130.47 -660.666C-114.808 -666.157 -99.3355 -671.077 -84.1271 -675.487C-69.2571 -680.401 -54.7609 -684.956 -40.6521 -689.171C-20.259 -696.174 18.4024 -708.777 36.9404 -713.967C55.2403 -718.81 92.0083 -724.144 110.761 -724.322C123.63 -723.938 136.699 -722.487 149.953 -719.987C163.611 -717.291 177.512 -713.588 191.576 -708.906C206.101 -704.07 220.791 -698.371 235.572 -691.874C250.797 -685.323 266.109 -678.058 281.446 -670.203C297.151 -662.358 312.84 -653.981 328.444 -645.166C344.375 -636.416 360.193 -627.267 375.768 -617.738C391.648 -608.345 407.239 -598.597 422.493 -588.517C437.964 -578.537 452.996 -568.209 467.509 -557.56C482.131 -546.962 496.146 -536.008 509.451 -524.681" stroke="white" stroke-opacity="0.2" stroke-width="2.5" stroke-linecap="round" stroke-dasharray="16 6"/>
<path opacity="0.7" d="M482.599 -492.135C494.123 -481.314 504.617 -470.413 514.087 -459.465C527.564 -442.881 548.832 -409.196 556.609 -392.03C562.988 -374.494 570.307 -338.259 571.484 -319.407C571.9 -306.363 571.502 -292.989 570.391 -279.213C569.31 -264.958 567.645 -250.188 565.478 -234.903C563.431 -219 561.017 -202.502 558.269 -185.401C555.704 -167.669 552.865 -149.372 549.771 -130.607C546.792 -111.361 543.523 -91.7897 539.869 -72.0827C536.181 -52.2985 531.94 -32.6857 527.047 -13.5696C521.825 5.11999 515.699 22.9201 508.564 39.5377C500.754 55.1467 491.74 69.2267 481.423 81.5364C470.254 92.5626 457.758 101.695 443.936 108.934C429.369 115.014 413.692 119.45 397.076 122.382C380.15 124.874 362.677 126.47 344.896 127.458C327.45 129.009 310.579 130.551 294.422 132.383C279.117 135.499 264.754 139.174 251.41 143.444C233.242 152.252 202.199 173.099 188.594 183.915C175.706 194.77 149.909 211.305 136.35 216.018C121.79 218.35 89.7848 214.245 72.3605 208.099C60.0703 203.039 47.4443 196.808 34.5832 189.563C21.2218 182.057 7.66024 173.764 -6.02016 164.854C-20.1661 155.91 -34.3889 146.544 -48.6452 136.866C-63.2928 127.357 -77.9697 117.673 -92.5863 107.866C-107.596 98.3119 -122.553 88.7519 -137.4 79.1486C-152.601 69.8564 -167.692 60.5208 -182.53 51.1895C-197.69 42.0922 -212.615 32.9277 -227.151 23.6794C-241.87 14.5767 -256.166 5.31306 -269.888 -4.18025C-283.637 -13.6287 -296.387 -23.1636 -308.087 -32.7904C-319.643 -42.5377 -330.05 -52.44 -339.27 -62.5225C-352.059 -78.0783 -370.885 -110.725 -376.875 -127.872C-381.131 -145.774 -383.349 -183.481 -381.584 -203.279C-379.886 -216.96 -377.276 -230.95 -373.865 -245.204C-370.375 -259.897 -366.162 -274.888 -361.355 -290.122C-356.554 -305.795 -351.224 -321.725 -345.398 -337.835C-339.689 -354.341 -333.532 -370.969 -326.979 -387.629C-320.493 -404.523 -313.6 -421.345 -306.265 -437.953C-298.942 -454.58 -291.127 -470.83 -282.803 -486.546C-274.296 -502.02 -265.206 -516.759 -255.477 -530.633C-245.458 -544.055 -234.732 -556.461 -223.274 -567.728C-211.463 -578.445 -198.908 -588.004 -185.629 -596.392C-172.054 -604.276 -157.838 -611.074 -143.05 -616.853C-128.104 -622.428 -113.097 -627.044 -98.1097 -630.871C-83.2233 -634.855 -68.4957 -638.265 -54.0151 -641.24C-39.7993 -644.627 -25.9133 -647.663 -12.3625 -650.401C7.28891 -655.17 44.537 -663.806 62.3103 -667.397C79.7007 -670.936 114.079 -674.927 131.268 -675.065C148.817 -674.297 184.925 -668.166 203.514 -662.797C216.309 -658.809 229.231 -654.016 242.238 -648.445C255.631 -642.79 269.07 -636.415 282.544 -629.425C296.38 -622.389 310.18 -614.804 323.913 -606.677C337.944 -598.602 351.87 -590.044 365.595 -581.108C379.568 -572.219 393.3 -562.926 406.677 -553.322C420.249 -543.76 433.407 -533.849 446.081 -523.655C458.859 -513.473 471.043 -502.963 482.587 -492.155" stroke="white" stroke-opacity="0.2" stroke-width="2.5" stroke-linecap="round" stroke-dasharray="14 18"/>
<path opacity="0.35" d="M455.205 -460.657C469.585 -445.261 493.86 -413.877 503.662 -397.862C515.727 -376.106 524.128 -353.63 529.157 -330.436C533.693 -306.216 535.2 -280.668 534.155 -253.66C533.086 -224.978 529.937 -194.378 525.143 -162.131C520.477 -128.323 514.085 -93.4914 505.823 -58.8408C496.814 -24.76 484.952 6.96135 469.751 34.4557C452.276 58.3299 430.668 76.2809 405.056 87.6756C391.44 91.9806 376.997 94.9568 361.857 96.6919C346.546 98.1219 330.82 98.7674 314.849 98.8814C299.099 99.434 283.794 99.9232 269.061 100.573C254.9 102.24 241.457 104.28 228.778 106.773C205.42 115.322 184.772 125.024 166.385 134.794C149.134 146.683 132.478 155.963 115.872 161.52C98.2834 165.996 79.6802 165.474 60.0722 160.164C38.67 153.184 16.1482 142.069 -7.04851 127.8C-32.0158 112.999 -57.4805 96.1229 -82.9625 78.0248C-109.947 60.3964 -136.748 42.0486 -162.772 23.3184C-176.17 14.1966 -189.323 4.93753 -202.094 -4.40267C-215.039 -13.6718 -227.531 -23.0881 -239.498 -32.6657C-251.506 -42.2204 -262.585 -51.7887 -272.725 -61.4024C-282.764 -71.0732 -291.795 -80.8554 -299.783 -90.6881C-315.147 -110.885 -326.136 -131.773 -332.894 -153.326C-338.619 -175.995 -340.296 -199.654 -338.359 -224.218C-335.772 -250.246 -330.115 -277.383 -321.917 -305.333C-313.566 -334.68 -303.083 -364.663 -290.717 -394.58C-278.248 -424.983 -263.78 -454.448 -247.321 -481.847C-230.129 -508.132 -210.508 -531.284 -188.434 -550.407C-176.958 -559.185 -164.866 -566.917 -152.18 -573.59C-139.263 -579.805 -125.808 -585.064 -111.868 -589.363C-97.8258 -593.48 -83.7314 -596.742 -69.6856 -599.281C-55.7173 -601.911 -41.8598 -604.023 -28.2517 -605.673C-1.59429 -610.16 23.9718 -613.444 48.1964 -615.733C71.5891 -619.884 94.0684 -622.611 115.733 -623.596C137.355 -625.467 158.818 -624.812 180.202 -621.437C202.342 -618.004 224.805 -611.567 247.383 -602.304C271.072 -592.781 294.926 -580.675 318.459 -566.38C343.018 -552.02 367.052 -535.785 389.96 -517.98C401.631 -509.12 412.964 -499.908 423.854 -490.341C434.817 -480.788 445.295 -470.909 455.193 -460.678" stroke="white" stroke-opacity="0.2" stroke-width="2.5" stroke-linecap="round" stroke-dasharray="25 13"/>
<path opacity="0.89" d="M428.833 -426.571C445.601 -407.326 459.429 -387.298 470.328 -366.674C480.826 -345.7 488.35 -323.745 493.13 -300.868C497.505 -277.172 499.319 -252.124 498.865 -225.817C498.18 -198.385 495.445 -169.565 490.813 -139.899C485.891 -109.6 478.924 -79.238 469.786 -49.9743C459.691 -21.8791 446.837 3.43163 431.011 24.6615C413.474 42.7527 392.661 55.8205 368.825 63.4814C343.732 68.6659 316.487 70.0183 288.018 68.6441C260.234 68.7278 233.983 68.8694 209.871 69.9938C187.62 74.8846 167.446 80.7367 149.148 86.8693C131.901 95.3196 115.483 102.223 99.5298 106.721C83.1605 111.058 66.3593 111.79 49.0657 108.738C30.5205 104.608 11.147 96.8582 -8.74712 86.0137C-30.1167 74.5378 -51.9834 60.7084 -73.9358 45.1037C-97.1206 29.58 -120.199 12.8363 -142.62 -4.79809C-165.839 -22.0964 -187.994 -40.2499 -208.388 -59.1572C-228.908 -78.0032 -246.179 -97.0552 -260.046 -116.311C-273.345 -136 -283.016 -156.287 -289.122 -177.09C-294.489 -198.772 -296.412 -221.326 -295.238 -244.61C-293.458 -268.993 -288.914 -294.256 -281.942 -320.025C-274.627 -346.688 -265.087 -373.578 -253.568 -400.03C-241.673 -426.51 -227.694 -451.746 -211.733 -474.832C-195.022 -496.7 -176.079 -515.58 -155.024 -530.816C-133.079 -544.279 -109.095 -554.141 -83.4166 -560.363C-57.3803 -565.903 -31.4036 -568.74 -6.01104 -569.632C18.8923 -571.635 42.9384 -572.52 65.8585 -572.519C88.1597 -574.216 109.594 -574.815 130.169 -574.192C150.6 -574.666 170.666 -573.276 190.325 -569.844C210.457 -566.72 230.595 -561.186 250.572 -553.263C271.331 -545.331 292.035 -535.011 312.34 -522.575C333.386 -510.111 353.9 -495.701 373.436 -479.569C393.38 -463.505 412.012 -445.817 428.823 -426.592" stroke="white" stroke-opacity="0.2" stroke-width="2.5" stroke-linecap="round" stroke-dasharray="22 19"/>
<path opacity="0.88" d="M403.274 -388.051C417.322 -370.086 428.956 -351.117 438.213 -331.36C447.158 -311.322 453.655 -290.24 457.829 -268.242C461.651 -245.693 463.221 -222.056 462.702 -197.549C461.839 -172.469 458.931 -146.715 454.048 -120.848C448.658 -95.0469 441.16 -69.9363 431.455 -46.4855C420.877 -24.4658 407.811 -5.20282 392.254 10.3196C375.519 23.375 356.235 32.3092 334.698 36.9233C312.419 39.8747 288.49 39.7717 263.579 37.3723C239.123 36.1238 215.699 34.6227 193.768 33.6123C173.026 35.5197 153.797 38.0866 136.011 40.963C119.026 46.0082 102.906 50.2137 87.4192 52.9673C71.8142 56.2252 56.205 56.9825 40.502 55.0237C24.0165 52.5816 7.09616 47.2115 -10.0957 39.1233C-28.3214 30.5553 -46.9049 19.6087 -65.4984 6.69448C-85.0378 -6.30633 -104.444 -20.9299 -123.226 -36.8493C-142.647 -52.6038 -161.158 -69.5714 -178.193 -87.6082C-195.292 -105.618 -209.748 -124.02 -221.401 -142.729C-232.658 -161.704 -240.924 -181.266 -246.281 -201.306C-251.055 -221.891 -252.953 -243.219 -252.171 -265.029C-250.848 -287.545 -247.031 -310.568 -240.933 -333.757C-234.398 -357.355 -225.689 -380.77 -214.994 -403.42C-203.799 -425.721 -190.6 -446.607 -175.491 -465.33C-159.732 -482.858 -142.006 -497.664 -122.421 -509.277C-102.226 -519.424 -80.2718 -526.436 -56.9133 -530.317C-33.2821 -533.604 -9.68265 -534.476 13.46 -533.59C36.3141 -533.52 58.5374 -532.354 79.8665 -530.36C100.79 -529.765 120.976 -528.331 140.356 -525.981C159.572 -524.752 178.321 -522.215 196.506 -518.18C214.948 -514.681 233.137 -509.359 250.933 -502.129C269.233 -495.083 287.257 -486.027 304.792 -475.048C322.782 -464.132 340.221 -451.319 356.722 -436.751C373.5 -422.247 389.153 -406.012 403.274 -388.051Z" stroke="white" stroke-opacity="0.2" stroke-width="2.5" stroke-linecap="round" stroke-dasharray="9 21"/>
<path opacity="0.78" d="M376.967 -345.887C388.531 -329.307 398.08 -311.703 405.61 -293.296C412.929 -274.716 418.149 -255.208 421.386 -235.007C424.295 -214.544 425.206 -193.36 424.203 -171.854C422.802 -150.21 419.469 -128.51 414.233 -107.308C408.488 -86.5708 400.734 -66.9872 391.022 -49.266C380.597 -32.8783 368.07 -19.0449 353.544 -8.39448C338.248 0.473027 321.047 6.07505 302.148 8.36439C282.836 9.61138 262.228 8.41847 240.789 5.34018C219.636 3.15101 199.104 0.473531 179.555 -2.07718C160.721 -2.50477 142.888 -2.61399 126.114 -2.52371C109.867 -0.566041 94.3294 0.946484 79.4517 1.58637C64.5929 3.06 49.9409 2.9292 35.4771 0.928566C20.5783 -1.04395 5.58296 -5.20716 -9.39103 -11.5774C-25.0542 -18.1522 -40.8052 -26.8219 -56.413 -37.4198C-72.6495 -48.1199 -88.6736 -60.5498 -104.084 -74.4791C-119.951 -88.3726 -135.003 -103.687 -148.812 -120.325C-162.687 -136.939 -174.378 -154.167 -183.809 -171.788C-192.947 -189.56 -199.672 -207.926 -204.033 -226.672C-207.933 -245.726 -209.434 -265.271 -208.651 -285.069C-207.399 -305.154 -203.943 -325.439 -198.441 -345.523C-192.473 -365.621 -184.506 -385.229 -174.672 -403.808C-164.38 -421.855 -152.209 -438.407 -138.319 -452.938C-123.927 -466.384 -107.798 -477.469 -90.1405 -485.801C-72.0314 -492.98 -52.4696 -497.552 -31.6674 -499.417C-10.704 -500.82 10.2736 -500.126 30.9408 -497.842C51.438 -496.116 71.522 -493.307 90.9597 -489.729C110.132 -487.195 128.746 -483.923 146.64 -479.955C164.416 -476.959 181.704 -473.026 198.386 -467.993C215.185 -463.619 231.59 -457.895 247.46 -450.726C263.592 -443.869 279.318 -435.413 294.424 -425.333C309.794 -415.418 324.545 -403.804 338.366 -390.532C352.356 -377.344 365.329 -362.466 376.967 -345.887Z" stroke="white" stroke-opacity="0.2" stroke-width="2.5" stroke-linecap="round" stroke-dasharray="20 3"/>
<path opacity="0.7" d="M347.968 -303.443C357.243 -288.465 364.744 -272.642 370.542 -256.24C376.173 -239.741 380.011 -222.636 382.111 -205.159C383.973 -187.663 384.05 -169.878 382.441 -152.221C380.492 -134.735 376.788 -117.623 371.401 -101.393C365.606 -85.7491 358.081 -71.4101 348.88 -58.8752C339.232 -47.4022 327.878 -38.0892 314.955 -31.3145C301.62 -25.7329 286.803 -22.6413 270.722 -22.0296C254.425 -22.0114 237.105 -23.8861 219.028 -27.3167C201.123 -30.1412 183.54 -33.5422 166.562 -37.1153C149.977 -39.2228 133.981 -41.3037 118.7 -43.3449C103.718 -43.9913 89.2884 -44.9156 75.385 -46.3776C61.5378 -46.9579 47.9872 -48.5444 34.7783 -51.3196C21.3349 -53.8098 8.03518 -57.8449 -5.03123 -63.4504C-18.4823 -69.0436 -31.8057 -76.3229 -44.7962 -85.2492C-58.1777 -94.1858 -71.1912 -104.731 -83.5772 -116.74C-96.2517 -128.74 -108.145 -142.175 -118.965 -156.957C-129.831 -171.727 -138.9 -187.177 -146.109 -203.082C-153.16 -219.032 -158.24 -235.468 -161.386 -252.187C-164.218 -268.996 -165.066 -286.077 -164.021 -303.161C-162.593 -320.257 -159.292 -337.254 -154.181 -353.77C-148.718 -370.071 -141.476 -385.664 -132.609 -400.142C-123.383 -414.043 -112.515 -426.517 -100.162 -437.181C-87.4585 -446.95 -73.322 -454.749 -57.8781 -460.25C-42.1472 -464.911 -25.1984 -467.419 -7.22742 -467.694C10.8743 -467.594 29.0437 -465.718 46.9961 -462.47C64.888 -459.521 82.5059 -455.571 99.6736 -450.815C116.721 -446.825 133.344 -442.108 149.379 -436.812C165.374 -432.256 180.893 -426.984 195.86 -420.923C210.853 -415.452 225.396 -409.005 239.337 -401.513C253.421 -394.377 266.976 -386.023 279.847 -376.408C292.875 -367.007 305.205 -356.219 316.617 -344.055C328.127 -331.967 338.665 -318.438 347.968 -303.443Z" stroke="white" stroke-opacity="0.2" stroke-width="2.5" stroke-linecap="round" stroke-dasharray="9 9"/>
<path opacity="0.89" d="M314.837 -265.694C329.033 -239.461 337.097 -211.345 339.345 -183.16C340.901 -155.181 336.378 -128.103 326.289 -104.573C315.195 -82.996 298.422 -66.8782 276.816 -58.3429C254.412 -52.5472 227.675 -53.5843 197.974 -60.7773C168.675 -66.2665 140.012 -73.7371 113.208 -81.6669C86.9897 -85.7588 61.9477 -91.4495 38.677 -99.6117C14.9343 -106.235 -7.95933 -117.23 -28.9127 -132.956C-50.8103 -148.521 -70.7471 -169.157 -86.9111 -194.453C-103.217 -219.741 -113.37 -247.251 -117.412 -275.23C-120.636 -303.079 -117.416 -330.968 -108.293 -356.698C-98.1651 -381.24 -82.2439 -402.285 -61.346 -417.475C-39.6503 -430.141 -13.2848 -436.288 16.6487 -434.955C46.8343 -432.482 77.3016 -424.742 106.49 -413.707C135.488 -404.398 163.391 -392.481 189.107 -378.454C214.948 -366.128 239.058 -350.718 260.277 -332.063C281.809 -314.051 300.522 -291.925 314.837 -265.694Z" stroke="white" stroke-opacity="0.2" stroke-width="2.5" stroke-linecap="round" stroke-dasharray="2 2"/>
</svg>
