<svg width="54" height="55" viewBox="0 0 54 55" fill="none" xmlns="http://www.w3.org/2000/svg">
<rect y="0.80957" width="54" height="54" rx="27" fill="#34AADF"/>
<path d="M13.8085 26.1641C13.8085 26.1641 27.1086 20.5624 31.7213 18.5898C33.4896 17.8009 39.4862 15.276 39.4862 15.276C39.4862 15.276 42.2539 14.1715 42.0232 16.854C41.9463 17.9587 41.3313 21.8247 40.7163 26.0064C39.7937 31.9238 38.7942 38.3935 38.7942 38.3935C38.7942 38.3935 38.6405 40.2082 37.3336 40.5238C36.0266 40.8394 33.8739 39.4193 33.4896 39.1036C33.182 38.867 27.7236 35.3165 25.7248 33.5807C25.1866 33.1073 24.5716 32.1606 25.8016 31.0559C28.5693 28.4522 31.8751 25.2174 33.8739 23.166C34.7965 22.2192 35.719 20.01 31.8751 22.6926C26.4167 26.5587 21.0352 30.188 21.0352 30.188C21.0352 30.188 19.8051 30.977 17.4987 30.2669C15.1923 29.5569 12.5015 28.61 12.5015 28.61C12.5015 28.61 10.6565 27.4266 13.8085 26.1641Z" fill="white"/>
</svg>
