<svg width="54" height="55" viewBox="0 0 54 55" fill="none" xmlns="http://www.w3.org/2000/svg">
<rect y="0.80957" width="54" height="54" rx="27" fill="black"/>
<path fill-rule="evenodd" clip-rule="evenodd" d="M32.8305 24.139C34.6391 25.4259 36.805 26.1134 39.024 26.1051V21.7034C38.5878 21.7047 38.1527 21.6579 37.7267 21.5641V25.0707C35.5027 25.0746 33.3336 24.3792 31.5259 23.0826V32.1353C31.5204 33.6208 31.1134 35.0771 30.348 36.3498C29.5826 37.6225 28.4874 38.6642 27.1785 39.3644C25.8695 40.0645 24.3956 40.3971 22.9131 40.3269C21.4306 40.2566 19.9948 39.7861 18.7578 38.9652C19.902 40.1239 21.364 40.9167 22.9586 41.2432C24.5532 41.5697 26.2088 41.4153 27.7157 40.7994C29.2226 40.1836 30.513 39.134 31.4235 37.7836C32.334 36.4333 32.8237 34.8428 32.8305 33.2137V24.139ZM34.4357 19.6494C33.516 18.6516 32.9517 17.3775 32.8305 16.0253V15.4531H31.5992C31.7514 16.3126 32.0826 17.1304 32.5713 17.8533C33.06 18.5763 33.6952 19.1882 34.4357 19.6494ZM21.609 35.4806C21.1822 34.922 20.9207 34.2547 20.8541 33.5546C20.7876 32.8546 20.9187 32.1499 21.2326 31.5208C21.5465 30.8917 22.0306 30.3634 22.6297 29.9961C23.2288 29.6287 23.9189 29.4371 24.6214 29.443C25.0093 29.4429 25.3949 29.5023 25.7649 29.6191V25.0707C25.3324 25.0134 24.8963 24.9889 24.4602 24.9973V28.5333C23.5595 28.2484 22.5846 28.3132 21.7295 28.7148C20.8743 29.1165 20.2015 29.8257 19.845 30.7012C19.4884 31.5768 19.4742 32.5545 19.8051 33.4401C20.1361 34.3257 20.7879 35.0541 21.631 35.4806H21.609Z" fill="#EE1D52"/>
<path fill-rule="evenodd" clip-rule="evenodd" d="M31.5288 23.0533C33.3366 24.3499 35.5056 25.0453 37.7296 25.0414V21.5347C36.4625 21.2666 35.3114 20.6071 34.4386 19.6494C33.6981 19.1882 33.0629 18.5763 32.5742 17.8533C32.0855 17.1304 31.7543 16.3126 31.6021 15.4531H28.3624V33.2137C28.3594 33.9999 28.1105 34.7653 27.6506 35.4027C27.1908 36.04 26.5431 36.5172 25.7984 36.7672C25.0537 37.0173 24.2495 37.0277 23.4987 36.7969C22.7478 36.5661 22.088 36.1058 21.6119 35.4806C20.8574 35.0995 20.2531 34.4751 19.8966 33.7081C19.5401 32.9412 19.4521 32.0764 19.6469 31.2532C19.8417 30.4301 20.3079 29.6966 20.9703 29.1712C21.6326 28.6458 22.4525 28.3591 23.2977 28.3573C23.6855 28.3585 24.0709 28.4178 24.4411 28.5333V24.9973C22.8415 25.0358 21.2879 25.5408 19.9711 26.4505C18.6542 27.3603 17.6314 28.635 17.0282 30.1183C16.4249 31.6016 16.2675 33.229 16.5753 34.8006C16.8831 36.3721 17.6426 37.8196 18.7607 38.9652C19.998 39.792 21.4361 40.2673 22.9219 40.3407C24.4077 40.414 25.8856 40.0826 27.1981 39.3817C28.5106 38.6809 29.6086 37.6368 30.3751 36.3607C31.1416 35.0846 31.5479 33.6243 31.5508 32.1353L31.5288 23.0533Z" fill="white"/>
<path fill-rule="evenodd" clip-rule="evenodd" d="M37.7281 21.5345V20.5882C36.5644 20.5931 35.4233 20.2675 34.4371 19.6492C35.3077 20.6097 36.4597 21.2697 37.7281 21.5345ZM31.6006 15.4529C31.6006 15.2842 31.5493 15.1081 31.5273 14.9394V14.3672H27.0563V32.1351C27.0524 33.13 26.6543 34.0827 25.9494 34.7842C25.2444 35.4856 24.2902 35.8785 23.2962 35.8765C22.7109 35.8795 22.1333 35.7437 21.6104 35.4804C22.0865 36.1056 22.7463 36.5659 23.4972 36.7967C24.248 37.0275 25.0522 37.0171 25.7969 36.767C26.5416 36.517 27.1893 36.0398 27.6491 35.4025C28.109 34.7651 28.3579 33.9997 28.3609 33.2135V15.4529H31.6006ZM24.4396 24.9898V23.9848C22.5998 23.7346 20.7296 24.1155 19.1338 25.0654C17.538 26.0153 16.3107 27.4782 15.6518 29.2156C14.993 30.953 14.9416 32.8625 15.5058 34.633C16.0701 36.4034 17.2169 37.9304 18.7592 38.965C17.6496 37.8167 16.8982 36.3699 16.5967 34.8011C16.2952 33.2324 16.4567 31.6098 17.0615 30.1314C17.6663 28.6531 18.6882 27.383 20.0024 26.4765C21.3165 25.5699 22.866 25.0661 24.4616 25.0265L24.4396 24.9898Z" fill="#69C9D0"/>
</svg>
